<?xml version="1.0" encoding="UTF-8"?>
<svg width="463px" height="73px" viewBox="0 0 463 73" version="1.1" xmlns="http://www.w3.org/2000/svg" xmlns:xlink="http://www.w3.org/1999/xlink">
    <!-- Generator: Sketch 57.1 (83088) - https://sketch.com -->
    <title>Desktop_logo-full-desktop-white</title>
    <desc>Created with Sketch.</desc>
    <g id="Desktop" stroke="none" stroke-width="1" fill="none" fill-rule="evenodd">
        <g id="1WSQ-Desktop-Home" transform="translate(-45.000000, -81.000000)" fill="#FFFFFE">
            <g id="logo-full-desktop-white" transform="translate(45.000000, 80.000000)">
                <g id="logo-full-desktop">
                    <polygon id="Fill-1" points="16.5582 2.0029 0.0002 11.4369 0.0002 13.5439 15.5552 4.7129 15.5552 72.2529 17.5622 72.2529 17.5622 2.0029"></polygon>
                    <polygon id="Fill-2" points="48.874 72.2529 47.87 72.2529 24.988 2.0029 26.996 2.0029 48.372 67.5359 68.644 2.0029 69.647 2.0029 89.92 67.5359 111.296 2.0029 113.303 2.0029 90.422 72.2529 89.418 72.2529 69.145 7.0219"></polygon>
                    <g id="Group-37" transform="translate(115.000000, 0.256800)">
                        <g id="Group-5">
                            <path d="M2.1201,59.7529 C5.8331,65.5729 12.0551,71.1929 22.8941,71.1929 C32.3281,71.1929 40.6581,64.9719 40.6581,54.7349 C40.6581,46.5059 35.5381,42.0899 29.2161,39.0789 C18.4781,34.1619 3.7251,31.8539 3.7251,18.1049 C3.7251,5.7609 14.7651,0.7429 22.5931,0.7429 C31.2241,0.7429 36.6421,4.7569 39.6541,7.7679 L38.3491,9.1729 C33.8331,4.4559 28.3141,2.5489 22.5931,2.5489 C15.5671,2.5489 5.7321,7.2659 5.7321,18.1049 C5.7321,30.5489 19.2811,32.5559 29.7181,37.2729 C36.8431,40.3839 42.6631,45.2009 42.6631,54.7349 C42.6631,65.5729 34.0331,72.9999 22.7921,72.9999 C13.0581,72.9999 6.2341,69.1869 0.5141,60.9569 L2.1201,59.7529 Z" id="Fill-3"></path>
                        </g>
                        <g id="Group-8" transform="translate(49.000000, 0.000000)">
                            <path d="M40.7144,38.8789 L59.6814,59.8539 C64.6984,53.7319 67.7104,45.8029 67.7104,36.8709 C67.7104,17.7029 53.9604,2.5489 34.9934,2.5489 C16.0274,2.5489 2.2764,17.7029 2.2764,36.8709 C2.2764,56.0399 16.0274,71.1929 34.9934,71.1929 C44.4274,71.1929 52.6554,67.3799 58.4784,61.2579 L39.3084,40.0829 L40.7144,38.8789 Z M34.9934,0.7429 C54.8644,0.7429 69.7164,16.3989 69.7164,36.8709 C69.7164,46.4049 66.5054,54.9359 60.9854,61.2579 L70.7204,71.9959 L68.2124,71.9959 L59.7804,62.6629 C53.5604,69.0859 44.8274,72.9999 34.9934,72.9999 C15.1224,72.9999 0.2694,57.3439 0.2694,36.8709 C0.2694,16.3989 15.1224,0.7429 34.9934,0.7429 L34.9934,0.7429 Z" id="Fill-6"></path>
                        </g>
                        <polygon id="Fill-9" points="131.2905 23.6963 134.0815 22.0043 134.8015 22.0043 134.8015 34.6073 133.7215 34.6073 133.7215 23.4253 131.2905 24.7763"></polygon>
                        <polygon id="Fill-11" points="152.3706 22.0039 155.7376 32.4289 159.1226 22.0039 160.2216 22.0039 156.0796 34.6079 155.3586 34.6079 152.0106 24.2539 148.6616 34.6079 147.9406 34.6079 143.8006 22.0039 144.8976 22.0039 148.2826 32.4289 151.6496 22.0039"></polygon>
                        <polygon id="Fill-13" points="162.952 34.608 164.033 34.608 164.033 22.004 162.952 22.004"></polygon>
                        <polygon id="Fill-15" points="169.2524 33.5811 175.1934 33.5811 175.1934 34.6071 168.1714 34.6071 168.1714 22.0041 169.2524 22.0041"></polygon>
                        <polygon id="Fill-16" points="179.6919 33.5811 185.6329 33.5811 185.6329 34.6071 178.6109 34.6071 178.6109 22.0041 179.6919 22.0041"></polygon>
                        <path d="M194.1294,33.7607 C197.1714,33.7607 199.3154,31.2937 199.3154,28.3057 C199.3154,25.3167 197.1714,22.8497 194.1294,22.8497 C191.0864,22.8497 188.9434,25.3167 188.9434,28.3057 C188.9434,31.2937 191.0864,33.7607 194.1294,33.7607 M194.1294,21.8227 C197.6934,21.8227 200.3954,24.6317 200.3954,28.3057 C200.3954,31.9787 197.6934,34.7867 194.1294,34.7867 C190.5644,34.7867 187.8624,31.9787 187.8624,28.3057 C187.8624,24.6317 190.5644,21.8227 194.1294,21.8227" id="Fill-17"></path>
                        <path d="M204.3882,32.501 C203.9202,31.763 203.6502,30.898 203.6502,29.565 L203.6502,22.004 L204.7302,22.004 L204.7302,29.62 C204.7302,30.718 204.9282,31.384 205.2882,31.96 C205.9912,33.059 207.2512,33.761 208.6912,33.761 C210.1322,33.761 211.3922,33.059 212.0942,31.96 C212.4542,31.384 212.6532,30.718 212.6532,29.62 L212.6532,22.004 L213.7332,22.004 L213.7332,29.565 C213.7332,30.898 213.4622,31.763 212.9942,32.501 C212.1132,33.887 210.5102,34.787 208.6912,34.787 C206.8722,34.787 205.2702,33.887 204.3882,32.501" id="Fill-18"></path>
                        <path d="M227.6831,28.1611 L223.5411,28.1611 L223.5411,27.1351 L228.7631,27.1351 L228.7631,32.4461 C227.6831,33.8331 225.8461,34.7871 223.9021,34.7871 C220.1381,34.7871 217.4191,32.0321 217.4191,28.3061 C217.4191,24.6681 220.1031,21.8231 223.7401,21.8231 C225.5401,21.8231 227.2141,22.5441 228.3131,23.7501 L227.5751,24.4881 C226.6931,23.5151 225.3061,22.8491 223.7401,22.8491 C220.7141,22.8491 218.5001,25.2801 218.5001,28.3061 C218.5001,31.3661 220.7141,33.7611 223.8471,33.7611 C225.3781,33.7611 226.7641,33.1311 227.6831,32.1771 L227.6831,28.1611 Z" id="Fill-19"></path>
                        <polygon id="Fill-20" points="242.5327 28.1611 234.4297 28.1611 234.4297 34.6071 233.3487 34.6071 233.3487 22.0041 234.4297 22.0041 234.4297 27.1351 242.5327 27.1351 242.5327 22.0041 243.6127 22.0041 243.6127 34.6071 242.5327 34.6071"></polygon>
                        <path d="M249.1899,28.1611 L249.1899,33.5811 L252.5919,33.5811 C253.6909,33.5811 254.3569,33.2931 254.8429,32.8241 C255.3469,32.3391 255.6709,31.6371 255.6709,30.8801 C255.6709,30.1241 255.3469,29.4221 254.8429,28.9351 C254.3569,28.4681 253.6909,28.1611 252.5919,28.1611 L249.1899,28.1611 Z M252.1779,27.1351 C253.1319,27.1351 253.6729,26.8651 254.0509,26.4691 C254.3929,26.1081 254.5909,25.6221 254.5909,25.0821 C254.5909,24.5421 254.3929,24.0561 254.0509,23.6961 C253.6729,23.3001 253.1319,23.0291 252.1779,23.0291 L249.1899,23.0291 L249.1899,27.1351 L252.1779,27.1351 Z M254.5379,27.4591 C255.8339,28.0541 256.7519,29.3671 256.7519,30.8801 C256.7519,31.9961 256.2659,32.9691 255.5089,33.6531 C254.8429,34.2471 253.9609,34.6071 252.6469,34.6071 L248.1089,34.6071 L248.1089,22.0041 L252.2329,22.0041 C253.4029,22.0041 254.1409,22.3271 254.6989,22.8491 C255.2939,23.4081 255.6709,24.2001 255.6709,25.0821 C255.6709,26.0371 255.2209,26.9011 254.5379,27.4591 L254.5379,27.4591 Z" id="Fill-21"></path>
                        <polygon id="Fill-22" points="263.5005 28.6836 263.5005 34.6076 262.4195 34.6076 262.4195 28.6836 258.0985 22.0036 259.3225 22.0036 262.9605 27.6386 266.5975 22.0036 267.8215 22.0036"></polygon>
                        <path d="M274.6411,31.96 C275.3781,32.915 276.3701,33.761 278.0261,33.761 C279.2861,33.761 280.6191,32.86 280.6191,31.402 C280.6191,29.115 277.9171,28.863 276.0811,27.73 C275.1451,27.153 274.3701,26.415 274.3701,25.137 C274.3701,23.174 275.9371,21.823 277.9541,21.823 C279.5741,21.823 280.6001,22.58 281.1761,23.084 L280.4931,23.876 C279.7541,23.228 279.0341,22.85 277.9901,22.85 C276.5851,22.85 275.4511,23.714 275.4511,25.082 C275.4511,26.991 277.9901,27.243 279.7901,28.359 C280.8341,29.008 281.6991,29.943 281.6991,31.402 C281.6991,33.4 280.0781,34.787 278.0261,34.787 C276.3511,34.787 274.9291,34.085 273.8481,32.663 L274.6411,31.96 Z" id="Fill-23"></path>
                        <path d="M292.2642,28.3057 L295.4332,31.7807 C296.1542,30.8437 296.5682,29.6197 296.5682,28.3057 C296.5682,25.3167 294.4252,22.8497 291.3822,22.8497 C288.3392,22.8497 286.1972,25.3167 286.1972,28.3057 C286.1972,31.2937 288.3392,33.7607 291.3822,33.7607 C292.7142,33.7607 293.8672,33.2927 294.7482,32.5187 L291.5262,28.9527 L292.2642,28.3057 Z M291.3822,21.8237 C294.9472,21.8237 297.6482,24.6317 297.6482,28.3057 C297.6482,29.9617 297.0892,31.4557 296.1542,32.5907 L298.0082,34.6077 L296.6392,34.6077 L295.4512,33.2927 C294.3702,34.2297 292.9662,34.7867 291.3822,34.7867 C287.8172,34.7867 285.1162,31.9787 285.1162,28.3057 C285.1162,24.6317 287.8172,21.8237 291.3822,21.8237 L291.3822,21.8237 Z" id="Fill-24"></path>
                        <path d="M301.9829,32.501 C301.5149,31.763 301.2449,30.898 301.2449,29.565 L301.2449,22.004 L302.3249,22.004 L302.3249,29.62 C302.3249,30.718 302.5229,31.384 302.8829,31.96 C303.5859,33.059 304.8449,33.761 306.2869,33.761 C307.7259,33.761 308.9869,33.059 309.6889,31.96 C310.0489,31.384 310.2479,30.718 310.2479,29.62 L310.2479,22.004 L311.3279,22.004 L311.3279,29.565 C311.3279,30.898 311.0569,31.763 310.5889,32.501 C309.7079,33.887 308.1049,34.787 306.2869,34.787 C304.4669,34.787 302.8649,33.887 301.9829,32.501" id="Fill-25"></path>
                        <path d="M316.9224,29.7822 L322.1614,29.7822 L319.5514,23.6962 L316.9224,29.7822 Z M319.9114,22.0042 L325.3494,34.6072 L324.2694,34.6072 L322.6114,30.8072 L316.4904,30.8072 L314.8334,34.6072 L313.7534,34.6072 L319.1914,22.0042 L319.9114,22.0042 Z" id="Fill-26"></path>
                        <path d="M332.2056,27.1348 C333.1046,27.1348 333.5916,26.9368 333.9516,26.5948 C334.3656,26.2168 334.6176,25.6768 334.6176,25.0818 C334.6176,24.4888 334.3656,23.9478 333.9516,23.5708 C333.5916,23.2278 333.1046,23.0298 332.2056,23.0298 L329.0366,23.0298 L329.0366,27.1348 L332.2056,27.1348 Z M336.0216,34.6078 L331.1606,28.1608 L329.0366,28.1608 L329.0366,34.6078 L327.9556,34.6078 L327.9556,22.0038 L332.2596,22.0038 C333.4116,22.0038 334.1496,22.3098 334.7076,22.8138 C335.3196,23.3718 335.6986,24.1818 335.6986,25.0818 C335.6986,25.9828 335.3196,26.7928 334.7076,27.3508 C334.1856,27.8368 333.5016,28.1248 332.4576,28.1608 L337.3186,34.6078 L336.0216,34.6078 Z" id="Fill-27"></path>
                        <polygon id="Fill-28" points="341.3657 23.0293 341.3657 27.1343 345.8667 27.1343 345.8667 28.1613 341.3657 28.1613 341.3657 33.5813 347.3067 33.5813 347.3067 34.6073 340.2847 34.6073 340.2847 22.0043 347.1277 22.0043 347.1277 23.0293"></polygon>
                        <path d="M133.0015,45.7109 L133.0015,51.1309 L136.4035,51.1309 C137.5025,51.1309 138.1685,50.8429 138.6545,50.3739 C139.1585,49.8889 139.4825,49.1869 139.4825,48.4299 C139.4825,47.6739 139.1585,46.9719 138.6545,46.4849 C138.1685,46.0179 137.5025,45.7109 136.4035,45.7109 L133.0015,45.7109 Z M135.9895,44.6849 C136.9435,44.6849 137.4845,44.4149 137.8625,44.0189 C138.2045,43.6579 138.4025,43.1719 138.4025,42.6319 C138.4025,42.0919 138.2045,41.6059 137.8625,41.2459 C137.4845,40.8499 136.9435,40.5789 135.9895,40.5789 L133.0015,40.5789 L133.0015,44.6849 L135.9895,44.6849 Z M138.3495,45.0089 C139.6455,45.6039 140.5635,46.9169 140.5635,48.4299 C140.5635,49.5459 140.0775,50.5189 139.3205,51.2029 C138.6545,51.7969 137.7725,52.1569 136.4585,52.1569 L131.9205,52.1569 L131.9205,39.5539 L136.0445,39.5539 C137.2145,39.5539 137.9525,39.8769 138.5115,40.3989 C139.1055,40.9579 139.4825,41.7499 139.4825,42.6319 C139.4825,43.5869 139.0325,44.4509 138.3495,45.0089 L138.3495,45.0089 Z" id="Fill-29"></path>
                        <path d="M148.5005,44.6846 C149.3995,44.6846 149.8865,44.4866 150.2465,44.1446 C150.6605,43.7666 150.9125,43.2266 150.9125,42.6316 C150.9125,42.0386 150.6605,41.4976 150.2465,41.1206 C149.8865,40.7776 149.3995,40.5796 148.5005,40.5796 L145.3315,40.5796 L145.3315,44.6846 L148.5005,44.6846 Z M152.3165,52.1576 L147.4555,45.7106 L145.3315,45.7106 L145.3315,52.1576 L144.2505,52.1576 L144.2505,39.5536 L148.5545,39.5536 C149.7065,39.5536 150.4445,39.8596 151.0025,40.3636 C151.6145,40.9216 151.9935,41.7316 151.9935,42.6316 C151.9935,43.5326 151.6145,44.3426 151.0025,44.9006 C150.4805,45.3866 149.7965,45.6746 148.7525,45.7106 L153.6135,52.1576 L152.3165,52.1576 Z" id="Fill-30"></path>
                        <path d="M162.0356,51.3105 C165.0776,51.3105 167.2216,48.8435 167.2216,45.8555 C167.2216,42.8665 165.0776,40.3995 162.0356,40.3995 C158.9926,40.3995 156.8496,42.8665 156.8496,45.8555 C156.8496,48.8435 158.9926,51.3105 162.0356,51.3105 M162.0356,39.3725 C165.5996,39.3725 168.3016,42.1815 168.3016,45.8555 C168.3016,49.5285 165.5996,52.3365 162.0356,52.3365 C158.4706,52.3365 155.7686,49.5285 155.7686,45.8555 C155.7686,42.1815 158.4706,39.3725 162.0356,39.3725" id="Fill-31"></path>
                        <path d="M177.8042,51.3105 C180.8472,51.3105 182.9902,48.8435 182.9902,45.8555 C182.9902,42.8665 180.8472,40.3995 177.8042,40.3995 C174.7612,40.3995 172.6182,42.8665 172.6182,45.8555 C172.6182,48.8435 174.7612,51.3105 177.8042,51.3105 M177.8042,39.3725 C181.3682,39.3725 184.0702,42.1815 184.0702,45.8555 C184.0702,49.5285 181.3682,52.3365 177.8042,52.3365 C174.2392,52.3365 171.5372,49.5285 171.5372,45.8555 C171.5372,42.1815 174.2392,39.3725 177.8042,39.3725" id="Fill-32"></path>
                        <polygon id="Fill-33" points="195.1382 52.1572 188.6572 45.7832 188.6572 52.1572 187.5762 52.1572 187.5762 39.5532 188.6572 39.5532 188.6572 45.2072 194.5982 39.5532 196.0382 39.5532 189.8092 45.5122 196.5782 52.1572"></polygon>
                        <polygon id="Fill-34" points="200.896 51.1309 206.837 51.1309 206.837 52.1569 199.815 52.1569 199.815 39.5539 200.896 39.5539"></polygon>
                        <polygon id="Fill-35" points="212.5249 46.2334 212.5249 52.1574 211.4439 52.1574 211.4439 46.2334 207.1229 39.5534 208.3469 39.5534 211.9839 45.1884 215.6219 39.5534 216.8459 39.5534"></polygon>
                        <polygon id="Fill-36" points="219.7231 39.5537 220.4441 39.5537 228.9061 50.0507 228.9061 39.5537 229.9871 39.5537 229.9871 52.1577 229.2661 52.1577 220.8041 41.6597 220.8041 52.1577 219.7231 52.1577"></polygon>
                    </g>
                </g>
            </g>
        </g>
    </g>
</svg>