<?xml version="1.0" standalone="no"?>
<!DOCTYPE svg PUBLIC "-//W3C//DTD SVG 1.1//EN" "http://www.w3.org/Graphics/SVG/1.1/DTD/svg11.dtd" >
<svg xmlns="http://www.w3.org/2000/svg" xmlns:xlink="http://www.w3.org/1999/xlink" version="1.1">
<metadata>
Created by FontForge 20170910 at Sat Apr  9 19:41:32 2011
 By Jimmy Wärting
Copyright (c) 2011 by Aurele Sack. www.lineto.com. All rights reserved.
</metadata>
<defs>
<font id="BrownStd-ReclinThin" horiz-adv-x="570" >
  <font-face 
    font-family="BrownStd Thin Reclining"
    font-weight="250"
    font-style="italic"
    font-stretch="normal"
    units-per-em="1000"
    panose-1="0 1 4 0 1 1 1 1 1 1"
    ascent="750"
    descent="-250"
    x-height="430"
    cap-height="700"
    bbox="-106 -250 1314 900"
    underline-thickness="80"
    underline-position="-100"
    slope="10"
    stemv="20"
    unicode-range="U+000D-FB04"
  />
<missing-glyph horiz-adv-x="500" 
d="M75 0v700h350v-700h-350zM95 18h310v664h-310v-664z" />
    <glyph glyph-name="f_f_l" unicode="ffl" horiz-adv-x="889" 
d="M818 0l-73 412h-282l73 -412h-19l-73 412h-302l73 -412h-19l-73 412h-140l-3 18h140l-13 76c-7 38 -12 70 -12 92c0 75 58 122 134 122c20 0 37 -2 51 -6l-5 -17c-14 4 -28 5 -46 5c-69 0 -115 -45 -115 -104c0 -23 5 -50 12 -92l13 -76h302l-13 76c-7 38 -12 70 -12 92
c0 75 58 122 134 122c20 0 37 -2 51 -6l-5 -17c-14 4 -28 5 -46 5c-69 0 -115 -45 -115 -104c0 -23 5 -50 12 -92l13 -76h282l-49 280h19l125 -710h-19z" />
    <glyph glyph-name="f_f" unicode="ff" horiz-adv-x="688" 
d="M601 714l-5 -17c-14 4 -28 5 -46 5c-69 0 -115 -45 -115 -104c0 -23 5 -50 12 -92l13 -76h175l3 -18h-175l73 -412h-19l-73 412h-302l73 -412h-19l-73 412h-140l-3 18h140l-13 76c-7 38 -12 70 -12 92c0 75 58 122 134 122c20 0 37 -2 51 -6l-5 -17c-14 4 -28 5 -46 5
c-69 0 -115 -45 -115 -104c0 -23 5 -50 12 -92l13 -76h302l-13 76c-7 38 -12 70 -12 92c0 75 58 122 134 122c20 0 37 -2 51 -6z" />
    <glyph glyph-name="f_f_i" unicode="ffi" horiz-adv-x="889" 
d="M601 714l-5 -17c-14 4 -28 5 -46 5c-69 0 -115 -45 -115 -104c0 -23 5 -50 12 -92l13 -76h301l76 -430h-19l-73 412h-282l73 -412h-19l-73 412h-302l73 -412h-19l-73 412h-140l-3 18h140l-13 76c-7 38 -12 70 -12 92c0 75 58 122 134 122c20 0 37 -2 51 -6l-5 -17
c-14 4 -28 5 -46 5c-69 0 -115 -45 -115 -104c0 -23 5 -50 12 -92l13 -76h302l-13 76c-7 38 -12 70 -12 92c0 75 58 122 134 122c20 0 37 -2 51 -6zM754 590c0 -17 -13 -30 -30 -30s-30 13 -30 30s13 30 30 30s30 -13 30 -30z" />
    <glyph glyph-name="f_i" unicode="fi" horiz-adv-x="568" 
d="M280 714l-5 -17c-14 4 -28 5 -46 5c-69 0 -115 -45 -115 -104c0 -23 5 -50 12 -92l13 -76h301l76 -430h-19l-73 412h-282l73 -412h-19l-73 412h-140l-3 18h140l-13 76c-7 38 -12 70 -12 92c0 75 58 122 134 122c20 0 37 -2 51 -6zM433 590c0 -17 -13 -30 -30 -30
s-30 13 -30 30s13 30 30 30s30 -13 30 -30z" />
    <glyph glyph-name="f_l" unicode="fl" horiz-adv-x="568" 
d="M497 0l-73 412h-282l73 -412h-19l-73 412h-140l-3 18h140l-13 76c-7 38 -12 70 -12 92c0 75 58 122 134 122c20 0 37 -2 51 -6l-5 -17c-14 4 -28 5 -46 5c-69 0 -115 -45 -115 -104c0 -23 5 -50 12 -92l13 -76h282l-49 280h19l125 -710h-19z" />
    <glyph glyph-name=".notdef" horiz-adv-x="500" 
d="M75 0v700h350v-700h-350zM95 18h310v664h-310v-664z" />
    <glyph glyph-name=".null" horiz-adv-x="0" 
 />
    <glyph glyph-name=".null" horiz-adv-x="0" 
 />
    <glyph glyph-name="uni000D" unicode="&#xd;" horiz-adv-x="250" 
 />
    <glyph glyph-name="space" unicode=" " horiz-adv-x="250" 
 />
    <glyph glyph-name="exclam" unicode="!" horiz-adv-x="240" 
d="M134 200h-19l-88 500h19zM190 25c0 -19 -16 -35 -35 -35s-35 16 -35 35s16 35 35 35s35 -16 35 -35z" />
    <glyph glyph-name="quotedbl" unicode="&#x22;" horiz-adv-x="371" 
d="M241 465h-19l-42 235h19zM71 465h-19l-42 235h19z" />
    <glyph glyph-name="numbersign" unicode="#" horiz-adv-x="595" 
d="M138 240h-107l-3 18h115l50 184h-107l-3 18h115l65 240h19l-65 -240h191l65 240h19l-65 -240h107l3 -18h-115l-50 -184h107l3 -18h-115l-64 -240h-19l64 240h-191l-64 -240h-19zM212 442l-50 -184h191l50 184h-191z" />
    <glyph glyph-name="dollar" unicode="$" horiz-adv-x="537" 
d="M66 90l14 13c51 -60 127 -95 208 -95c90 0 179 58 179 160s-75 156 -166 185c-125 40 -271 62 -271 194c0 83 64 147 145 160l-18 108h19l18 -106c4 1 9 1 14 1c61 0 112 -18 165 -63l-13 -14c-41 37 -95 59 -152 59c-80 0 -158 -55 -158 -145c0 -118 138 -139 258 -177
c96 -30 179 -90 179 -204c0 -94 -74 -161 -166 -174l19 -107h-19l-19 106c-7 -1 -12 -1 -14 -1c-82 0 -159 33 -222 100z" />
    <glyph glyph-name="percent" unicode="%" horiz-adv-x="786" 
d="M503 700h21l-284 -700h-22zM36 557c0 -91 65 -159 152 -159c76 0 137 60 137 135c0 91 -65 159 -152 159c-76 0 -137 -60 -137 -135zM345 533c0 -85 -69 -153 -157 -153c-98 0 -172 74 -172 177c0 85 69 153 157 153c98 0 172 -74 172 -177zM428 167
c0 -91 65 -159 152 -159c76 0 137 60 137 135c0 91 -65 159 -152 159c-76 0 -137 -60 -137 -135zM737 143c0 -85 -69 -153 -157 -153c-98 0 -172 74 -172 177c0 85 69 153 157 153c98 0 172 -74 172 -177z" />
    <glyph glyph-name="ampersand" unicode="&#x26;" horiz-adv-x="657" 
d="M327 571c0 -63 -49 -121 -114 -165l331 -265c17 35 27 75 27 117c0 89 -48 165 -48 165l18 9s50 -81 50 -174c0 -46 -11 -91 -32 -130l160 -128h-33l-137 110c-46 -71 -125 -120 -229 -120c-140 0 -257 93 -257 224c0 80 46 147 116 193c-75 60 -126 104 -126 176
c0 78 64 127 132 127c87 0 142 -66 142 -139zM320 8c94 0 170 46 213 115l-338 272c-59 -37 -112 -99 -112 -181c0 -110 97 -206 237 -206zM73 583c0 -72 68 -122 125 -165c63 43 109 98 109 153c0 68 -52 121 -122 121c-67 0 -112 -52 -112 -109z" />
    <glyph glyph-name="quotesingle" unicode="'" horiz-adv-x="201" 
d="M71 465h-19l-42 235h19z" />
    <glyph glyph-name="parenleft" unicode="(" horiz-adv-x="415" 
d="M405 -197l-15 -13c-137 157 -230 345 -230 563c0 130 31 254 87 357l17 -10c-54 -101 -84 -221 -84 -347c0 -213 91 -397 225 -550z" />
    <glyph glyph-name="parenright" unicode=")" horiz-adv-x="415" 
d="M1 697l15 13c137 -157 230 -345 230 -563c0 -130 -31 -254 -87 -357l-17 10c54 101 84 221 84 347c0 213 -91 397 -225 550z" />
    <glyph glyph-name="asterisk" unicode="*" horiz-adv-x="490" 
d="M156 700h19l35 -196l176 61l6 -18l-170 -58l141 -161l-14 -12l-139 159l-91 -159l-16 9l90 159l-205 64l6 17l198 -62z" />
    <glyph glyph-name="plus" unicode="+" horiz-adv-x="523" 
d="M246 269l-34 191h18l34 -191h191l3 -18h-191l33 -191h-18l-33 191h-191l-3 18h191z" />
    <glyph glyph-name="comma" unicode="," horiz-adv-x="286" 
d="M129 -140l40 220h20l-40 -220h-20z" />
    <glyph glyph-name="hyphen" unicode="-" horiz-adv-x="410" 
d="M81 258h240l3 -18h-240z" />
    <glyph glyph-name="period" unicode="." horiz-adv-x="270" 
d="M125 25c0 19 16 35 35 35s35 -16 35 -35s-16 -35 -35 -35s-35 16 -35 35z" />
    <glyph glyph-name="slash" unicode="/" horiz-adv-x="236" 
d="M210 700h21l-205 -700h-21z" />
    <glyph glyph-name="zero" unicode="0" horiz-adv-x="590" 
d="M492 243c0 199 -77 449 -261 449c-120 0 -179 -92 -179 -235c0 -199 77 -449 261 -449c120 0 179 92 179 235zM512 243c0 -150 -64 -253 -199 -253c-199 0 -281 258 -281 467c0 150 64 253 199 253c199 0 281 -258 281 -467z" />
    <glyph glyph-name="one" unicode="1" horiz-adv-x="386" 
d="M-2 587l-3 19l149 94h9l123 -700h-19l-118 673z" />
    <glyph glyph-name="two" unicode="2" horiz-adv-x="518" 
d="M20 579l-17 7c30 76 108 124 187 124c108 0 199 -83 199 -202c0 -65 -26 -123 -65 -181l-208 -309h364l3 -18h-395l-2 10l219 324c41 60 64 113 64 174c0 101 -76 184 -179 184c-75 0 -142 -44 -170 -113z" />
    <glyph glyph-name="three" unicode="3" horiz-adv-x="540" 
d="M50 88l17 10c40 -55 106 -90 182 -90c112 0 196 85 196 194c0 123 -98 215 -218 215c-34 0 -60 -3 -96 -15l-2 10l188 270h-319l-3 18h349l2 -10l-182 -261c19 4 41 6 63 6c133 0 238 -100 238 -233c0 -119 -91 -212 -216 -212c-84 0 -156 39 -199 98z" />
    <glyph glyph-name="four" unicode="4" horiz-adv-x="566" 
d="M15 210l304 490h9l85 -482h120l3 -18h-120l35 -200h-19l-35 200h-380zM394 218l-78 441l-274 -441h352z" />
    <glyph glyph-name="five" unicode="5" horiz-adv-x="556" 
d="M80 83l14 12c39 -52 106 -87 173 -87c102 0 199 77 199 192c0 117 -100 212 -215 212c-60 0 -126 -27 -164 -67h-10v355h311l3 -18h-294v-304c39 31 95 52 154 52c128 0 235 -102 235 -230c0 -117 -95 -210 -220 -210c-74 0 -143 38 -186 93z" />
    <glyph glyph-name="six" unicode="6" horiz-adv-x="591" 
d="M96 326l173 374h22l-145 -314c35 26 82 42 135 42c127 0 235 -98 235 -229c0 -119 -94 -209 -220 -209s-226 98 -226 224c0 41 10 77 26 112zM126 343l-11 -23c-16 -34 -25 -67 -25 -107c0 -113 90 -205 206 -205c114 0 200 82 200 191c0 119 -97 211 -215 211
c-63 0 -118 -27 -155 -67z" />
    <glyph glyph-name="seven" unicode="7" horiz-adv-x="471" 
d="M374 700l2 -10l-213 -690h-21l210 682h-394l-3 18h419z" />
    <glyph glyph-name="eight" unicode="8" 
d="M407 534c0 -62 -37 -115 -94 -140c105 -17 184 -103 184 -213c0 -106 -86 -191 -205 -191c-124 0 -224 92 -224 216c0 81 51 149 128 177c-81 18 -141 84 -141 172c0 86 72 155 169 155c101 0 183 -74 183 -176zM273 379c-107 0 -185 -77 -185 -173
c0 -111 90 -198 204 -198c107 0 185 77 185 173c0 111 -90 198 -204 198zM387 534c0 90 -72 158 -163 158c-85 0 -149 -61 -149 -137c0 -90 72 -158 163 -158c85 0 149 61 149 137z" />
    <glyph glyph-name="nine" unicode="9" horiz-adv-x="571" 
d="M450 374l-173 -374h-22l145 314c-35 -26 -82 -42 -135 -42c-127 0 -235 98 -235 229c0 119 94 209 220 209s226 -98 226 -224c0 -41 -10 -77 -26 -112zM420 357l11 23c16 34 25 67 25 107c0 113 -90 205 -206 205c-114 0 -200 -82 -200 -191c0 -119 97 -211 215 -211
c63 0 118 27 155 67z" />
    <glyph glyph-name="colon" unicode=":" horiz-adv-x="270" 
d="M195 25c0 -19 -16 -35 -35 -35s-35 16 -35 35s16 35 35 35s35 -16 35 -35zM128 405c0 -19 -16 -35 -35 -35s-35 16 -35 35s16 35 35 35s35 -16 35 -35z" />
    <glyph glyph-name="semicolon" unicode=";" horiz-adv-x="286" 
d="M129 -140l40 220h20l-40 -220h-20zM128 405c0 -19 -16 -35 -35 -35s-35 16 -35 35s16 35 35 35s35 -16 35 -35z" />
    <glyph glyph-name="less" unicode="&#x3c;" horiz-adv-x="523" 
d="M416 437l3 -19l-339 -156l394 -158l4 -21l-430 172l-2 10z" />
    <glyph glyph-name="equal" unicode="=" horiz-adv-x="523" 
d="M473 162h-400l-3 18h400zM441 342h-400l-3 18h400z" />
    <glyph glyph-name="greater" unicode="&#x3e;" horiz-adv-x="523" 
d="M97 83l-3 19l339 156l-394 158l-4 21l430 -172l2 -10z" />
    <glyph glyph-name="question" unicode="?" horiz-adv-x="496" 
d="M298 25c0 -19 -16 -35 -35 -35s-35 16 -35 35s16 35 35 35s35 -16 35 -35zM12 564l-20 4c14 77 79 142 192 142c98 0 192 -64 192 -173c0 -136 -170 -164 -170 -257c0 -35 32 -63 44 -71l-12 -14c-11 7 -52 37 -52 85c0 104 170 130 170 257c0 93 -78 155 -172 155
c-88 0 -158 -47 -172 -128z" />
    <glyph glyph-name="at" unicode="@" horiz-adv-x="1026" 
d="M515 55c-115 0 -210 89 -210 204c0 105 79 186 188 186c57 0 106 -25 140 -59l-9 50h20l48 -273c9 -55 37 -90 89 -90c91 0 135 104 135 218c0 226 -192 381 -403 381c-228 0 -417 -187 -417 -422s189 -422 418 -422c90 0 174 30 241 82l11 -16
c-69 -53 -158 -84 -253 -84c-242 0 -437 197 -437 440s195 440 437 440c229 0 423 -170 423 -399c0 -116 -45 -236 -155 -236c-50 0 -86 27 -103 82c-34 -44 -87 -82 -163 -82zM672 161l-33 195c-34 41 -88 71 -146 71c-97 0 -168 -73 -168 -168c0 -106 88 -186 190 -186
c75 0 129 44 157 88z" />
    <glyph glyph-name="A" unicode="A" horiz-adv-x="660" 
d="M141 239l-61 -239h-20l177 700h9l424 -700h-23l-145 239h-361zM491 257l-243 402l-102 -402h345z" />
    <glyph glyph-name="B" unicode="B" horiz-adv-x="620" 
d="M387 0h-247l-123 700h205c63 0 91 -8 113 -19c56 -28 97 -85 97 -151c0 -58 -28 -104 -74 -132c40 -3 69 -10 91 -19c73 -31 126 -109 126 -193c0 -109 -82 -186 -188 -186zM156 18h228c97 0 171 68 171 168c0 74 -48 149 -116 177c-26 11 -61 19 -127 19h-220zM361 423
c32 24 51 62 51 107c0 56 -36 111 -86 135c-20 10 -44 17 -103 17h-184l50 -282h182c44 0 69 8 90 23z" />
    <glyph glyph-name="C" unicode="C" horiz-adv-x="741" 
d="M685 139l16 -12c-64 -86 -170 -137 -294 -137c-214 0 -375 178 -375 379c0 195 146 341 343 341c93 0 166 -31 233 -88l-12 -14c-64 55 -134 84 -221 84c-186 0 -323 -139 -323 -324c0 -191 152 -360 355 -360c114 0 218 49 278 131z" />
    <glyph glyph-name="D" unicode="D" horiz-adv-x="736" 
d="M256 700c128 0 229 -39 298 -110c68 -69 110 -162 110 -260c0 -90 -27 -175 -87 -236c-61 -61 -145 -94 -258 -94h-179l-123 700h239zM256 682h-217l117 -664h161c107 0 187 30 245 88c57 58 82 139 82 224c0 92 -40 181 -103 246c-66 68 -163 106 -285 106z" />
    <glyph glyph-name="E" unicode="E" horiz-adv-x="513" 
d="M140 0l-123 700h360l3 -18h-341l49 -282h272l3 -18h-272l65 -364h351l3 -18h-370z" />
    <glyph glyph-name="F" unicode="F" horiz-adv-x="490" 
d="M91 382l68 -382h-19l-123 700h360l3 -18h-341l49 -282h272l3 -18h-272z" />
    <glyph glyph-name="G" unicode="G" horiz-adv-x="766" 
d="M373 400h280l48 -273c-64 -86 -170 -137 -294 -137c-214 0 -375 178 -375 379c0 195 146 341 343 341c93 0 166 -31 233 -88l-12 -14c-64 55 -134 84 -221 84c-186 0 -323 -139 -323 -324c0 -191 152 -360 355 -360c114 0 212 45 274 126l-44 248h-261z" />
    <glyph glyph-name="H" unicode="H" horiz-adv-x="741" 
d="M140 0l-123 700h19l53 -300h506l-53 300h19l123 -700h-19l-67 382h-506l67 -382h-19z" />
    <glyph glyph-name="I" unicode="I" horiz-adv-x="216" 
d="M140 0l-123 700h19l123 -700h-19z" />
    <glyph glyph-name="J" unicode="J" horiz-adv-x="477" 
d="M291 700l87 -494c6 -32 9 -58 9 -74c0 -47 -19 -85 -52 -110c-27 -20 -64 -32 -102 -32c-87 0 -141 46 -173 104l18 9c30 -56 82 -95 155 -95c33 0 66 10 91 29c27 21 43 55 43 95c0 25 -3 45 -7 70l-88 498h19z" />
    <glyph glyph-name="K" unicode="K" horiz-adv-x="610" 
d="M578 0l-486 382l67 -382h-19l-123 700h19l54 -306l347 306h30l-352 -310l495 -390h-32z" />
    <glyph glyph-name="L" unicode="L" horiz-adv-x="500" 
d="M140 0l-123 700h19l120 -682h351l3 -18h-370z" />
    <glyph glyph-name="M" unicode="M" horiz-adv-x="826" 
d="M636 646l-205 -486h-9l-376 480l113 -640h-19l-123 700h9l397 -513l214 513h9l123 -700h-19z" />
    <glyph glyph-name="N" unicode="N" horiz-adv-x="746" 
d="M662 47l-115 653h19l123 -700h-9l-635 653l114 -653h-19l-123 700h9z" />
    <glyph glyph-name="O" unicode="O" horiz-adv-x="812" 
d="M406 8c79 0 165 31 225 92c59 59 89 145 89 230c0 94 -42 189 -108 257c-68 69 -158 105 -246 105c-79 0 -165 -31 -225 -92c-59 -59 -89 -145 -89 -230c0 -94 42 -189 108 -257c68 -69 158 -105 246 -105zM406 -10c-94 0 -189 38 -261 111c-70 72 -113 170 -113 269
c0 93 33 180 95 243c63 63 147 97 239 97c94 0 189 -38 261 -111c70 -72 113 -170 113 -269c0 -93 -33 -180 -95 -243c-63 -63 -147 -97 -239 -97z" />
    <glyph glyph-name="P" unicode="P" horiz-adv-x="585" 
d="M140 0l-123 700h256c57 0 86 -8 110 -20c59 -30 102 -90 102 -161c0 -54 -22 -99 -61 -128c-25 -19 -60 -29 -110 -29h-219l64 -362h-19zM92 380h222c47 0 74 9 97 25c35 25 54 66 54 114c0 62 -38 119 -92 145c-21 10 -47 18 -100 18h-234z" />
    <glyph glyph-name="Q" unicode="Q" horiz-adv-x="812" 
d="M406 -10c-94 0 -189 38 -261 111c-70 72 -113 170 -113 269c0 93 33 180 95 243c63 63 147 97 239 97c94 0 189 -38 261 -111c70 -72 113 -170 113 -269c0 -78 -23 -152 -67 -211l129 -119h-30l-112 103c-64 -73 -154 -113 -254 -113zM646 116l-215 199l14 15l213 -198
c41 56 62 127 62 198c0 94 -42 189 -108 257c-68 69 -158 105 -246 105c-79 0 -165 -31 -225 -92c-59 -59 -89 -145 -89 -230c0 -94 42 -189 108 -257c68 -69 158 -105 246 -105c86 0 180 37 240 108z" />
    <glyph glyph-name="R" unicode="R" horiz-adv-x="630" 
d="M88 400h203c44 0 69 8 90 23c32 24 51 62 51 107c0 56 -36 111 -86 135c-20 10 -44 17 -103 17h-204zM290 382h-14l354 -382h-26l-355 382h-158l68 -382h-19l-123 700h225c63 0 91 -8 113 -19c56 -28 97 -85 97 -151c0 -51 -21 -93 -58 -121c-23 -18 -56 -27 -104 -27z
" />
    <glyph glyph-name="S" unicode="S" horiz-adv-x="542" 
d="M66 90l14 13c51 -60 127 -95 208 -95c90 0 179 58 179 160s-75 156 -166 185c-125 40 -271 62 -271 194c0 94 82 163 178 163c61 0 112 -18 165 -63l-13 -14c-41 37 -95 59 -152 59c-80 0 -158 -55 -158 -145c0 -118 138 -139 258 -177c96 -30 179 -90 179 -204
c0 -105 -92 -176 -199 -176c-82 0 -159 33 -222 100z" />
    <glyph glyph-name="T" unicode="T" horiz-adv-x="489" 
d="M-60 682l-3 18h459l3 -18h-220l120 -682h-19l-120 682h-220z" />
    <glyph glyph-name="U" unicode="U" horiz-adv-x="727" 
d="M89 262l-77 438h19l77 -435c30 -169 125 -257 277 -257c126 0 227 86 227 207c0 23 -3 45 -7 70l-73 415h19l72 -412c5 -27 9 -50 9 -75c0 -129 -111 -223 -247 -223c-167 0 -265 96 -296 272z" />
    <glyph glyph-name="V" unicode="V" horiz-adv-x="622" 
d="M-58 700h23l383 -658l152 658h20l-162 -700h-9z" />
    <glyph glyph-name="W" unicode="W" horiz-adv-x="931" 
d="M389 645l-88 -645h-9l-350 700h22l324 -647l88 647h9l318 -648l96 648h20l-104 -700h-9z" />
    <glyph glyph-name="X" unicode="X" horiz-adv-x="604" 
d="M276 365l-182 -365h-22l190 382l-267 318h26l250 -298l148 298h23l-156 -315l323 -385h-26z" />
    <glyph glyph-name="Y" unicode="Y" horiz-adv-x="525" 
d="M313 0h-19l-60 344l-299 356h26l280 -333l162 333h22l-172 -355z" />
    <glyph glyph-name="Z" unicode="Z" horiz-adv-x="598" 
d="M88 0l-2 10l334 672h-422l-3 18h449l2 -10l-334 -672h472l4 -18h-500z" />
    <glyph glyph-name="bracketleft" unicode="[" horiz-adv-x="415" 
d="M247 -200l-159 900h204l3 -18h-185l153 -864h185l3 -18h-204z" />
    <glyph glyph-name="backslash" unicode="\" horiz-adv-x="482" 
d="M5 700h24l448 -700h-24z" />
    <glyph glyph-name="bracketright" unicode="]" horiz-adv-x="415" 
d="M160 700l159 -900h-204l-3 18h185l-153 864h-185l-3 18h204z" />
    <glyph glyph-name="asciicircum" unicode="^" horiz-adv-x="510" 
d="M178 700h9l237 -350h-23l-214 314l-102 -314h-21z" />
    <glyph glyph-name="underscore" unicode="_" horiz-adv-x="440" 
d="M67 0h390l4 -18h-390z" />
    <glyph glyph-name="grave" unicode="`" horiz-adv-x="259" 
d="M70 640h22l97 -130h-22z" />
    <glyph glyph-name="a" unicode="a" horiz-adv-x="566" 
d="M514 0h-19l-15 89c-36 -51 -101 -99 -187 -99c-136 0 -243 102 -243 236c0 121 91 214 216 214c68 0 128 -34 164 -73l-11 63h19zM266 422c-114 0 -196 -85 -196 -196c0 -124 100 -218 223 -218c88 0 149 51 182 102l-41 229c-39 48 -100 83 -168 83z" />
    <glyph glyph-name="b" unicode="b" horiz-adv-x="567" 
d="M10 710h19l63 -369c36 51 101 99 187 99c136 0 243 -102 243 -236c0 -121 -91 -214 -216 -214c-68 0 -128 34 -164 73l11 -63h-19zM306 8c114 0 196 85 196 196c0 124 -100 218 -223 218c-88 0 -149 -51 -182 -102l41 -229c39 -48 100 -83 168 -83z" />
    <glyph glyph-name="c" unicode="c" horiz-adv-x="515" 
d="M421 388l-12 -14c-33 28 -78 48 -132 48c-103 0 -207 -78 -207 -196c0 -117 85 -218 214 -218c70 0 137 33 181 90l15 -11c-46 -61 -117 -97 -196 -97c-142 0 -234 109 -234 236c0 121 105 214 227 214c55 0 106 -21 144 -52z" />
    <glyph glyph-name="d" unicode="d" horiz-adv-x="566" 
d="M514 0h-19l-15 89c-36 -51 -101 -99 -187 -99c-136 0 -243 102 -243 236c0 121 91 214 216 214c68 0 128 -34 164 -73l-60 343h19zM266 422c-114 0 -196 -85 -196 -196c0 -124 100 -218 223 -218c88 0 149 51 182 102l-41 229c-39 48 -100 83 -168 83z" />
    <glyph glyph-name="e" unicode="e" horiz-adv-x="508" 
d="M250 422c-98 0 -170 -76 -179 -176h370c-18 101 -93 176 -191 176zM448 75l13 -14c-37 -39 -94 -71 -173 -71c-130 0 -238 95 -238 236c0 120 85 214 200 214c116 0 202 -92 213 -212h-393c0 -132 98 -220 218 -220c71 0 125 30 160 67z" />
    <glyph glyph-name="f" unicode="f" horiz-adv-x="367" 
d="M280 714l-5 -17c-14 4 -28 5 -46 5c-69 0 -115 -45 -115 -104c0 -23 5 -50 12 -92l13 -76h175l3 -18h-175l73 -412h-19l-73 412h-140l-3 18h140l-13 76c-7 38 -12 70 -12 92c0 75 58 122 134 122c20 0 37 -2 51 -6z" />
    <glyph glyph-name="g" unicode="g" horiz-adv-x="566" 
d="M137 -169l13 12c35 -40 96 -75 180 -75c105 0 175 56 175 136c0 31 -1 45 -7 78l-18 107c-36 -51 -101 -99 -187 -99c-136 0 -243 102 -243 236c0 121 91 214 216 214c68 0 128 -34 164 -73l-11 63h19l79 -447c6 -36 8 -57 8 -79c0 -94 -84 -154 -195 -154
c-91 0 -156 39 -193 81zM266 422c-114 0 -196 -85 -196 -196c0 -124 100 -218 223 -218c88 0 149 51 182 102l-41 229c-39 48 -100 83 -168 83z" />
    <glyph glyph-name="h" unicode="h" horiz-adv-x="560" 
d="M518 0h-19l-42 237c-9 52 -24 86 -41 110c-32 45 -81 75 -143 75c-71 0 -137 -43 -173 -115l54 -307h-19l-125 710h19l66 -376c37 62 101 106 178 106c67 0 125 -32 161 -85c18 -26 32 -60 42 -118z" />
    <glyph glyph-name="i" unicode="i" horiz-adv-x="206" 
d="M71 590c0 -17 -13 -30 -30 -30s-30 13 -30 30s13 30 30 30s30 -13 30 -30zM59 430h19l76 -430h-19z" />
    <glyph glyph-name="j" unicode="j" horiz-adv-x="242" 
d="M51 -244l5 17c10 -3 26 -5 37 -5c69 0 99 44 99 99c0 20 -2 42 -6 63l-88 500h19l88 -499c4 -22 7 -43 7 -64c0 -58 -32 -117 -119 -117c-13 0 -30 2 -42 6zM110 590c0 -17 -13 -30 -30 -30s-30 13 -30 30s13 30 30 30s30 -13 30 -30z" />
    <glyph glyph-name="k" unicode="k" horiz-adv-x="481" 
d="M456 0l-343 229l41 -229h-19l-125 710h19l82 -470l245 190h33l-250 -194l352 -236h-35z" />
    <glyph glyph-name="l" unicode="l" horiz-adv-x="206" 
d="M135 0l-125 710h19l125 -710h-19z" />
    <glyph glyph-name="m" unicode="m" horiz-adv-x="910" 
d="M511 0h-19l-42 237c-9 52 -23 87 -40 111c-32 45 -78 74 -140 74c-65 0 -134 -43 -170 -115l54 -307h-19l-76 430h19l17 -96c37 62 104 106 175 106c67 0 122 -31 158 -84c6 -10 12 -21 18 -34c37 63 97 118 181 118c67 0 122 -31 158 -84c18 -26 31 -61 41 -119l42 -237
h-19l-42 237c-9 52 -23 87 -40 111c-32 45 -78 74 -140 74c-74 0 -137 -51 -173 -121c5 -18 10 -39 15 -64z" />
    <glyph glyph-name="n" unicode="n" horiz-adv-x="560" 
d="M518 0h-19l-42 237c-9 52 -24 86 -41 110c-32 45 -81 75 -143 75c-71 0 -137 -43 -173 -115l54 -307h-19l-76 430h19l17 -96c37 62 101 106 178 106c67 0 125 -32 161 -85c18 -26 32 -60 42 -118z" />
    <glyph glyph-name="o" unicode="o" horiz-adv-x="554" 
d="M291 8c113 0 198 86 198 196c0 122 -102 218 -221 218c-113 0 -198 -86 -198 -196c0 -122 102 -218 221 -218zM291 -10c-132 0 -241 104 -241 236c0 120 92 214 218 214c132 0 241 -104 241 -236c0 -120 -92 -214 -218 -214z" />
    <glyph glyph-name="p" unicode="p" horiz-adv-x="567" 
d="M58 430h19l15 -89c36 51 101 99 187 99c136 0 243 -102 243 -236c0 -121 -91 -214 -216 -214c-68 0 -128 34 -164 73l53 -303h-19zM306 8c114 0 196 85 196 196c0 124 -100 218 -223 218c-88 0 -149 -51 -182 -102l41 -229c39 -48 100 -83 168 -83z" />
    <glyph glyph-name="q" unicode="q" horiz-adv-x="566" 
d="M556 -240h-19l-57 329c-36 -51 -101 -99 -187 -99c-136 0 -243 102 -243 236c0 121 91 214 216 214c68 0 128 -34 164 -73l-11 63h19zM266 422c-114 0 -196 -85 -196 -196c0 -124 100 -218 223 -218c88 0 149 51 182 102l-41 229c-39 48 -100 83 -168 83z" />
    <glyph glyph-name="r" unicode="r" horiz-adv-x="304" 
d="M244 440l-1 -19c-70 -2 -121 -48 -143 -111l54 -310h-19l-76 430h19l16 -90c32 69 91 98 150 100z" />
    <glyph glyph-name="s" unicode="s" horiz-adv-x="431" 
d="M90 51l13 14c40 -42 90 -57 139 -57c63 0 114 36 114 95c0 159 -301 73 -301 232c0 62 57 105 131 105c49 0 89 -18 119 -42l-11 -15c-30 23 -66 39 -107 39c-57 0 -112 -31 -112 -87c0 -139 301 -53 301 -233c0 -60 -51 -112 -137 -112c-59 0 -113 22 -149 61z" />
    <glyph glyph-name="t" unicode="t" horiz-adv-x="419" 
d="M405 16l4 -18c-14 -4 -43 -8 -63 -8c-73 0 -118 37 -143 89c-10 22 -15 48 -23 92l-42 241h-140l-3 18h140l-24 130h19l24 -130h190l3 -18h-190l42 -241c8 -43 13 -69 23 -89c24 -45 60 -74 124 -74c18 0 43 3 59 8z" />
    <glyph glyph-name="u" unicode="u" horiz-adv-x="553" 
d="M49 430h19l42 -237c9 -52 23 -87 40 -111c32 -45 78 -74 140 -74c65 0 134 43 170 115l-54 307h19l76 -430h-19l-17 96c-37 -62 -104 -106 -175 -106c-67 0 -122 31 -158 84c-18 26 -31 61 -41 119z" />
    <glyph glyph-name="v" unicode="v" horiz-adv-x="474" 
d="M278 37l120 393h21l-132 -430h-9l-283 430h24z" />
    <glyph glyph-name="w" unicode="w" horiz-adv-x="728" 
d="M340 385l-81 -385h-9l-250 430h23l225 -387l80 387h9l220 -389l91 389h20l-101 -430h-9z" />
    <glyph glyph-name="x" unicode="x" horiz-adv-x="459" 
d="M232 221l-129 -221h-23l136 236l-176 194h26l161 -177l102 177h24l-111 -191l217 -239h-27z" />
    <glyph glyph-name="y" unicode="y" horiz-adv-x="475" 
d="M394 430h21l-198 -670h-22l86 289l-286 381h24l269 -357z" />
    <glyph glyph-name="z" unicode="z" horiz-adv-x="450" 
d="M100 18h346l4 -18h-375l-2 10l253 402h-303l-3 18h334l2 -10z" />
    <glyph glyph-name="braceleft" unicode="{" horiz-adv-x="415" 
d="M263 700l3 -18h-20c-89 0 -120 -44 -120 -101c0 -92 48 -177 48 -268c0 -36 -18 -55 -32 -61c35 -16 48 -41 57 -71c29 -98 22 -256 60 -311c25 -36 65 -52 135 -52h25l3 -18h-25c-78 0 -125 17 -152 58c-47 71 -32 235 -69 332c-13 34 -34 47 -67 50l-3 20
c33 5 49 22 49 53c0 92 -48 178 -48 269c0 66 41 118 136 118h20z" />
    <glyph glyph-name="bar" unicode="|" horiz-adv-x="150" 
d="M142 -200l-159 900h19l159 -900h-19z" />
    <glyph glyph-name="braceright" unicode="}" horiz-adv-x="415" 
d="M144 -200l-3 18h20c89 0 120 44 120 101c0 92 -48 177 -48 268c0 36 18 55 32 61c-35 16 -48 41 -57 71c-29 98 -22 256 -60 311c-25 36 -65 52 -135 52h-25l-3 18h25c78 0 125 -17 152 -58c47 -71 32 -235 69 -332c13 -34 34 -47 67 -50l3 -20c-33 -5 -49 -22 -49 -53
c0 -92 48 -178 48 -269c0 -66 -41 -118 -136 -118h-20z" />
    <glyph glyph-name="asciitilde" unicode="~" horiz-adv-x="469" 
d="M395 303l19 -5c-6 -62 -38 -90 -85 -90c-78 0 -131 88 -199 88c-44 0 -62 -30 -66 -77l-19 5c6 62 38 90 85 90c78 0 131 -88 199 -88c44 0 62 30 66 77z" />
    <glyph glyph-name="uni00A0" unicode="&#xa0;" horiz-adv-x="250" 
 />
    <glyph glyph-name="exclamdown" unicode="&#xa1;" horiz-adv-x="240" 
d="M110 260h19l88 -500h-19zM59 405c0 19 16 35 35 35s35 -16 35 -35s-16 -35 -35 -35s-35 16 -35 35z" />
    <glyph glyph-name="cent" unicode="&#xa2;" horiz-adv-x="515" 
d="M421 388l-12 -14c-33 28 -78 48 -132 48c-103 0 -207 -78 -207 -196c0 -117 85 -218 214 -218c70 0 137 33 181 90l15 -11c-38 -51 -94 -84 -157 -94l19 -108h-19l-19 106c-7 -1 -14 -1 -20 -1c-142 0 -234 109 -234 236c0 106 81 192 184 210l-18 109h19l19 -106
c7 0 15 1 23 1c55 0 106 -21 144 -52z" />
    <glyph glyph-name="sterling" unicode="&#xa3;" horiz-adv-x="477" 
d="M109 18h384l4 -18h-435l-2 10c67 33 109 108 109 178c0 66 -31 120 -63 175h-87l-4 18h80c-29 50 -55 101 -55 161c0 102 76 168 164 168c68 0 115 -34 150 -77l-16 -12c-17 21 -58 71 -134 71c-79 0 -144 -62 -144 -150c0 -60 28 -110 58 -161h132l4 -18h-125
c31 -53 60 -108 60 -175c0 -75 -40 -136 -80 -170z" />
    <glyph glyph-name="currency" unicode="&#xa4;" horiz-adv-x="500" 
d="M64 351c0 48 18 92 48 125l-72 72l13 13l72 -72c33 30 77 48 125 48s92 -18 125 -48l72 72l13 -13l-72 -72c30 -33 48 -77 48 -125s-18 -92 -48 -125l72 -72l-13 -13l-72 72c-33 -30 -77 -48 -125 -48s-92 18 -125 48l-72 -72l-13 13l72 72c-30 33 -48 77 -48 125z
M84 351c0 -92 74 -166 166 -166s166 74 166 166s-74 166 -166 166s-166 -74 -166 -166z" />
    <glyph glyph-name="yen" unicode="&#xa5;" horiz-adv-x="484" 
d="M247 279h219l3 -18h-219l45 -261h-19l-45 261h-222l-3 18h222l-12 65l-64 77h-171l-3 18h159l-220 261h26l280 -333l162 333h22l-126 -261h157l3 -18h-169l-37 -76z" />
    <glyph glyph-name="brokenbar" unicode="&#xa6;" horiz-adv-x="190" 
d="M93 190h19l69 -390h-19zM91 310h-19l-69 390h19z" />
    <glyph glyph-name="section" unicode="&#xa7;" horiz-adv-x="521" 
d="M442 219c0 130 -146 146 -266 183c-65 -21 -107 -72 -107 -141c0 -130 146 -146 266 -184c64 21 107 73 107 142zM471 -79c0 208 -422 102 -422 340c0 68 39 124 99 151c-72 26 -128 64 -128 147c0 94 85 151 179 151c58 0 111 -19 158 -62l-13 -13
c-38 35 -85 57 -145 57c-74 0 -159 -43 -159 -133c0 -208 422 -102 422 -340c0 -69 -39 -124 -99 -151c71 -26 128 -64 128 -147c0 -94 -85 -151 -179 -151c-58 0 -111 19 -158 62l13 13c38 -35 85 -57 145 -57c74 0 159 43 159 133z" />
    <glyph glyph-name="dieresis" unicode="&#xa8;" horiz-adv-x="340" 
d="M70 570c0 17 13 30 30 30s30 -13 30 -30s-13 -30 -30 -30s-30 13 -30 30zM210 570c0 17 13 30 30 30s30 -13 30 -30s-13 -30 -30 -30s-30 13 -30 30z" />
    <glyph glyph-name="copyright" unicode="&#xa9;" horiz-adv-x="840" 
d="M55 350c0 193 157 350 350 350s350 -157 350 -350s-157 -350 -350 -350s-350 157 -350 350zM533 221l12 -14c-32 -30 -79 -52 -132 -52c-112 0 -195 87 -195 197c0 112 84 198 191 198c52 0 93 -20 124 -50l-11 -13c-29 28 -65 45 -113 45c-96 0 -171 -79 -171 -180
c0 -99 75 -179 175 -179c49 0 90 20 120 48zM73 350c0 -183 149 -332 332 -332s332 149 332 332s-149 332 -332 332s-332 -149 -332 -332z" />
    <glyph glyph-name="ordfeminine" unicode="&#xaa;" horiz-adv-x="410" 
d="M314 420h-19l-8 51c-27 -34 -67 -61 -122 -61c-92 0 -165 68 -165 157c0 81 62 143 146 143c41 0 81 -19 106 -45l-6 35h19zM146 692c-72 0 -126 -55 -126 -125c0 -78 64 -139 145 -139c54 0 96 32 117 66l-24 141c-27 30 -63 57 -112 57z" />
    <glyph glyph-name="guillemotleft" unicode="&#xab;" horiz-adv-x="525" 
d="M285 50h-28l-178 175l-2 10l120 175h24l-121 -178zM495 50h-28l-178 175l-2 10l120 175h24l-121 -178z" />
    <glyph glyph-name="logicalnot" unicode="&#xac;" horiz-adv-x="523" 
d="M438 360l35 -198h-18l-32 180h-382l-3 18h400z" />
    <glyph glyph-name="uni00AD" unicode="&#xad;" horiz-adv-x="410" 
d="M81 258h240l3 -18h-240z" />
    <glyph glyph-name="registered" unicode="&#xae;" horiz-adv-x="840" 
d="M55 350c0 193 157 350 350 350s350 -157 350 -350s-157 -350 -350 -350s-350 157 -350 350zM73 350c0 -183 149 -332 332 -332s332 149 332 332s-149 332 -332 332s-332 -149 -332 -332zM416 526h-112v-148h112c38 0 57 6 70 18c15 14 24 34 24 56s-9 42 -24 56
c-13 12 -32 18 -70 18zM284 544h134c39 0 63 -7 79 -20c21 -17 33 -43 33 -72s-12 -55 -33 -72c-16 -13 -40 -20 -79 -20h-5l161 -199h-22l-161 199h-87v-199h-20v383z" />
    <glyph glyph-name="macron" unicode="&#xaf;" horiz-adv-x="380" 
d="M70 571h240v-18h-240v18z" />
    <glyph glyph-name="degree" unicode="&#xb0;" horiz-adv-x="390" 
d="M0 555c0 80 65 145 145 145s145 -65 145 -145s-65 -145 -145 -145s-145 65 -145 145zM20 555c0 -69 56 -125 125 -125s125 56 125 125s-56 125 -125 125s-125 -56 -125 -125z" />
    <glyph glyph-name="plusminus" unicode="&#xb1;" horiz-adv-x="523" 
d="M88 78h400l3 -18h-400zM212 460h18l29 -167h192l3 -18h-192l29 -167h-18l-29 167h-190l-3 18h190z" />
    <glyph glyph-name="twosuperior" unicode="&#xb2;" horiz-adv-x="268" 
d="M-24 636l-16 8c16 37 50 66 95 66c64 0 109 -52 109 -112c0 -31 -14 -61 -35 -91l-105 -149h185l4 -18h-214l-2 11l115 166c21 30 32 51 32 81c0 49 -39 94 -89 94c-38 0 -64 -22 -79 -56z" />
    <glyph glyph-name="threesuperior" unicode="&#xb3;" horiz-adv-x="285" 
d="M34 547l-2 11l90 124h-164l-3 18h192l2 -11l-85 -117c10 2 18 2 22 2c71 0 129 -57 129 -129c0 -67 -47 -115 -118 -115c-44 0 -85 20 -109 53l15 12c21 -28 55 -47 94 -47c59 0 98 42 98 97c0 61 -48 111 -113 111c-18 0 -40 -6 -48 -9z" />
    <glyph glyph-name="acute" unicode="&#xb4;" horiz-adv-x="259" 
d="M167 640h22l-97 -130h-22z" />
    <glyph glyph-name="mu" unicode="&#xb5;" horiz-adv-x="562" 
d="M58 430h19l42 -237c9 -52 23 -87 40 -111c33 -45 78 -74 140 -74c65 0 134 43 170 115l-54 307h19l76 -430h-19l-17 96c-37 -62 -104 -106 -175 -106c-64 0 -129 34 -161 91l58 -331h-19z" />
    <glyph glyph-name="paragraph" unicode="&#xb6;" horiz-adv-x="661" 
d="M193 700h327l3 -18h-101l156 -882h-19l-156 882h-211l156 -882h-19l-83 470c-139 0 -248 92 -248 231c0 74 38 138 95 171c28 16 63 28 100 28zM18 501c0 -126 97 -212 225 -213l-70 392c-90 -13 -155 -85 -155 -179z" />
    <glyph glyph-name="periodcentered" unicode="&#xb7;" horiz-adv-x="270" 
d="M95 215c0 19 16 35 35 35s35 -16 35 -35s-16 -35 -35 -35s-35 16 -35 35z" />
    <glyph glyph-name="cedilla" unicode="&#xb8;" horiz-adv-x="199" 
d="M70 -140l40 140h19l-40 -140h-19z" />
    <glyph glyph-name="onesuperior" unicode="&#xb9;" horiz-adv-x="202" 
d="M42 673l-78 -49l-4 19l88 57h10l64 -360h-21z" />
    <glyph glyph-name="ordmasculine" unicode="&#xba;" horiz-adv-x="410" 
d="M20 570c0 -77 57 -142 138 -142c68 0 121 53 121 122c0 77 -57 142 -138 142c-68 0 -121 -53 -121 -122zM299 550c0 -78 -61 -140 -141 -140c-92 0 -158 72 -158 160c0 78 61 140 141 140c92 0 158 -72 158 -160z" />
    <glyph glyph-name="guillemotright" unicode="&#xbb;" horiz-adv-x="525" 
d="M240 410h28l178 -175l2 -10l-120 -175h-24l121 178zM30 410h28l178 -175l2 -10l-120 -175h-24l121 178z" />
    <glyph glyph-name="onequarter" unicode="&#xbc;" horiz-adv-x="482" 
d="M342 700h21l-284 -700h-22zM42 673l-78 -49l-4 19l88 57h10l64 -360h-21zM416 0l-17 95h-188l-2 10l154 255h10l44 -247h72l3 -18h-72l17 -95h-21zM396 113l-37 204l-123 -204h160z" />
    <glyph glyph-name="onehalf" unicode="&#xbd;" horiz-adv-x="511" 
d="M342 700h21l-284 -700h-22zM42 673l-78 -49l-4 19l88 57h10l64 -360h-21zM279 296l-16 8c16 37 50 66 95 66c64 0 109 -52 109 -112c0 -31 -14 -61 -35 -91l-105 -149h185l4 -18h-214l-2 11l115 166c21 30 32 51 32 81c0 49 -39 94 -89 94c-38 0 -64 -22 -79 -56z" />
    <glyph glyph-name="threequarters" unicode="&#xbe;" horiz-adv-x="536" 
d="M34 547l-2 11l90 124h-164l-3 18h192l2 -11l-85 -117c10 2 18 2 22 2c71 0 129 -57 129 -129c0 -67 -47 -115 -118 -115c-44 0 -85 20 -109 53l15 12c21 -28 55 -47 94 -47c59 0 98 42 98 97c0 61 -48 111 -113 111c-18 0 -40 -6 -48 -9zM396 700h21l-284 -700h-22z
M470 0l-17 95h-188l-2 10l154 255h10l44 -247h72l3 -18h-72l17 -95h-21zM450 113l-37 204l-123 -204h160z" />
    <glyph glyph-name="questiondown" unicode="&#xbf;" horiz-adv-x="496" 
d="M208 435c0 19 16 35 35 35s35 -16 35 -35s-16 -35 -35 -35s-35 16 -35 35zM494 -104l20 -4c-14 -77 -79 -142 -192 -142c-98 0 -192 64 -192 173c0 136 170 164 170 257c0 35 -32 63 -44 71l12 14c11 -7 52 -37 52 -85c0 -104 -170 -130 -170 -257
c0 -93 78 -155 172 -155c88 0 158 47 172 128z" />
    <glyph glyph-name="Agrave" unicode="&#xc0;" horiz-adv-x="660" 
d="M123 870h22l97 -130h-22zM141 239l-61 -239h-20l177 700h9l424 -700h-23l-145 239h-361zM491 257l-243 402l-102 -402h345z" />
    <glyph glyph-name="Aacute" unicode="&#xc1;" horiz-adv-x="660" 
d="M321 870h22l-97 -130h-22zM141 239l-61 -239h-20l177 700h9l424 -700h-23l-145 239h-361zM491 257l-243 402l-102 -402h345z" />
    <glyph glyph-name="Acircumflex" unicode="&#xc2;" horiz-adv-x="660" 
d="M204 870h31l125 -130h-28l-113 118l-72 -118h-22zM141 239l-61 -239h-20l177 700h9l424 -700h-23l-145 239h-361zM491 257l-243 402l-102 -402h345z" />
    <glyph glyph-name="Atilde" unicode="&#xc3;" horiz-adv-x="660" 
d="M348 838l19 -3c-6 -46 -30 -72 -67 -72c-54 0 -99 59 -146 59c-34 0 -45 -32 -48 -57l-19 3c6 46 30 72 67 72c54 0 99 -59 146 -59c34 0 45 32 48 57zM141 239l-61 -239h-20l177 700h9l424 -700h-23l-145 239h-361zM491 257l-243 402l-102 -402h345z" />
    <glyph glyph-name="Adieresis" unicode="&#xc4;" horiz-adv-x="660" 
d="M130 800c0 17 13 30 30 30s30 -13 30 -30s-13 -30 -30 -30s-30 13 -30 30zM270 800c0 17 13 30 30 30s30 -13 30 -30s-13 -30 -30 -30s-30 13 -30 30zM141 239l-61 -239h-20l177 700h9l424 -700h-23l-145 239h-361zM491 257l-243 402l-102 -402h345z" />
    <glyph glyph-name="Aring" unicode="&#xc5;" horiz-adv-x="660" 
d="M146 820c0 44 36 80 80 80s80 -36 80 -80s-36 -80 -80 -80s-80 36 -80 80zM164 820c0 -34 28 -62 62 -62s62 28 62 62s-28 62 -62 62s-62 -28 -62 -62zM141 239l-61 -239h-20l177 700h9l424 -700h-23l-145 239h-361zM491 257l-243 402l-102 -402h345z" />
    <glyph glyph-name="AE" unicode="&#xc6;" horiz-adv-x="865" 
d="M171 239l-108 -239h-23l315 700h374l3 -18h-341l49 -282h272l3 -18h-272l65 -364h351l3 -18h-370l-43 239h-278zM371 687l-192 -430h267z" />
    <glyph glyph-name="Ccedilla" unicode="&#xc7;" horiz-adv-x="741" 
d="M375 -140l37 130h-5c-214 0 -375 178 -375 379c0 195 146 341 343 341c93 0 166 -31 233 -88l-12 -14c-64 55 -134 84 -221 84c-186 0 -323 -139 -323 -324c0 -191 152 -360 355 -360c114 0 218 49 278 131l16 -12c-60 -81 -156 -129 -270 -136l-37 -131h-19z" />
    <glyph glyph-name="Egrave" unicode="&#xc8;" horiz-adv-x="513" 
d="M140 0l-123 700h360l3 -18h-341l49 -282h272l3 -18h-272l65 -364h351l3 -18h-370zM114 870h22l97 -130h-22z" />
    <glyph glyph-name="Eacute" unicode="&#xc9;" horiz-adv-x="513" 
d="M140 0l-123 700h360l3 -18h-341l49 -282h272l3 -18h-272l65 -364h351l3 -18h-370zM259 870h22l-97 -130h-22z" />
    <glyph glyph-name="Ecircumflex" unicode="&#xca;" horiz-adv-x="513" 
d="M140 0l-123 700h360l3 -18h-341l49 -282h272l3 -18h-272l65 -364h351l3 -18h-370zM155 870h31l125 -130h-28l-113 118l-72 -118h-22z" />
    <glyph glyph-name="Edieresis" unicode="&#xcb;" horiz-adv-x="513" 
d="M140 0l-123 700h360l3 -18h-341l49 -282h272l3 -18h-272l65 -364h351l3 -18h-370zM91 800c0 17 13 30 30 30s30 -13 30 -30s-13 -30 -30 -30s-30 13 -30 30zM231 800c0 17 13 30 30 30s30 -13 30 -30s-13 -30 -30 -30s-30 13 -30 30z" />
    <glyph glyph-name="Igrave" unicode="&#xcc;" horiz-adv-x="216" 
d="M140 0l-123 700h19l123 -700h-19zM-92 870h22l97 -130h-22z" />
    <glyph glyph-name="Iacute" unicode="&#xcd;" horiz-adv-x="216" 
d="M140 0l-123 700h19l123 -700h-19zM106 870h22l-97 -130h-22z" />
    <glyph glyph-name="Icircumflex" unicode="&#xce;" horiz-adv-x="216" 
d="M140 0l-123 700h19l123 -700h-19zM-17 870h31l125 -130h-28l-113 118l-72 -118h-22z" />
    <glyph glyph-name="Idieresis" unicode="&#xcf;" horiz-adv-x="216" 
d="M140 0l-123 700h19l123 -700h-19zM-89 800c0 17 13 30 30 30s30 -13 30 -30s-13 -30 -30 -30s-30 13 -30 30zM51 800c0 17 13 30 30 30s30 -13 30 -30s-13 -30 -30 -30s-30 13 -30 30z" />
    <glyph glyph-name="Eth" unicode="&#xd0;" horiz-adv-x="736" 
d="M-31 400h100l-52 300h239c128 0 229 -39 298 -110c68 -69 110 -162 110 -260c0 -90 -27 -175 -87 -236c-61 -61 -145 -94 -258 -94h-179l-68 382h-100zM256 682h-217l50 -282h200l3 -18h-200l64 -364h161c107 0 187 30 245 88c57 58 82 139 82 224c0 92 -40 181 -103 246
c-66 68 -163 106 -285 106z" />
    <glyph glyph-name="Ntilde" unicode="&#xd1;" horiz-adv-x="746" 
d="M662 47l-115 653h19l123 -700h-9l-635 653l114 -653h-19l-123 700h9zM397 838l19 -3c-6 -46 -30 -72 -67 -72c-54 0 -99 59 -146 59c-34 0 -45 -32 -48 -57l-19 3c6 46 30 72 67 72c54 0 99 -59 146 -59c34 0 45 32 48 57z" />
    <glyph glyph-name="Ograve" unicode="&#xd2;" horiz-adv-x="812" 
d="M406 8c79 0 165 31 225 92c59 59 89 145 89 230c0 94 -42 189 -108 257c-68 69 -158 105 -246 105c-79 0 -165 -31 -225 -92c-59 -59 -89 -145 -89 -230c0 -94 42 -189 108 -257c68 -69 158 -105 246 -105zM406 -10c-94 0 -189 38 -261 111c-70 72 -113 170 -113 269
c0 93 33 180 95 243c63 63 147 97 239 97c94 0 189 -38 261 -111c70 -72 113 -170 113 -269c0 -93 -33 -180 -95 -243c-63 -63 -147 -97 -239 -97zM260 870h22l97 -130h-22z" />
    <glyph glyph-name="Oacute" unicode="&#xd3;" horiz-adv-x="812" 
d="M406 8c79 0 165 31 225 92c59 59 89 145 89 230c0 94 -42 189 -108 257c-68 69 -158 105 -246 105c-79 0 -165 -31 -225 -92c-59 -59 -89 -145 -89 -230c0 -94 42 -189 108 -257c68 -69 158 -105 246 -105zM406 -10c-94 0 -189 38 -261 111c-70 72 -113 170 -113 269
c0 93 33 180 95 243c63 63 147 97 239 97c94 0 189 -38 261 -111c70 -72 113 -170 113 -269c0 -93 -33 -180 -95 -243c-63 -63 -147 -97 -239 -97zM381 870h22l-97 -130h-22z" />
    <glyph glyph-name="Ocircumflex" unicode="&#xd4;" horiz-adv-x="812" 
d="M406 8c79 0 165 31 225 92c59 59 89 145 89 230c0 94 -42 189 -108 257c-68 69 -158 105 -246 105c-79 0 -165 -31 -225 -92c-59 -59 -89 -145 -89 -230c0 -94 42 -189 108 -257c68 -69 158 -105 246 -105zM406 -10c-94 0 -189 38 -261 111c-70 72 -113 170 -113 269
c0 93 33 180 95 243c63 63 147 97 239 97c94 0 189 -38 261 -111c70 -72 113 -170 113 -269c0 -93 -33 -180 -95 -243c-63 -63 -147 -97 -239 -97zM301 870h31l125 -130h-28l-113 118l-72 -118h-22z" />
    <glyph glyph-name="Otilde" unicode="&#xd5;" horiz-adv-x="812" 
d="M406 8c79 0 165 31 225 92c59 59 89 145 89 230c0 94 -42 189 -108 257c-68 69 -158 105 -246 105c-79 0 -165 -31 -225 -92c-59 -59 -89 -145 -89 -230c0 -94 42 -189 108 -257c68 -69 158 -105 246 -105zM406 -10c-94 0 -189 38 -261 111c-70 72 -113 170 -113 269
c0 93 33 180 95 243c63 63 147 97 239 97c94 0 189 -38 261 -111c70 -72 113 -170 113 -269c0 -93 -33 -180 -95 -243c-63 -63 -147 -97 -239 -97zM448 838l19 -3c-6 -46 -30 -72 -67 -72c-54 0 -99 59 -146 59c-34 0 -45 -32 -48 -57l-19 3c6 46 30 72 67 72
c54 0 99 -59 146 -59c34 0 45 32 48 57z" />
    <glyph glyph-name="Odieresis" unicode="&#xd6;" horiz-adv-x="812" 
d="M406 8c79 0 165 31 225 92c59 59 89 145 89 230c0 94 -42 189 -108 257c-68 69 -158 105 -246 105c-79 0 -165 -31 -225 -92c-59 -59 -89 -145 -89 -230c0 -94 42 -189 108 -257c68 -69 158 -105 246 -105zM406 -10c-94 0 -189 38 -261 111c-70 72 -113 170 -113 269
c0 93 33 180 95 243c63 63 147 97 239 97c94 0 189 -38 261 -111c70 -72 113 -170 113 -269c0 -93 -33 -180 -95 -243c-63 -63 -147 -97 -239 -97zM229 800c0 17 13 30 30 30s30 -13 30 -30s-13 -30 -30 -30s-30 13 -30 30zM369 800c0 17 13 30 30 30s30 -13 30 -30
s-13 -30 -30 -30s-30 13 -30 30z" />
    <glyph glyph-name="multiply" unicode="&#xd7;" horiz-adv-x="482" 
d="M40 416l12 13l185 -157l127 157l14 -11l-127 -157l186 -157l-12 -13l-185 156l-127 -156l-14 11l127 157z" />
    <glyph glyph-name="Oslash" unicode="&#xd8;" horiz-adv-x="812" 
d="M406 -10c-54 0 -107 12 -157 36l-16 -36h-21l20 45c-31 17 -61 39 -87 66c-70 72 -113 170 -113 269c0 93 33 180 95 243c63 63 147 97 239 97c54 0 109 -13 159 -38l18 38h21l-22 -47c31 -17 59 -38 85 -64c70 -72 113 -170 113 -269c0 -93 -33 -180 -95 -243
c-63 -63 -147 -97 -239 -97zM160 113c24 -25 51 -45 80 -61l278 603c-48 24 -101 37 -152 37c-79 0 -165 -31 -225 -92c-59 -59 -89 -145 -89 -230c0 -94 42 -189 108 -257zM406 8c79 0 165 31 225 92c59 59 89 145 89 230c0 94 -42 189 -108 257c-24 24 -50 43 -78 59
l-277 -603c47 -23 98 -35 149 -35z" />
    <glyph glyph-name="Ugrave" unicode="&#xd9;" horiz-adv-x="727" 
d="M89 262l-77 438h19l77 -435c30 -169 125 -257 277 -257c126 0 227 86 227 207c0 23 -3 45 -7 70l-73 415h19l72 -412c5 -27 9 -50 9 -75c0 -129 -111 -223 -247 -223c-167 0 -265 96 -296 272zM176 870h22l97 -130h-22z" />
    <glyph glyph-name="Uacute" unicode="&#xda;" horiz-adv-x="727" 
d="M89 262l-77 438h19l77 -435c30 -169 125 -257 277 -257c126 0 227 86 227 207c0 23 -3 45 -7 70l-73 415h19l72 -412c5 -27 9 -50 9 -75c0 -129 -111 -223 -247 -223c-167 0 -265 96 -296 272zM327 870h22l-97 -130h-22z" />
    <glyph glyph-name="Ucircumflex" unicode="&#xdb;" horiz-adv-x="727" 
d="M89 262l-77 438h19l77 -435c30 -169 125 -257 277 -257c126 0 227 86 227 207c0 23 -3 45 -7 70l-73 415h19l72 -412c5 -27 9 -50 9 -75c0 -129 -111 -223 -247 -223c-167 0 -265 96 -296 272zM227 870h31l125 -130h-28l-113 118l-72 -118h-22z" />
    <glyph glyph-name="Udieresis" unicode="&#xdc;" horiz-adv-x="727" 
d="M89 262l-77 438h19l77 -435c30 -169 125 -257 277 -257c126 0 227 86 227 207c0 23 -3 45 -7 70l-73 415h19l72 -412c5 -27 9 -50 9 -75c0 -129 -111 -223 -247 -223c-167 0 -265 96 -296 272zM162 800c0 17 13 30 30 30s30 -13 30 -30s-13 -30 -30 -30s-30 13 -30 30z
M302 800c0 17 13 30 30 30s30 -13 30 -30s-13 -30 -30 -30s-30 13 -30 30z" />
    <glyph glyph-name="Yacute" unicode="&#xdd;" horiz-adv-x="525" 
d="M313 0h-19l-60 344l-299 356h26l280 -333l162 333h22l-172 -355zM260 870h22l-97 -130h-22z" />
    <glyph glyph-name="Thorn" unicode="&#xde;" horiz-adv-x="585" 
d="M140 0l-123 700h19l32 -181h237c57 0 86 -8 110 -20c59 -30 102 -90 102 -161c0 -54 -22 -99 -61 -128c-25 -19 -60 -29 -110 -29h-219l32 -181h-19zM124 199h222c47 0 74 9 97 25c35 25 54 66 54 114c0 62 -38 119 -92 145c-21 10 -47 18 -100 18h-234z" />
    <glyph glyph-name="germandbls" unicode="&#xdf;" horiz-adv-x="557" 
d="M300 426c118 -11 212 -107 212 -228c0 -117 -84 -208 -212 -208c-33 0 -64 7 -93 19l6 17c27 -12 56 -18 87 -18c116 0 192 82 192 190c0 96 -65 176 -152 202c-20 6 -41 9 -82 9h-50l-3 18h17c85 0 133 53 133 123c0 44 -18 88 -48 113c-28 24 -66 39 -108 39
c-92 0 -144 -67 -144 -136c0 -26 2 -43 7 -72l87 -494h-19l-87 494c-4 21 -7 49 -7 72c0 86 67 154 163 154c42 0 85 -13 120 -42c31 -26 56 -72 56 -128c0 -53 -25 -101 -75 -124z" />
    <glyph glyph-name="agrave" unicode="&#xe0;" horiz-adv-x="566" 
d="M172 640h22l97 -130h-22zM514 0h-19l-15 89c-36 -51 -101 -99 -187 -99c-136 0 -243 102 -243 236c0 121 91 214 216 214c68 0 128 -34 164 -73l-11 63h19zM266 422c-114 0 -196 -85 -196 -196c0 -124 100 -218 223 -218c88 0 149 51 182 102l-41 229
c-39 48 -100 83 -168 83z" />
    <glyph glyph-name="aacute" unicode="&#xe1;" horiz-adv-x="566" 
d="M331 640h22l-97 -130h-22zM514 0h-19l-15 89c-36 -51 -101 -99 -187 -99c-136 0 -243 102 -243 236c0 121 91 214 216 214c68 0 128 -34 164 -73l-11 63h19zM266 422c-114 0 -196 -85 -196 -196c0 -124 100 -218 223 -218c88 0 149 51 182 102l-41 229
c-39 48 -100 83 -168 83z" />
    <glyph glyph-name="acircumflex" unicode="&#xe2;" horiz-adv-x="566" 
d="M211 640h31l125 -130h-28l-113 118l-72 -118h-22zM514 0h-19l-15 89c-36 -51 -101 -99 -187 -99c-136 0 -243 102 -243 236c0 121 91 214 216 214c68 0 128 -34 164 -73l-11 63h19zM266 422c-114 0 -196 -85 -196 -196c0 -124 100 -218 223 -218c88 0 149 51 182 102
l-41 229c-39 48 -100 83 -168 83z" />
    <glyph glyph-name="atilde" unicode="&#xe3;" horiz-adv-x="566" 
d="M378 608l19 -3c-6 -46 -30 -72 -67 -72c-54 0 -99 59 -146 59c-34 0 -45 -32 -48 -57l-19 3c6 46 30 72 67 72c54 0 99 -59 146 -59c34 0 45 32 48 57zM514 0h-19l-15 89c-36 -51 -101 -99 -187 -99c-136 0 -243 102 -243 236c0 121 91 214 216 214c68 0 128 -34 164 -73
l-11 63h19zM266 422c-114 0 -196 -85 -196 -196c0 -124 100 -218 223 -218c88 0 149 51 182 102l-41 229c-39 48 -100 83 -168 83z" />
    <glyph glyph-name="adieresis" unicode="&#xe4;" horiz-adv-x="566" 
d="M147 570c0 17 13 30 30 30s30 -13 30 -30s-13 -30 -30 -30s-30 13 -30 30zM287 570c0 17 13 30 30 30s30 -13 30 -30s-13 -30 -30 -30s-30 13 -30 30zM514 0h-19l-15 89c-36 -51 -101 -99 -187 -99c-136 0 -243 102 -243 236c0 121 91 214 216 214c68 0 128 -34 164 -73
l-11 63h19zM266 422c-114 0 -196 -85 -196 -196c0 -124 100 -218 223 -218c88 0 149 51 182 102l-41 229c-39 48 -100 83 -168 83z" />
    <glyph glyph-name="aring" unicode="&#xe5;" horiz-adv-x="566" 
d="M177 590c0 44 36 80 80 80s80 -36 80 -80s-36 -80 -80 -80s-80 36 -80 80zM195 590c0 -34 28 -62 62 -62s62 28 62 62s-28 62 -62 62s-62 -28 -62 -62zM514 0h-19l-15 89c-36 -51 -101 -99 -187 -99c-136 0 -243 102 -243 236c0 121 91 214 216 214c68 0 128 -34 164 -73
l-11 63h19zM266 422c-114 0 -196 -85 -196 -196c0 -124 100 -218 223 -218c88 0 149 51 182 102l-41 229c-39 48 -100 83 -168 83z" />
    <glyph glyph-name="ae" unicode="&#xe6;" horiz-adv-x="916" 
d="M514 0h-19l-15 89c-36 -51 -101 -99 -187 -99c-136 0 -243 102 -243 236c0 121 91 214 216 214c68 0 128 -34 164 -73l-11 63h19l27 -154c19 95 94 164 193 164c116 0 202 -92 213 -212h-393c0 -132 98 -220 218 -220c71 0 125 30 160 67l13 -14
c-37 -39 -94 -71 -173 -71c-84 0 -157 39 -199 104zM266 422c-114 0 -196 -85 -196 -196c0 -124 100 -218 223 -218c88 0 149 51 182 102l-41 229c-39 48 -100 83 -168 83zM658 422c-98 0 -170 -76 -179 -176h370c-18 101 -93 176 -191 176z" />
    <glyph glyph-name="ccedilla" unicode="&#xe7;" horiz-adv-x="515" 
d="M421 388l-12 -14c-33 28 -78 48 -132 48c-103 0 -207 -78 -207 -196c0 -117 85 -218 214 -218c70 0 137 33 181 90l15 -11c-43 -56 -106 -91 -177 -96l-37 -131h-19l37 130c-142 0 -234 109 -234 236c0 121 105 214 227 214c55 0 106 -21 144 -52z" />
    <glyph glyph-name="egrave" unicode="&#xe8;" horiz-adv-x="508" 
d="M152 640h22l97 -130h-22zM250 422c-98 0 -170 -76 -179 -176h370c-18 101 -93 176 -191 176zM448 75l13 -14c-37 -39 -94 -71 -173 -71c-130 0 -238 95 -238 236c0 120 85 214 200 214c116 0 202 -92 213 -212h-393c0 -132 98 -220 218 -220c71 0 125 30 160 67z" />
    <glyph glyph-name="eacute" unicode="&#xe9;" horiz-adv-x="508" 
d="M293 640h22l-97 -130h-22zM250 422c-98 0 -170 -76 -179 -176h370c-18 101 -93 176 -191 176zM448 75l13 -14c-37 -39 -94 -71 -173 -71c-130 0 -238 95 -238 236c0 120 85 214 200 214c116 0 202 -92 213 -212h-393c0 -132 98 -220 218 -220c71 0 125 30 160 67z" />
    <glyph glyph-name="ecircumflex" unicode="&#xea;" horiz-adv-x="508" 
d="M193 640h31l125 -130h-28l-113 118l-72 -118h-22zM250 422c-98 0 -170 -76 -179 -176h370c-18 101 -93 176 -191 176zM448 75l13 -14c-37 -39 -94 -71 -173 -71c-130 0 -238 95 -238 236c0 120 85 214 200 214c116 0 202 -92 213 -212h-393c0 -132 98 -220 218 -220
c71 0 125 30 160 67z" />
    <glyph glyph-name="edieresis" unicode="&#xeb;" horiz-adv-x="508" 
d="M129 570c0 17 13 30 30 30s30 -13 30 -30s-13 -30 -30 -30s-30 13 -30 30zM269 570c0 17 13 30 30 30s30 -13 30 -30s-13 -30 -30 -30s-30 13 -30 30zM250 422c-98 0 -170 -76 -179 -176h370c-18 101 -93 176 -191 176zM448 75l13 -14c-37 -39 -94 -71 -173 -71
c-130 0 -238 95 -238 236c0 120 85 214 200 214c116 0 202 -92 213 -212h-393c0 -132 98 -220 218 -220c71 0 125 30 160 67z" />
    <glyph glyph-name="igrave" unicode="&#xec;" horiz-adv-x="206" 
d="M59 430h19l76 -430h-19zM-55 640h22l97 -130h-22z" />
    <glyph glyph-name="iacute" unicode="&#xed;" horiz-adv-x="206" 
d="M59 430h19l76 -430h-19zM142 640h22l-97 -130h-22z" />
    <glyph glyph-name="icircumflex" unicode="&#xee;" horiz-adv-x="206" 
d="M59 430h19l76 -430h-19zM19 640h31l125 -130h-28l-113 118l-72 -118h-22z" />
    <glyph glyph-name="idieresis" unicode="&#xef;" horiz-adv-x="206" 
d="M59 430h19l76 -430h-19zM-55 570c0 17 13 30 30 30s30 -13 30 -30s-13 -30 -30 -30s-30 13 -30 30zM85 570c0 17 13 30 30 30s30 -13 30 -30s-13 -30 -30 -30s-30 13 -30 30z" />
    <glyph glyph-name="eth" unicode="&#xf0;" horiz-adv-x="542" 
d="M163 626l-68 74h28l57 -63l99 63l9 -14l-96 -62l232 -254c45 -50 73 -107 73 -171c0 -117 -90 -209 -213 -209c-128 0 -234 100 -234 229c0 116 88 209 211 209c40 0 79 -10 103 -22l-189 207l-95 -61l-9 15zM261 410c-112 0 -191 -85 -191 -191c0 -118 96 -211 214 -211
c111 0 193 84 193 191c0 65 -29 119 -71 161l-5 5c-36 26 -88 45 -140 45z" />
    <glyph glyph-name="ntilde" unicode="&#xf1;" horiz-adv-x="560" 
d="M359 608l19 -3c-6 -46 -30 -72 -67 -72c-54 0 -99 59 -146 59c-34 0 -45 -32 -48 -57l-19 3c6 46 30 72 67 72c54 0 99 -59 146 -59c34 0 45 32 48 57zM518 0h-19l-42 237c-9 52 -24 86 -41 110c-32 45 -81 75 -143 75c-71 0 -137 -43 -173 -115l54 -307h-19l-76 430h19
l17 -96c37 62 101 106 178 106c67 0 125 -32 161 -85c18 -26 32 -60 42 -118z" />
    <glyph glyph-name="ograve" unicode="&#xf2;" horiz-adv-x="554" 
d="M291 8c113 0 198 86 198 196c0 122 -102 218 -221 218c-113 0 -198 -86 -198 -196c0 -122 102 -218 221 -218zM291 -10c-132 0 -241 104 -241 236c0 120 92 214 218 214c132 0 241 -104 241 -236c0 -120 -92 -214 -218 -214zM160 640h22l97 -130h-22z" />
    <glyph glyph-name="oacute" unicode="&#xf3;" horiz-adv-x="554" 
d="M291 8c113 0 198 86 198 196c0 122 -102 218 -221 218c-113 0 -198 -86 -198 -196c0 -122 102 -218 221 -218zM291 -10c-132 0 -241 104 -241 236c0 120 92 214 218 214c132 0 241 -104 241 -236c0 -120 -92 -214 -218 -214zM310 640h22l-97 -130h-22z" />
    <glyph glyph-name="ocircumflex" unicode="&#xf4;" horiz-adv-x="554" 
d="M291 8c113 0 198 86 198 196c0 122 -102 218 -221 218c-113 0 -198 -86 -198 -196c0 -122 102 -218 221 -218zM291 -10c-132 0 -241 104 -241 236c0 120 92 214 218 214c132 0 241 -104 241 -236c0 -120 -92 -214 -218 -214zM210 640h31l125 -130h-28l-113 118l-72 -118
h-22z" />
    <glyph glyph-name="otilde" unicode="&#xf5;" horiz-adv-x="554" 
d="M291 8c113 0 198 86 198 196c0 122 -102 218 -221 218c-113 0 -198 -86 -198 -196c0 -122 102 -218 221 -218zM291 -10c-132 0 -241 104 -241 236c0 120 92 214 218 214c132 0 241 -104 241 -236c0 -120 -92 -214 -218 -214zM347 608l19 -3c-6 -46 -30 -72 -67 -72
c-54 0 -99 59 -146 59c-34 0 -45 -32 -48 -57l-19 3c6 46 30 72 67 72c54 0 99 -59 146 -59c34 0 45 32 48 57z" />
    <glyph glyph-name="odieresis" unicode="&#xf6;" horiz-adv-x="554" 
d="M291 8c113 0 198 86 198 196c0 122 -102 218 -221 218c-113 0 -198 -86 -198 -196c0 -122 102 -218 221 -218zM291 -10c-132 0 -241 104 -241 236c0 120 92 214 218 214c132 0 241 -104 241 -236c0 -120 -92 -214 -218 -214zM136 570c0 17 13 30 30 30s30 -13 30 -30
s-13 -30 -30 -30s-30 13 -30 30zM276 570c0 17 13 30 30 30s30 -13 30 -30s-13 -30 -30 -30s-30 13 -30 30z" />
    <glyph glyph-name="divide" unicode="&#xf7;" horiz-adv-x="523" 
d="M322 85c0 -19 -16 -35 -35 -35s-35 16 -35 35s16 35 35 35s35 -16 35 -35zM260 435c0 -19 -16 -35 -35 -35s-35 16 -35 35s16 35 35 35s35 -16 35 -35zM458 251h-400l-3 18h400z" />
    <glyph glyph-name="oslash" unicode="&#xf8;" horiz-adv-x="554" 
d="M291 -10c-34 0 -66 7 -95 19l-9 -19h-21l12 27c-76 39 -128 117 -128 209c0 120 92 214 218 214c34 0 66 -7 96 -20l9 20h21l-13 -28c76 -39 128 -117 128 -208c0 -120 -92 -214 -218 -214zM70 226c0 -84 48 -155 116 -192l170 369c-27 12 -57 19 -88 19
c-113 0 -198 -86 -198 -196zM291 8c113 0 198 86 198 196c0 83 -48 154 -116 191l-169 -369c27 -12 56 -18 87 -18z" />
    <glyph glyph-name="ugrave" unicode="&#xf9;" horiz-adv-x="553" 
d="M143 640h22l97 -130h-22zM49 430h19l42 -237c9 -52 23 -87 40 -111c32 -45 78 -74 140 -74c65 0 134 43 170 115l-54 307h19l76 -430h-19l-17 96c-37 -62 -104 -106 -175 -106c-67 0 -122 31 -158 84c-18 26 -31 61 -41 119z" />
    <glyph glyph-name="uacute" unicode="&#xfa;" horiz-adv-x="553" 
d="M290 640h22l-97 -130h-22zM49 430h19l42 -237c9 -52 23 -87 40 -111c32 -45 78 -74 140 -74c65 0 134 43 170 115l-54 307h19l76 -430h-19l-17 96c-37 -62 -104 -106 -175 -106c-67 0 -122 31 -158 84c-18 26 -31 61 -41 119z" />
    <glyph glyph-name="ucircumflex" unicode="&#xfb;" horiz-adv-x="553" 
d="M195 640h31l125 -130h-28l-113 118l-72 -118h-22zM49 430h19l42 -237c9 -52 23 -87 40 -111c32 -45 78 -74 140 -74c65 0 134 43 170 115l-54 307h19l76 -430h-19l-17 96c-37 -62 -104 -106 -175 -106c-67 0 -122 31 -158 84c-18 26 -31 61 -41 119z" />
    <glyph glyph-name="udieresis" unicode="&#xfc;" horiz-adv-x="553" 
d="M129 570c0 17 13 30 30 30s30 -13 30 -30s-13 -30 -30 -30s-30 13 -30 30zM269 570c0 17 13 30 30 30s30 -13 30 -30s-13 -30 -30 -30s-30 13 -30 30zM49 430h19l42 -237c9 -52 23 -87 40 -111c32 -45 78 -74 140 -74c65 0 134 43 170 115l-54 307h19l76 -430h-19l-17 96
c-37 -62 -104 -106 -175 -106c-67 0 -122 31 -158 84c-18 26 -31 61 -41 119z" />
    <glyph glyph-name="yacute" unicode="&#xfd;" horiz-adv-x="475" 
d="M394 430h21l-198 -670h-22l86 289l-286 381h24l269 -357zM283 640h22l-97 -130h-22z" />
    <glyph glyph-name="thorn" unicode="&#xfe;" horiz-adv-x="567" 
d="M10 710h19l63 -369c36 51 101 99 187 99c136 0 243 -102 243 -236c0 -121 -91 -214 -216 -214c-68 0 -128 34 -164 73l53 -303h-19zM306 8c114 0 196 85 196 196c0 124 -100 218 -223 218c-88 0 -149 -51 -182 -102l41 -229c39 -48 100 -83 168 -83z" />
    <glyph glyph-name="ydieresis" unicode="&#xff;" horiz-adv-x="475" 
d="M394 430h21l-198 -670h-22l86 289l-286 381h24l269 -357zM104 570c0 17 13 30 30 30s30 -13 30 -30s-13 -30 -30 -30s-30 13 -30 30zM244 570c0 17 13 30 30 30s30 -13 30 -30s-13 -30 -30 -30s-30 13 -30 30z" />
    <glyph glyph-name="dotlessi" unicode="&#x131;" horiz-adv-x="206" 
d="M59 430h19l76 -430h-19z" />
    <glyph glyph-name="Lslash" unicode="&#x141;" horiz-adv-x="500" 
d="M88 405l108 70l3 -19l-108 -69l65 -369h351l3 -18h-370l-66 376l-90 -58l-3 19l90 57l-54 306h19z" />
    <glyph glyph-name="lslash" unicode="&#x142;" horiz-adv-x="206" 
d="M173 464l3 -19l-90 -58l68 -387h-19l-66 376l-90 -57l-3 19l90 57l-56 315h19l54 -304z" />
    <glyph glyph-name="OE" unicode="&#x152;" horiz-adv-x="1156" 
d="M694 504l-34 196h360l3 -18h-341l49 -282h272l3 -18h-272l65 -364h351l3 -18h-370l-50 282c-8 -74 -37 -143 -88 -195c-63 -63 -147 -97 -239 -97c-94 0 -189 38 -261 111c-70 72 -113 170 -113 269c0 93 33 180 95 243c63 63 147 97 239 97c94 0 189 -38 261 -111
c27 -28 50 -60 67 -95zM406 8c79 0 165 31 225 92c59 59 89 145 89 230c0 94 -42 189 -108 257c-68 69 -158 105 -246 105c-79 0 -165 -31 -225 -92c-59 -59 -89 -145 -89 -230c0 -94 42 -189 108 -257c68 -69 158 -105 246 -105z" />
    <glyph glyph-name="oe" unicode="&#x153;" horiz-adv-x="947" 
d="M291 -10c-132 0 -241 104 -241 236c0 120 92 214 218 214c105 0 195 -66 228 -160c21 93 96 160 193 160c116 0 202 -92 213 -212h-393c0 -132 98 -220 218 -220c71 0 125 30 160 67l13 -14c-37 -39 -94 -71 -173 -71c-104 0 -194 61 -225 157
c-24 -91 -106 -157 -211 -157zM291 8c113 0 198 86 198 196c0 122 -102 218 -221 218c-113 0 -198 -86 -198 -196c0 -122 102 -218 221 -218zM689 422c-98 0 -170 -76 -179 -176h370c-18 101 -93 176 -191 176z" />
    <glyph glyph-name="Scaron" unicode="&#x160;" horiz-adv-x="542" 
d="M214 750h-31l-125 130h28l113 -118l72 118h22zM66 90l14 13c51 -60 127 -95 208 -95c90 0 179 58 179 160s-75 156 -166 185c-125 40 -271 62 -271 194c0 94 82 163 178 163c61 0 112 -18 165 -63l-13 -14c-41 37 -95 59 -152 59c-80 0 -158 -55 -158 -145
c0 -118 138 -139 258 -177c96 -30 179 -90 179 -204c0 -105 -92 -176 -199 -176c-82 0 -159 33 -222 100z" />
    <glyph glyph-name="scaron" unicode="&#x161;" horiz-adv-x="431" 
d="M170 510h-31l-125 130h28l113 -118l72 118h22zM90 51l13 14c40 -42 90 -57 139 -57c63 0 114 36 114 95c0 159 -301 73 -301 232c0 62 57 105 131 105c49 0 89 -18 119 -42l-11 -15c-30 23 -66 39 -107 39c-57 0 -112 -31 -112 -87c0 -139 301 -53 301 -233
c0 -60 -51 -112 -137 -112c-59 0 -113 22 -149 61z" />
    <glyph glyph-name="Ydieresis" unicode="&#x178;" horiz-adv-x="525" 
d="M313 0h-19l-60 344l-299 356h26l280 -333l162 333h22l-172 -355zM76 800c0 17 13 30 30 30s30 -13 30 -30s-13 -30 -30 -30s-30 13 -30 30zM216 800c0 17 13 30 30 30s30 -13 30 -30s-13 -30 -30 -30s-30 13 -30 30z" />
    <glyph glyph-name="Zcaron" unicode="&#x17d;" horiz-adv-x="598" 
d="M88 0l-2 10l334 672h-422l-3 18h449l2 -10l-334 -672h472l4 -18h-500zM240 750h-31l-125 130h28l113 -118l72 118h22z" />
    <glyph glyph-name="zcaron" unicode="&#x17e;" horiz-adv-x="450" 
d="M100 18h346l4 -18h-375l-2 10l253 402h-303l-3 18h334l2 -10zM198 510h-31l-125 130h28l113 -118l72 118h22z" />
    <glyph glyph-name="longs" unicode="&#x17f;" horiz-adv-x="336" 
d="M65 506l89 -506h-19l-89 506c-7 38 -12 70 -12 92c0 75 58 122 134 122c38 0 65 -9 83 -19l-8 -17c-23 12 -44 18 -75 18c-69 0 -115 -45 -115 -104c0 -23 5 -50 12 -92z" />
    <glyph glyph-name="florin" unicode="&#x192;" horiz-adv-x="522" 
d="M243 559c-14 -63 -24 -121 -32 -178h166l3 -18h-172c-23 -154 -34 -298 -70 -467c-10 -47 -30 -86 -60 -111c-27 -22 -62 -35 -102 -35c-32 0 -58 8 -82 21l9 17c22 -13 46 -20 73 -20c35 0 64 11 88 31c26 21 45 55 55 102c36 167 48 309 70 462h-134l-3 18h139
c9 58 19 119 33 183c10 47 30 86 60 111c27 22 62 35 102 35c32 0 58 -8 82 -21l-9 -17c-22 13 -46 20 -73 20c-35 0 -64 -11 -88 -31c-26 -21 -45 -55 -55 -102z" />
    <glyph glyph-name="circumflex" unicode="&#x2c6;" horiz-adv-x="375" 
d="M149 640h31l125 -130h-28l-113 118l-72 -118h-22z" />
    <glyph glyph-name="caron" unicode="&#x2c7;" horiz-adv-x="375" 
d="M226 520h-31l-125 130h28l113 -118l72 118h22z" />
    <glyph glyph-name="uni02C9" unicode="&#x2c9;" horiz-adv-x="500" 
d="M70 571h240v-18h-240v18z" />
    <glyph glyph-name="breve" unicode="&#x2d8;" horiz-adv-x="370" 
d="M282 635h18c0 -63 -52 -115 -115 -115s-115 52 -115 115h18c0 -54 43 -97 97 -97s97 43 97 97z" />
    <glyph glyph-name="dotaccent" unicode="&#x2d9;" horiz-adv-x="200" 
d="M70 590c0 17 13 30 30 30s30 -13 30 -30s-13 -30 -30 -30s-30 13 -30 30z" />
    <glyph glyph-name="ring" unicode="&#x2da;" horiz-adv-x="300" 
d="M70 590c0 44 36 80 80 80s80 -36 80 -80s-36 -80 -80 -80s-80 36 -80 80zM88 590c0 -34 28 -62 62 -62s62 28 62 62s-28 62 -62 62s-62 -28 -62 -62z" />
    <glyph glyph-name="ogonek" unicode="&#x2db;" horiz-adv-x="290" 
d="M108 10h21c-6 -7 -39 -59 -39 -115s29 -97 83 -97c22 0 38 6 42 8l5 -17c-4 -2 -23 -9 -45 -9c-69 0 -105 49 -105 113c0 55 33 110 38 117z" />
    <glyph glyph-name="tilde" unicode="&#x2dc;" horiz-adv-x="420" 
d="M331 608l19 -3c-6 -46 -30 -72 -67 -72c-54 0 -99 59 -146 59c-34 0 -45 -32 -48 -57l-19 3c6 46 30 72 67 72c54 0 99 -59 146 -59c34 0 45 32 48 57z" />
    <glyph glyph-name="hungarumlaut" unicode="&#x2dd;" horiz-adv-x="379" 
d="M167 640h22l-97 -130h-22zM287 640h22l-97 -130h-22z" />
    <glyph glyph-name="uni0394" unicode="&#x394;" horiz-adv-x="583" 
d="M205 700h9l388 -690l1 -10h-542l-1 10zM575 18l-359 639l-134 -639h493z" />
    <glyph glyph-name="uni03A9" unicode="&#x3a9;" horiz-adv-x="770" 
d="M262 18l3 -18h-190l-3 18h157c-94 66 -214 192 -214 352c0 93 33 180 95 243c63 63 147 97 239 97c94 0 189 -38 261 -111c72 -74 113 -176 113 -278c0 -114 -38 -205 -106 -303h166l3 -18h-190l-3 18c80 112 110 198 110 303c0 96 -41 197 -108 266
c-68 69 -158 105 -246 105c-79 0 -165 -31 -225 -92c-59 -59 -89 -145 -89 -230c0 -163 131 -289 227 -352z" />
    <glyph glyph-name="uni03BC" unicode="&#x3bc;" horiz-adv-x="562" 
d="M58 430h19l42 -237c9 -52 23 -87 40 -111c33 -45 78 -74 140 -74c65 0 134 43 170 115l-54 307h19l76 -430h-19l-17 96c-37 -62 -104 -106 -175 -106c-64 0 -129 34 -161 91l58 -331h-19z" />
    <glyph glyph-name="pi" unicode="&#x3c0;" horiz-adv-x="504" 
d="M179 0l-72 411c-29 -1 -68 -12 -85 -54l-17 9c11 29 34 46 57 55c20 7 41 9 66 9h305l3 -18h-100l50 -284c7 -41 14 -56 23 -71c16 -27 39 -40 65 -50l-6 -17c-33 10 -58 29 -75 56c-11 18 -18 36 -26 81l-50 285h-191l72 -412h-19z" />
    <glyph glyph-name="endash" unicode="&#x2013;" horiz-adv-x="440" 
d="M21 258h390l3 -18h-390z" />
    <glyph glyph-name="emdash" unicode="&#x2014;" horiz-adv-x="740" 
d="M21 258h690l3 -18h-690z" />
    <glyph glyph-name="quoteleft" unicode="&#x2018;" horiz-adv-x="226" 
d="M25 480l40 220h20l-40 -220h-20z" />
    <glyph glyph-name="quoteright" unicode="&#x2019;" horiz-adv-x="226" 
d="M25 480l40 220h20l-40 -220h-20z" />
    <glyph glyph-name="quotesinglbase" unicode="&#x201a;" horiz-adv-x="226" 
d="M123 -140l40 220h20l-40 -220h-20z" />
    <glyph glyph-name="quotedblleft" unicode="&#x201c;" horiz-adv-x="406" 
d="M25 480l40 220h20l-40 -220h-20zM205 480l40 220h20l-40 -220h-20z" />
    <glyph glyph-name="quotedblright" unicode="&#x201d;" horiz-adv-x="406" 
d="M25 480l40 220h20l-40 -220h-20zM205 480l40 220h20l-40 -220h-20z" />
    <glyph glyph-name="quotedblbase" unicode="&#x201e;" horiz-adv-x="406" 
d="M123 -140l40 220h20l-40 -220h-20zM303 -140l40 220h20l-40 -220h-20z" />
    <glyph glyph-name="dagger" unicode="&#x2020;" horiz-adv-x="504" 
d="M320 -200l-106 597h-187l-3 18h187l-50 285h19l50 -285h187l3 -18h-187l106 -597h-19z" />
    <glyph glyph-name="daggerdbl" unicode="&#x2021;" horiz-adv-x="504" 
d="M64 190h187l-37 207h-187l-3 18h187l-50 285h19l50 -285h187l3 -18h-187l37 -207h187l3 -18h-187l66 -372h-19l-66 372h-187z" />
    <glyph glyph-name="bullet" unicode="&#x2022;" horiz-adv-x="480" 
d="M80 215c0 88 72 160 160 160s160 -72 160 -160s-72 -160 -160 -160s-160 72 -160 160z" />
    <glyph glyph-name="ellipsis" unicode="&#x2026;" horiz-adv-x="710" 
d="M125 25c0 19 16 35 35 35s35 -16 35 -35s-16 -35 -35 -35s-35 16 -35 35zM345 25c0 19 16 35 35 35s35 -16 35 -35s-16 -35 -35 -35s-35 16 -35 35zM565 25c0 19 16 35 35 35s35 -16 35 -35s-16 -35 -35 -35s-35 16 -35 35z" />
    <glyph glyph-name="perthousand" unicode="&#x2030;" horiz-adv-x="1094" 
d="M1045 143c0 -85 -69 -153 -157 -153c-74 0 -134 42 -159 108c-19 -63 -77 -108 -149 -108c-98 0 -172 74 -172 177c0 85 69 153 157 153c74 0 134 -43 158 -108c19 63 78 108 150 108c98 0 172 -74 172 -177zM345 533c0 -85 -69 -153 -157 -153c-98 0 -172 74 -172 177
c0 85 69 153 157 153c98 0 172 -74 172 -177zM36 557c0 -91 65 -159 152 -159c76 0 137 60 137 135c0 91 -65 159 -152 159c-76 0 -137 -60 -137 -135zM428 167c0 -91 65 -159 152 -159c76 0 137 60 137 135c0 91 -65 159 -152 159c-76 0 -137 -60 -137 -135zM736 167
c0 -91 65 -159 152 -159c76 0 137 60 137 135c0 91 -65 159 -152 159c-76 0 -137 -60 -137 -135zM503 700h21l-284 -700h-22z" />
    <glyph glyph-name="guilsinglleft" unicode="&#x2039;" horiz-adv-x="315" 
d="M285 50h-28l-178 175l-2 10l120 175h24l-121 -178z" />
    <glyph glyph-name="guilsinglright" unicode="&#x203a;" horiz-adv-x="315" 
d="M30 410h28l178 -175l2 -10l-120 -175h-24l121 178z" />
    <glyph glyph-name="fraction" unicode="&#x2044;" horiz-adv-x="316" 
d="M290 700h21l-284 -700h-22z" />
    <glyph glyph-name="uni2070" unicode="&#x2070;" horiz-adv-x="315" 
d="M128 348c58 0 87 47 87 116c0 103 -43 228 -133 228c-58 0 -87 -47 -87 -116c0 -103 43 -228 133 -228zM128 330c-109 0 -153 137 -153 246c0 80 36 134 107 134c109 0 153 -137 153 -246c0 -80 -36 -134 -107 -134z" />
    <glyph glyph-name="uni2074" unicode="&#x2074;" horiz-adv-x="303" 
d="M177 340l-17 95h-188l-2 10l154 255h10l44 -247h72l3 -18h-72l17 -95h-21zM157 453l-37 204l-123 -204h160z" />
    <glyph glyph-name="uni2075" unicode="&#x2075;" horiz-adv-x="293" 
d="M-1 521h-9v179h178l3 -18h-161v-130c21 14 46 23 75 23c70 0 128 -58 128 -129c0 -66 -49 -116 -120 -116c-41 0 -78 17 -102 46l14 13c22 -24 53 -41 88 -41c57 0 100 41 100 98c0 60 -47 111 -110 111c-31 0 -60 -14 -84 -36z" />
    <glyph glyph-name="uni2076" unicode="&#x2076;" horiz-adv-x="291" 
d="M97 571c73 0 129 -56 129 -126c0 -63 -50 -115 -118 -115c-74 0 -128 51 -128 124c0 23 6 44 14 63l84 183h22l-65 -142c13 5 33 13 62 13zM22 529l-7 -14c-8 -16 -15 -39 -15 -61c0 -64 48 -106 108 -106c56 0 98 43 98 96c0 62 -48 109 -109 109c-32 0 -57 -10 -75 -24
z" />
    <glyph glyph-name="uni2077" unicode="&#x2077;" horiz-adv-x="252" 
d="M-52 682l-3 18h215l2 -11l-102 -349h-19l100 342h-193z" />
    <glyph glyph-name="uni2078" unicode="&#x2078;" horiz-adv-x="271" 
d="M-20 446c0 39 23 74 58 92c-36 13 -63 46 -63 88c0 45 38 84 89 84c54 0 98 -41 98 -95c0 -29 -15 -55 -38 -69c50 -14 87 -57 87 -112c0 -56 -48 -104 -111 -104c-70 0 -120 50 -120 116zM0 446c0 -55 41 -98 100 -98c52 0 91 39 91 86c0 54 -43 98 -100 98
c-50 0 -91 -40 -91 -86zM142 615c0 44 -37 77 -78 77c-40 0 -69 -32 -69 -66c0 -44 36 -76 77 -76c40 0 70 31 70 65z" />
    <glyph glyph-name="uni2079" unicode="&#x2079;" horiz-adv-x="286" 
d="M85 469c-73 0 -129 56 -129 126c0 63 50 115 118 115c74 0 128 -51 128 -124c0 -23 -6 -44 -14 -63l-84 -183h-22l65 142c-13 -5 -33 -13 -62 -13zM160 511l7 14c8 16 15 39 15 61c0 64 -48 106 -108 106c-56 0 -98 -43 -98 -96c0 -62 48 -109 109 -109c32 0 57 10 75 24
z" />
    <glyph glyph-name="uni2080" unicode="&#x2080;" horiz-adv-x="315" 
d="M188 8c58 0 87 47 87 116c0 103 -43 228 -133 228c-58 0 -87 -47 -87 -116c0 -103 43 -228 133 -228zM188 -10c-109 0 -153 137 -153 246c0 80 36 134 107 134c109 0 153 -137 153 -246c0 -80 -36 -134 -107 -134z" />
    <glyph glyph-name="uni2081" unicode="&#x2081;" horiz-adv-x="202" 
d="M102 333l-78 -49l-4 19l88 57h10l64 -360h-21z" />
    <glyph glyph-name="uni2082" unicode="&#x2082;" horiz-adv-x="268" 
d="M36 296l-16 8c16 37 50 66 95 66c64 0 109 -52 109 -112c0 -31 -14 -61 -35 -91l-105 -149h185l4 -18h-214l-2 11l115 166c21 30 32 51 32 81c0 49 -39 94 -89 94c-38 0 -64 -22 -79 -56z" />
    <glyph glyph-name="uni2083" unicode="&#x2083;" horiz-adv-x="285" 
d="M94 207l-2 11l90 124h-164l-3 18h192l2 -11l-85 -117c10 2 18 2 22 2c71 0 129 -57 129 -129c0 -67 -47 -115 -118 -115c-44 0 -85 20 -109 53l15 12c21 -28 55 -47 94 -47c59 0 98 42 98 97c0 61 -48 111 -113 111c-18 0 -40 -6 -48 -9z" />
    <glyph glyph-name="uni2084" unicode="&#x2084;" horiz-adv-x="303" 
d="M237 0l-17 95h-188l-2 10l154 255h10l44 -247h72l3 -18h-72l17 -95h-21zM217 113l-37 204l-123 -204h160z" />
    <glyph glyph-name="uni2085" unicode="&#x2085;" horiz-adv-x="293" 
d="M59 181h-9v179h178l3 -18h-161v-130c21 14 46 23 75 23c70 0 128 -58 128 -129c0 -66 -49 -116 -120 -116c-41 0 -78 17 -102 46l14 13c22 -24 53 -41 88 -41c57 0 100 41 100 98c0 60 -47 111 -110 111c-31 0 -60 -14 -84 -36z" />
    <glyph glyph-name="uni2086" unicode="&#x2086;" horiz-adv-x="291" 
d="M157 231c73 0 129 -56 129 -126c0 -63 -50 -115 -118 -115c-74 0 -128 51 -128 124c0 23 6 44 14 63l84 183h22l-65 -142c13 5 33 13 62 13zM82 189l-7 -14c-8 -16 -15 -39 -15 -61c0 -64 48 -106 108 -106c56 0 98 43 98 96c0 62 -48 109 -109 109
c-32 0 -57 -10 -75 -24z" />
    <glyph glyph-name="uni2087" unicode="&#x2087;" horiz-adv-x="252" 
d="M8 342l-3 18h215l2 -11l-102 -349h-19l100 342h-193z" />
    <glyph glyph-name="uni2088" unicode="&#x2088;" horiz-adv-x="276" 
d="M40 106c0 39 23 74 58 92c-36 13 -63 46 -63 88c0 45 38 84 89 84c54 0 98 -41 98 -95c0 -29 -15 -55 -38 -69c50 -14 87 -57 87 -112c0 -56 -48 -104 -111 -104c-70 0 -120 50 -120 116zM60 106c0 -55 41 -98 100 -98c52 0 91 39 91 86c0 54 -43 98 -100 98
c-50 0 -91 -40 -91 -86zM202 275c0 44 -37 77 -78 77c-40 0 -69 -32 -69 -66c0 -44 36 -76 77 -76c40 0 70 31 70 65z" />
    <glyph glyph-name="uni2089" unicode="&#x2089;" horiz-adv-x="286" 
d="M144 129c-73 0 -129 56 -129 126c0 63 50 115 118 115c74 0 128 -51 128 -124c0 -23 -6 -44 -14 -63l-84 -183h-22l65 142c-13 -5 -33 -13 -62 -13zM219 171l7 14c8 16 15 39 15 61c0 64 -48 106 -108 106c-56 0 -98 -43 -98 -96c0 -62 48 -109 109 -109
c32 0 57 10 75 24z" />
    <glyph glyph-name="Euro" unicode="&#x20ac;" horiz-adv-x="643" 
d="M617 121l16 -13c-57 -80 -135 -118 -241 -118c-154 0 -275 117 -315 271h-86l-3 18h85c-6 29 -9 59 -9 90c0 18 1 35 3 52h-104l-3 18h110c26 159 142 271 293 271c80 0 147 -28 203 -88l-14 -13c-54 57 -114 83 -188 83c-139 0 -247 -105 -274 -253h281l3 -18h-287
c-2 -17 -3 -35 -3 -53c0 -31 3 -61 9 -89h306l3 -18h-304c38 -144 151 -253 293 -253c99 0 177 39 226 113z" />
    <glyph glyph-name="trademark" unicode="&#x2122;" horiz-adv-x="840" 
d="M680 657l-157 -272h-16l-157 272v-340h-20v383h15l170 -292l170 292h15v-383h-20v340zM0 700h260v-18h-120v-365h-20v365h-120v18z" />
    <glyph glyph-name="Omega" unicode="&#x2126;" horiz-adv-x="770" 
d="M262 18l3 -18h-190l-3 18h157c-94 66 -214 192 -214 352c0 93 33 180 95 243c63 63 147 97 239 97c94 0 189 -38 261 -111c72 -74 113 -176 113 -278c0 -114 -38 -205 -106 -303h166l3 -18h-190l-3 18c80 112 110 198 110 303c0 96 -41 197 -108 266
c-68 69 -158 105 -246 105c-79 0 -165 -31 -225 -92c-59 -59 -89 -145 -89 -230c0 -163 131 -289 227 -352z" />
    <glyph glyph-name="arrowleft" unicode="&#x2190;" horiz-adv-x="742" 
d="M354 20h-27l-265 225l-1 8l184 225h25l-180 -220h582l3 -18h-580z" />
    <glyph glyph-name="arrowright" unicode="&#x2192;" horiz-adv-x="742" 
d="M382 478h27l265 -225l1 -8l-184 -225h-25l180 220h-582l-3 18h580z" />
    <glyph glyph-name="uni2196" unicode="&#x2196;" horiz-adv-x="560" 
d="M87 108l-56 315l7 7h314l21 -18h-307l467 -397l-12 -15l-467 397l54 -307z" />
    <glyph glyph-name="uni2197" unicode="&#x2197;" horiz-adv-x="560" 
d="M434 412h-311l15 18h315l8 -6l56 -316l-15 -18l-55 309l-329 -399l-14 12z" />
    <glyph glyph-name="uni2198" unicode="&#x2198;" horiz-adv-x="560" 
d="M479 322l56 -315l-7 -7h-314l-21 18h307l-467 397l12 15l467 -397l-54 307z" />
    <glyph glyph-name="uni2199" unicode="&#x2199;" horiz-adv-x="560" 
d="M132 18h311l-15 -18h-315l-8 6l-56 316l15 18l55 -309l329 399l14 -12z" />
    <glyph glyph-name="partialdiff" unicode="&#x2202;" horiz-adv-x="542" 
d="M364 406l-269 294h28l301 -330c45 -50 73 -107 73 -171c0 -117 -90 -209 -213 -209c-128 0 -234 100 -234 229c0 116 88 209 211 209c40 0 79 -10 103 -22zM261 410c-112 0 -191 -85 -191 -191c0 -118 96 -211 214 -211c111 0 193 84 193 191c0 65 -29 119 -71 161l-5 5
c-36 26 -88 45 -140 45z" />
    <glyph glyph-name="Delta" unicode="&#x2206;" horiz-adv-x="583" 
d="M205 700h9l388 -690l1 -10h-542l-1 10zM575 18l-359 639l-134 -639h493z" />
    <glyph glyph-name="product" unicode="&#x220f;" horiz-adv-x="552" 
d="M73 682h-100l-3 18h469l3 -18h-100l120 -682h-19l-120 682h-231l120 -682h-19z" />
    <glyph glyph-name="summation" unicode="&#x2211;" 
d="M419 520l-28 162h-413l356 -316l2 -10l-257 -338h439l-28 162h18l32 -180h-490l-2 10l265 349l-374 331l-2 10h470l31 -180h-19z" />
    <glyph glyph-name="minus" unicode="&#x2212;" horiz-adv-x="523" 
d="M458 251h-400l-3 18h400z" />
    <glyph glyph-name="uni2215" unicode="&#x2215;" horiz-adv-x="316" 
d="M290 700h21l-284 -700h-22z" />
    <glyph glyph-name="uni2219" unicode="&#x2219;" horiz-adv-x="270" 
d="M95 215c0 19 16 35 35 35s35 -16 35 -35s-16 -35 -35 -35s-35 16 -35 35z" />
    <glyph glyph-name="radical" unicode="&#x221a;" horiz-adv-x="543" 
d="M-40 430h113l232 -386l117 656h21l-125 -700h-9l-248 412h-98z" />
    <glyph glyph-name="infinity" unicode="&#x221e;" horiz-adv-x="740" 
d="M558 100c-91 0 -144 75 -194 155c-26 -80 -59 -155 -160 -155c-106 0 -180 95 -180 200c0 87 50 154 142 154s145 -76 194 -155c27 79 59 155 160 155c106 0 180 -95 180 -200c0 -87 -50 -154 -142 -154zM166 436c-80 0 -122 -61 -122 -136c0 -99 68 -182 160 -182
c94 0 122 76 148 156c-50 82 -99 162 -186 162zM558 118c80 0 122 61 122 136c0 99 -68 182 -160 182c-94 0 -121 -76 -148 -156c51 -82 100 -162 186 -162z" />
    <glyph glyph-name="integral" unicode="&#x222b;" horiz-adv-x="522" 
d="M243 559c-52 -238 -54 -425 -105 -663c-10 -47 -30 -86 -60 -111c-27 -22 -62 -35 -102 -35c-32 0 -58 8 -82 21l9 17c22 -13 46 -20 73 -20c35 0 64 11 88 31c26 21 45 55 55 102c52 238 54 425 105 663c10 47 30 86 60 111c27 22 62 35 102 35c32 0 58 -8 82 -21
l-9 -17c-22 13 -46 20 -73 20c-35 0 -64 -11 -88 -31c-26 -21 -45 -55 -55 -102z" />
    <glyph glyph-name="approxequal" unicode="&#x2248;" horiz-adv-x="469" 
d="M379 392l19 -5c-6 -62 -38 -90 -85 -90c-78 0 -131 88 -199 88c-44 0 -62 -30 -66 -77l-19 5c6 62 38 90 85 90c78 0 131 -88 199 -88c44 0 62 30 66 77zM410 214l19 -5c-6 -62 -38 -90 -85 -90c-78 0 -131 88 -199 88c-44 0 -62 -30 -66 -77l-19 5c6 62 38 90 85 90
c78 0 131 -88 199 -88c44 0 62 30 66 77z" />
    <glyph glyph-name="notequal" unicode="&#x2260;" horiz-adv-x="523" 
d="M279 342h-238l-3 18h248l42 105h19l-42 -105h133l3 -18h-143l-65 -162h237l3 -18h-247l-42 -105h-18l42 105h-135l-3 18h145z" />
    <glyph glyph-name="lessequal" unicode="&#x2264;" horiz-adv-x="523" 
d="M88 78h400l3 -18h-400zM421 449l4 -20l-346 -138l395 -140l4 -20l-437 154l-2 10z" />
    <glyph glyph-name="greaterequal" unicode="&#x2265;" horiz-adv-x="523" 
d="M88 78h400l3 -18h-400zM79 131l-4 20l346 138l-395 140l-4 20l437 -154l2 -10z" />
    <glyph glyph-name="lozenge" unicode="&#x25ca;" horiz-adv-x="541" 
d="M191 670l-150 -316l269 -324l150 316zM20 355l164 345h9l286 -345l2 -10l-164 -345h-9l-286 345z" />
    <glyph glyph-name="uniFB00" unicode="&#xfb00;" horiz-adv-x="688" 
d="M601 714l-5 -17c-14 4 -28 5 -46 5c-69 0 -115 -45 -115 -104c0 -23 5 -50 12 -92l13 -76h175l3 -18h-175l73 -412h-19l-73 412h-302l73 -412h-19l-73 412h-140l-3 18h140l-13 76c-7 38 -12 70 -12 92c0 75 58 122 134 122c20 0 37 -2 51 -6l-5 -17c-14 4 -28 5 -46 5
c-69 0 -115 -45 -115 -104c0 -23 5 -50 12 -92l13 -76h302l-13 76c-7 38 -12 70 -12 92c0 75 58 122 134 122c20 0 37 -2 51 -6z" />
    <glyph glyph-name="fi" unicode="&#xfb01;" horiz-adv-x="568" 
d="M280 714l-5 -17c-14 4 -28 5 -46 5c-69 0 -115 -45 -115 -104c0 -23 5 -50 12 -92l13 -76h301l76 -430h-19l-73 412h-282l73 -412h-19l-73 412h-140l-3 18h140l-13 76c-7 38 -12 70 -12 92c0 75 58 122 134 122c20 0 37 -2 51 -6zM433 590c0 -17 -13 -30 -30 -30
s-30 13 -30 30s13 30 30 30s30 -13 30 -30z" />
    <glyph glyph-name="fl" unicode="&#xfb02;" horiz-adv-x="568" 
d="M497 0l-73 412h-282l73 -412h-19l-73 412h-140l-3 18h140l-13 76c-7 38 -12 70 -12 92c0 75 58 122 134 122c20 0 37 -2 51 -6l-5 -17c-14 4 -28 5 -46 5c-69 0 -115 -45 -115 -104c0 -23 5 -50 12 -92l13 -76h282l-49 280h19l125 -710h-19z" />
    <glyph glyph-name="uniFB03" unicode="&#xfb03;" horiz-adv-x="889" 
d="M601 714l-5 -17c-14 4 -28 5 -46 5c-69 0 -115 -45 -115 -104c0 -23 5 -50 12 -92l13 -76h301l76 -430h-19l-73 412h-282l73 -412h-19l-73 412h-302l73 -412h-19l-73 412h-140l-3 18h140l-13 76c-7 38 -12 70 -12 92c0 75 58 122 134 122c20 0 37 -2 51 -6l-5 -17
c-14 4 -28 5 -46 5c-69 0 -115 -45 -115 -104c0 -23 5 -50 12 -92l13 -76h302l-13 76c-7 38 -12 70 -12 92c0 75 58 122 134 122c20 0 37 -2 51 -6zM754 590c0 -17 -13 -30 -30 -30s-30 13 -30 30s13 30 30 30s30 -13 30 -30z" />
    <glyph glyph-name="uniFB04" unicode="&#xfb04;" horiz-adv-x="889" 
d="M818 0l-73 412h-282l73 -412h-19l-73 412h-302l73 -412h-19l-73 412h-140l-3 18h140l-13 76c-7 38 -12 70 -12 92c0 75 58 122 134 122c20 0 37 -2 51 -6l-5 -17c-14 4 -28 5 -46 5c-69 0 -115 -45 -115 -104c0 -23 5 -50 12 -92l13 -76h302l-13 76c-7 38 -12 70 -12 92
c0 75 58 122 134 122c20 0 37 -2 51 -6l-5 -17c-14 4 -28 5 -46 5c-69 0 -115 -45 -115 -104c0 -23 5 -50 12 -92l13 -76h282l-49 280h19l125 -710h-19z" />
    <glyph glyph-name="zero.numr" horiz-adv-x="315" 
d="M128 348c58 0 87 47 87 116c0 103 -43 228 -133 228c-58 0 -87 -47 -87 -116c0 -103 43 -228 133 -228zM128 330c-109 0 -153 137 -153 246c0 80 36 134 107 134c109 0 153 -137 153 -246c0 -80 -36 -134 -107 -134z" />
    <glyph glyph-name="one.numr" horiz-adv-x="202" 
d="M42 673l-78 -49l-4 19l88 57h10l64 -360h-21z" />
    <glyph glyph-name="two.numr" horiz-adv-x="268" 
d="M-24 636l-16 8c16 37 50 66 95 66c64 0 109 -52 109 -112c0 -31 -14 -61 -35 -91l-105 -149h185l4 -18h-214l-2 11l115 166c21 30 32 51 32 81c0 49 -39 94 -89 94c-38 0 -64 -22 -79 -56z" />
    <glyph glyph-name="three.numr" horiz-adv-x="285" 
d="M34 547l-2 11l90 124h-164l-3 18h192l2 -11l-85 -117c10 2 18 2 22 2c71 0 129 -57 129 -129c0 -67 -47 -115 -118 -115c-44 0 -85 20 -109 53l15 12c21 -28 55 -47 94 -47c59 0 98 42 98 97c0 61 -48 111 -113 111c-18 0 -40 -6 -48 -9z" />
    <glyph glyph-name="four.numr" horiz-adv-x="303" 
d="M177 340l-17 95h-188l-2 10l154 255h10l44 -247h72l3 -18h-72l17 -95h-21zM157 453l-37 204l-123 -204h160z" />
    <glyph glyph-name="five.numr" horiz-adv-x="293" 
d="M-1 521h-9v179h178l3 -18h-161v-130c21 14 46 23 75 23c70 0 128 -58 128 -129c0 -66 -49 -116 -120 -116c-41 0 -78 17 -102 46l14 13c22 -24 53 -41 88 -41c57 0 100 41 100 98c0 60 -47 111 -110 111c-31 0 -60 -14 -84 -36z" />
    <glyph glyph-name="six.numr" horiz-adv-x="291" 
d="M97 571c73 0 129 -56 129 -126c0 -63 -50 -115 -118 -115c-74 0 -128 51 -128 124c0 23 6 44 14 63l84 183h22l-65 -142c13 5 33 13 62 13zM22 529l-7 -14c-8 -16 -15 -39 -15 -61c0 -64 48 -106 108 -106c56 0 98 43 98 96c0 62 -48 109 -109 109c-32 0 -57 -10 -75 -24
z" />
    <glyph glyph-name="seven.numr" horiz-adv-x="252" 
d="M-52 682l-3 18h215l2 -11l-102 -349h-19l100 342h-193z" />
    <glyph glyph-name="eight.numr" horiz-adv-x="271" 
d="M-20 446c0 39 23 74 58 92c-36 13 -63 46 -63 88c0 45 38 84 89 84c54 0 98 -41 98 -95c0 -29 -15 -55 -38 -69c50 -14 87 -57 87 -112c0 -56 -48 -104 -111 -104c-70 0 -120 50 -120 116zM0 446c0 -55 41 -98 100 -98c52 0 91 39 91 86c0 54 -43 98 -100 98
c-50 0 -91 -40 -91 -86zM142 615c0 44 -37 77 -78 77c-40 0 -69 -32 -69 -66c0 -44 36 -76 77 -76c40 0 70 31 70 65z" />
    <glyph glyph-name="nine.numr" horiz-adv-x="286" 
d="M85 469c-73 0 -129 56 -129 126c0 63 50 115 118 115c74 0 128 -51 128 -124c0 -23 -6 -44 -14 -63l-84 -183h-22l65 142c-13 -5 -33 -13 -62 -13zM160 511l7 14c8 16 15 39 15 61c0 64 -48 106 -108 106c-56 0 -98 -43 -98 -96c0 -62 48 -109 109 -109c32 0 57 10 75 24
z" />
    <glyph glyph-name="zero.dnom" horiz-adv-x="315" 
d="M188 8c58 0 87 47 87 116c0 103 -43 228 -133 228c-58 0 -87 -47 -87 -116c0 -103 43 -228 133 -228zM188 -10c-109 0 -153 137 -153 246c0 80 36 134 107 134c109 0 153 -137 153 -246c0 -80 -36 -134 -107 -134z" />
    <glyph glyph-name="one.dnom" horiz-adv-x="202" 
d="M102 333l-78 -49l-4 19l88 57h10l64 -360h-21z" />
    <glyph glyph-name="two.dnom" horiz-adv-x="268" 
d="M36 296l-16 8c16 37 50 66 95 66c64 0 109 -52 109 -112c0 -31 -14 -61 -35 -91l-105 -149h185l4 -18h-214l-2 11l115 166c21 30 32 51 32 81c0 49 -39 94 -89 94c-38 0 -64 -22 -79 -56z" />
    <glyph glyph-name="three.dnom" horiz-adv-x="285" 
d="M94 207l-2 11l90 124h-164l-3 18h192l2 -11l-85 -117c10 2 18 2 22 2c71 0 129 -57 129 -129c0 -67 -47 -115 -118 -115c-44 0 -85 20 -109 53l15 12c21 -28 55 -47 94 -47c59 0 98 42 98 97c0 61 -48 111 -113 111c-18 0 -40 -6 -48 -9z" />
    <glyph glyph-name="four.dnom" horiz-adv-x="303" 
d="M237 0l-17 95h-188l-2 10l154 255h10l44 -247h72l3 -18h-72l17 -95h-21zM217 113l-37 204l-123 -204h160z" />
    <glyph glyph-name="five.dnom" horiz-adv-x="293" 
d="M59 181h-9v179h178l3 -18h-161v-130c21 14 46 23 75 23c70 0 128 -58 128 -129c0 -66 -49 -116 -120 -116c-41 0 -78 17 -102 46l14 13c22 -24 53 -41 88 -41c57 0 100 41 100 98c0 60 -47 111 -110 111c-31 0 -60 -14 -84 -36z" />
    <glyph glyph-name="six.dnom" horiz-adv-x="291" 
d="M157 231c73 0 129 -56 129 -126c0 -63 -50 -115 -118 -115c-74 0 -128 51 -128 124c0 23 6 44 14 63l84 183h22l-65 -142c13 5 33 13 62 13zM82 189l-7 -14c-8 -16 -15 -39 -15 -61c0 -64 48 -106 108 -106c56 0 98 43 98 96c0 62 -48 109 -109 109
c-32 0 -57 -10 -75 -24z" />
    <glyph glyph-name="seven.dnom" horiz-adv-x="252" 
d="M8 342l-3 18h215l2 -11l-102 -349h-19l100 342h-193z" />
    <glyph glyph-name="eight.dnom" horiz-adv-x="276" 
d="M40 106c0 39 23 74 58 92c-36 13 -63 46 -63 88c0 45 38 84 89 84c54 0 98 -41 98 -95c0 -29 -15 -55 -38 -69c50 -14 87 -57 87 -112c0 -56 -48 -104 -111 -104c-70 0 -120 50 -120 116zM60 106c0 -55 41 -98 100 -98c52 0 91 39 91 86c0 54 -43 98 -100 98
c-50 0 -91 -40 -91 -86zM202 275c0 44 -37 77 -78 77c-40 0 -69 -32 -69 -66c0 -44 36 -76 77 -76c40 0 70 31 70 65z" />
    <glyph glyph-name="nine.dnom" horiz-adv-x="286" 
d="M144 129c-73 0 -129 56 -129 126c0 63 50 115 118 115c74 0 128 -51 128 -124c0 -23 -6 -44 -14 -63l-84 -183h-22l65 142c-13 -5 -33 -13 -62 -13zM219 171l7 14c8 16 15 39 15 61c0 64 -48 106 -108 106c-56 0 -98 -43 -98 -96c0 -62 48 -109 109 -109
c32 0 57 10 75 24z" />
    <glyph glyph-name="quotedbl.tf" 
d="M331 465h-19l-42 235h19zM161 465h-19l-42 235h19z" />
    <glyph glyph-name="numbersign.tf" 
d="M122 240h-107l-3 18h115l50 184h-107l-3 18h115l65 240h19l-65 -240h191l65 240h19l-65 -240h107l3 -18h-115l-50 -184h107l3 -18h-115l-64 -240h-19l64 240h-191l-64 -240h-19zM196 442l-50 -184h191l50 184h-191z" />
    <glyph glyph-name="dollar.tf" 
d="M75 90l14 13c51 -60 127 -95 208 -95c90 0 179 58 179 160s-75 156 -166 185c-125 40 -271 62 -271 194c0 83 64 147 145 160l-18 108h19l18 -106c4 1 9 1 14 1c61 0 112 -18 165 -63l-13 -14c-41 37 -95 59 -152 59c-80 0 -158 -55 -158 -145c0 -118 138 -139 258 -177
c96 -30 179 -90 179 -204c0 -94 -74 -161 -166 -174l19 -107h-19l-19 106c-7 -1 -12 -1 -14 -1c-82 0 -159 33 -222 100z" />
    <glyph glyph-name="quotesingle.tf" 
d="M251 465h-19l-42 235h19z" />
    <glyph glyph-name="plus.tf" 
d="M274 269l-34 191h18l34 -191h191l3 -18h-191l33 -191h-18l-33 191h-191l-3 18h191z" />
    <glyph glyph-name="zero.tf" 
d="M485 243c0 199 -77 449 -261 449c-120 0 -179 -92 -179 -235c0 -199 77 -449 261 -449c120 0 179 92 179 235zM505 243c0 -150 -64 -253 -199 -253c-199 0 -281 258 -281 467c0 150 64 253 199 253c199 0 281 -258 281 -467z" />
    <glyph glyph-name="one.tf" 
d="M53 575l-3 19l167 106h9l120 -682h203l4 -18h-437l-4 18h215l-115 655z" />
    <glyph glyph-name="two.tf" 
d="M55 579l-17 7c30 76 108 124 187 124c108 0 199 -83 199 -202c0 -65 -26 -123 -65 -181l-208 -309h364l3 -18h-395l-2 10l219 324c41 60 64 113 64 174c0 101 -76 184 -179 184c-75 0 -142 -44 -170 -113z" />
    <glyph glyph-name="three.tf" 
d="M92 88l17 10c40 -55 106 -90 182 -90c112 0 196 85 196 194c0 123 -98 215 -218 215c-34 0 -60 -3 -96 -15l-2 10l188 270h-319l-3 18h349l2 -10l-182 -261c19 4 41 6 63 6c133 0 238 -100 238 -233c0 -119 -91 -212 -216 -212c-84 0 -156 39 -199 98z" />
    <glyph glyph-name="four.tf" 
d="M35 210l304 490h9l85 -482h120l3 -18h-120l35 -200h-19l-35 200h-380zM414 218l-78 441l-274 -441h352z" />
    <glyph glyph-name="five.tf" 
d="M96 83l14 12c39 -52 106 -87 173 -87c102 0 199 77 199 192c0 117 -100 212 -215 212c-60 0 -126 -27 -164 -67h-10v355h311l3 -18h-294v-304c39 31 95 52 154 52c128 0 235 -102 235 -230c0 -117 -95 -210 -220 -210c-74 0 -143 38 -186 93z" />
    <glyph glyph-name="six.tf" 
d="M96 326l173 374h22l-145 -314c35 26 82 42 135 42c127 0 235 -98 235 -229c0 -119 -94 -209 -220 -209s-226 98 -226 224c0 41 10 77 26 112zM126 343l-11 -23c-16 -34 -25 -67 -25 -107c0 -113 90 -205 206 -205c114 0 200 82 200 191c0 119 -97 211 -215 211
c-63 0 -118 -27 -155 -67z" />
    <glyph glyph-name="seven.tf" 
d="M431 700l2 -10l-213 -690h-21l210 682h-394l-3 18h419z" />
    <glyph glyph-name="eight.tf" 
d="M416 534c0 -62 -37 -115 -94 -140c105 -17 184 -103 184 -213c0 -106 -86 -191 -205 -191c-124 0 -224 92 -224 216c0 81 51 149 128 177c-81 18 -141 84 -141 172c0 86 72 155 169 155c101 0 183 -74 183 -176zM282 379c-107 0 -185 -77 -185 -173
c0 -111 90 -198 204 -198c107 0 185 77 185 173c0 111 -90 198 -204 198zM396 534c0 90 -72 158 -163 158c-85 0 -149 -61 -149 -137c0 -90 72 -158 163 -158c85 0 149 61 149 137z" />
    <glyph glyph-name="nine.tf" 
d="M440 374l-173 -374h-22l145 314c-35 -26 -82 -42 -135 -42c-127 0 -235 98 -235 229c0 119 94 209 220 209s226 -98 226 -224c0 -41 -10 -77 -26 -112zM410 357l11 23c16 34 25 67 25 107c0 113 -90 205 -206 205c-114 0 -200 -82 -200 -191c0 -119 97 -211 215 -211
c63 0 118 27 155 67z" />
    <glyph glyph-name="less.tf" 
d="M433 437l3 -19l-339 -156l394 -158l4 -21l-430 172l-2 10z" />
    <glyph glyph-name="equal.tf" 
d="M493 162h-400l-3 18h400zM461 342h-400l-3 18h400z" />
    <glyph glyph-name="greater.tf" 
d="M117 83l-3 19l339 156l-394 158l-4 21l430 -172l2 -10z" />
    <glyph glyph-name="asciicircum.tf" 
d="M208 700h9l237 -350h-23l-214 314l-102 -314h-21z" />
    <glyph glyph-name="asciitilde.tf" 
d="M441 303l19 -5c-6 -62 -38 -90 -85 -90c-78 0 -131 88 -199 88c-44 0 -62 -30 -66 -77l-19 5c6 62 38 90 85 90c78 0 131 -88 199 -88c44 0 62 30 66 77z" />
    <glyph glyph-name="cent.tf" 
d="M446 388l-12 -14c-33 28 -78 48 -132 48c-103 0 -207 -78 -207 -196c0 -117 85 -218 214 -218c70 0 137 33 181 90l15 -11c-38 -51 -94 -84 -157 -94l19 -108h-19l-19 106c-7 -1 -14 -1 -20 -1c-142 0 -234 109 -234 236c0 106 81 192 184 210l-18 109h19l19 -106
c7 0 15 1 23 1c55 0 106 -21 144 -52z" />
    <glyph glyph-name="sterling.tf" 
d="M167 18h384l4 -18h-435l-2 10c67 33 109 108 109 178c0 66 -31 120 -63 175h-87l-4 18h80c-29 50 -55 101 -55 161c0 102 76 168 164 168c68 0 115 -34 150 -77l-16 -12c-17 21 -58 71 -134 71c-79 0 -144 -62 -144 -150c0 -60 28 -110 58 -161h132l4 -18h-125
c31 -53 60 -108 60 -175c0 -75 -40 -136 -80 -170z" />
    <glyph glyph-name="currency.tf" 
d="M99 351c0 48 18 92 48 125l-72 72l13 13l72 -72c33 30 77 48 125 48s92 -18 125 -48l72 72l13 -13l-72 -72c30 -33 48 -77 48 -125s-18 -92 -48 -125l72 -72l-13 -13l-72 72c-33 -30 -77 -48 -125 -48s-92 18 -125 48l-72 -72l-13 13l72 72c-30 33 -48 77 -48 125z
M119 351c0 -92 74 -166 166 -166s166 74 166 166s-74 166 -166 166s-166 -74 -166 -166z" />
    <glyph glyph-name="yen.tf" 
d="M283 279h219l3 -18h-219l45 -261h-19l-45 261h-222l-3 18h222l-12 65l-64 77h-171l-3 18h159l-220 261h26l280 -333l162 333h22l-126 -261h157l3 -18h-169l-37 -76z" />
    <glyph glyph-name="section.tf" 
d="M472 219c0 130 -146 146 -266 183c-65 -21 -107 -72 -107 -141c0 -130 146 -146 266 -184c64 21 107 73 107 142zM501 -79c0 208 -422 102 -422 340c0 68 39 124 99 151c-72 26 -128 64 -128 147c0 94 85 151 179 151c58 0 111 -19 158 -62l-13 -13
c-38 35 -85 57 -145 57c-74 0 -159 -43 -159 -133c0 -208 422 -102 422 -340c0 -69 -39 -124 -99 -151c71 -26 128 -64 128 -147c0 -94 -85 -151 -179 -151c-58 0 -111 19 -158 62l13 13c38 -35 85 -57 145 -57c74 0 159 43 159 133z" />
    <glyph glyph-name="logicalnot.tf" 
d="M458 360l35 -198h-18l-32 180h-382l-3 18h400z" />
    <glyph glyph-name="plusminus.tf" 
d="M117 78h400l3 -18h-400zM241 460h18l29 -167h192l3 -18h-192l29 -167h-18l-29 167h-190l-3 18h190z" />
    <glyph glyph-name="mu.tf" 
d="M58 430h19l42 -237c9 -52 23 -87 40 -111c33 -45 78 -74 140 -74c65 0 134 43 170 115l-54 307h19l76 -430h-19l-17 96c-37 -62 -104 -106 -175 -106c-64 0 -129 34 -161 91l58 -331h-19z" />
    <glyph glyph-name="multiply.tf" 
d="M76 416l12 13l185 -157l127 157l14 -11l-127 -157l186 -157l-12 -13l-185 156l-127 -156l-14 11l127 157z" />
    <glyph glyph-name="divide.tf" 
d="M341 85c0 -19 -16 -35 -35 -35s-35 16 -35 35s16 35 35 35s35 -16 35 -35zM279 435c0 -19 -16 -35 -35 -35s-35 16 -35 35s16 35 35 35s35 -16 35 -35zM477 251h-400l-3 18h400z" />
    <glyph glyph-name="florin.tf" 
d="M275 559c-14 -63 -24 -121 -32 -178h166l3 -18h-172c-23 -154 -34 -298 -70 -467c-10 -47 -30 -86 -60 -111c-27 -22 -62 -35 -102 -35c-32 0 -58 8 -82 21l9 17c22 -13 46 -20 73 -20c35 0 64 11 88 31c26 21 45 55 55 102c36 167 48 309 70 462h-134l-3 18h139
c9 58 19 119 33 183c10 47 30 86 60 111c27 22 62 35 102 35c32 0 58 -8 82 -21l-9 -17c-22 13 -46 20 -73 20c-35 0 -64 -11 -88 -31c-26 -21 -45 -55 -55 -102z" />
    <glyph glyph-name="pi.tf" 
d="M225 0l-72 411c-29 -1 -68 -12 -85 -54l-17 9c11 29 34 46 57 55c20 7 41 9 66 9h305l3 -18h-100l50 -284c7 -41 14 -56 23 -71c16 -27 39 -40 65 -50l-6 -17c-33 10 -58 29 -75 56c-11 18 -18 36 -26 81l-50 285h-191l72 -412h-19z" />
    <glyph glyph-name="Euro.tf" 
d="M580 121l16 -13c-57 -80 -135 -118 -241 -118c-154 0 -275 117 -315 271h-86l-3 18h85c-6 29 -9 59 -9 90c0 18 1 35 3 52h-104l-3 18h110c26 159 142 271 293 271c80 0 147 -28 203 -88l-14 -13c-54 57 -114 83 -188 83c-139 0 -247 -105 -274 -253h281l3 -18h-287
c-2 -17 -3 -35 -3 -53c0 -31 3 -61 9 -89h306l3 -18h-304c38 -144 151 -253 293 -253c99 0 177 39 226 113z" />
    <glyph glyph-name="partialdiff.tf" 
d="M376 406l-269 294h28l301 -330c45 -50 73 -107 73 -171c0 -117 -90 -209 -213 -209c-128 0 -234 100 -234 229c0 116 88 209 211 209c40 0 79 -10 103 -22zM273 410c-112 0 -191 -85 -191 -191c0 -118 96 -211 214 -211c111 0 193 84 193 191c0 65 -29 119 -71 161l-5 5
c-36 26 -88 45 -140 45z" />
    <glyph glyph-name="Delta.tf" 
d="M198 700h9l388 -690l1 -10h-542l-1 10zM568 18l-359 639l-134 -639h493z" />
    <glyph glyph-name="product.tf" 
d="M71 682h-100l-3 18h469l3 -18h-100l120 -682h-19l-120 682h-231l120 -682h-19z" />
    <glyph glyph-name="summation.tf" 
d="M439 520l-28 162h-413l356 -316l2 -10l-257 -338h439l-28 162h18l32 -180h-490l-2 10l265 349l-374 331l-2 10h470l31 -180h-19z" />
    <glyph glyph-name="minus.tf" 
d="M477 251h-400l-3 18h400z" />
    <glyph glyph-name="radical.tf" 
d="M-17 430h113l232 -386l117 656h21l-125 -700h-9l-248 412h-98z" />
    <glyph glyph-name="integral.tf" 
d="M275 559c-52 -238 -54 -425 -105 -663c-10 -47 -30 -86 -60 -111c-27 -22 -62 -35 -102 -35c-32 0 -58 8 -82 21l9 17c22 -13 46 -20 73 -20c35 0 64 11 88 31c26 21 45 55 55 102c52 238 54 425 105 663c10 47 30 86 60 111c27 22 62 35 102 35c32 0 58 -8 82 -21
l-9 -17c-22 13 -46 20 -73 20c-35 0 -64 -11 -88 -31c-26 -21 -45 -55 -55 -102z" />
    <glyph glyph-name="approxequal.tf" 
d="M426 392l19 -5c-6 -62 -38 -90 -85 -90c-78 0 -131 88 -199 88c-44 0 -62 -30 -66 -77l-19 5c6 62 38 90 85 90c78 0 131 -88 199 -88c44 0 62 30 66 77zM457 214l19 -5c-6 -62 -38 -90 -85 -90c-78 0 -131 88 -199 88c-44 0 -62 -30 -66 -77l-19 5c6 62 38 90 85 90
c78 0 131 -88 199 -88c44 0 62 30 66 77z" />
    <glyph glyph-name="notequal.tf" 
d="M299 342h-238l-3 18h248l42 105h19l-42 -105h133l3 -18h-143l-65 -162h237l3 -18h-247l-42 -105h-18l42 105h-135l-3 18h145z" />
    <glyph glyph-name="lessequal.tf" 
d="M117 78h400l3 -18h-400zM450 449l4 -20l-346 -138l395 -140l4 -20l-437 154l-2 10z" />
    <glyph glyph-name="greaterequal.tf" 
d="M117 78h400l3 -18h-400zM108 131l-4 20l346 138l-395 140l-4 20l437 -154l2 -10z" />
    <glyph glyph-name="lozenge.tf" 
d="M204 670l-150 -316l269 -324l150 316zM33 355l164 345h9l286 -345l2 -10l-164 -345h-9l-286 345z" />
    <glyph glyph-name="parenleft.case" horiz-adv-x="415" 
d="M388 -97l-15 -13c-137 157 -230 345 -230 563c0 130 31 254 87 357l17 -10c-54 -101 -84 -221 -84 -347c0 -213 91 -397 225 -550z" />
    <glyph glyph-name="parenright.case" horiz-adv-x="415" 
d="M-17 797l15 13c137 -157 230 -345 230 -563c0 -130 -31 -254 -87 -357l-17 10c54 101 84 221 84 347c0 213 -91 397 -225 550z" />
    <glyph glyph-name="hyphen.case" horiz-adv-x="410" 
d="M56 400h240l3 -18h-240z" />
    <glyph glyph-name="at.case" horiz-adv-x="1026" 
d="M499 145c-115 0 -210 89 -210 204c0 105 79 186 188 186c57 0 106 -25 140 -59l-9 50h20l48 -273c9 -55 37 -90 89 -90c91 0 135 104 135 218c0 226 -192 381 -403 381c-228 0 -417 -187 -417 -422s189 -422 418 -422c90 0 174 30 241 82l11 -16
c-69 -53 -158 -84 -253 -84c-242 0 -437 197 -437 440s195 440 437 440c229 0 423 -170 423 -399c0 -116 -45 -236 -155 -236c-50 0 -86 27 -103 82c-34 -44 -87 -82 -163 -82zM656 251l-33 195c-34 41 -88 71 -146 71c-97 0 -168 -73 -168 -168c0 -106 88 -186 190 -186
c75 0 129 44 157 88z" />
    <glyph glyph-name="bracketleft.case" horiz-adv-x="415" 
d="M229 -100l-159 900h204l3 -18h-185l153 -864h185l3 -18h-204z" />
    <glyph glyph-name="bracketright.case" horiz-adv-x="415" 
d="M142 800l159 -900h-204l-3 18h185l-153 864h-185l-3 18h204z" />
    <glyph glyph-name="braceleft.case" horiz-adv-x="415" 
d="M168 800l3 -18h-20c-89 0 -120 -44 -120 -101c0 -92 48 -177 48 -268c0 -36 -18 -55 -32 -61c35 -16 48 -41 57 -71c29 -98 22 -256 60 -311c25 -36 65 -52 135 -52h25l3 -18h-25c-78 0 -125 17 -152 58c-47 71 -32 235 -69 332c-13 34 -34 47 -67 50l-3 20
c33 5 49 22 49 53c0 92 -48 178 -48 269c0 66 41 118 136 118h20z" />
    <glyph glyph-name="bar.case" horiz-adv-x="150" 
d="M126 -110l-159 900h19l159 -900h-19z" />
    <glyph glyph-name="braceright.case" horiz-adv-x="415" 
d="M126 -100l-3 18h20c89 0 120 44 120 101c0 92 -48 177 -48 268c0 36 18 55 32 61c-35 16 -48 41 -57 71c-29 98 -22 256 -60 311c-25 36 -65 52 -135 52h-25l-3 18h25c78 0 125 -17 152 -58c47 -71 32 -235 69 -332c13 -34 34 -47 67 -50l3 -20c-33 -5 -49 -22 -49 -53
c0 -92 48 -178 48 -269c0 -66 -41 -118 -136 -118h-20z" />
    <glyph glyph-name="guillemotleft.case" horiz-adv-x="525" 
d="M268 150h-28l-178 175l-2 10l120 175h24l-121 -178zM478 150h-28l-178 175l-2 10l120 175h24l-121 -178z" />
    <glyph glyph-name="periodcentered.case" horiz-adv-x="270" 
d="M85 350c0 19 16 35 35 35s35 -16 35 -35s-16 -35 -35 -35s-35 16 -35 35z" />
    <glyph glyph-name="guillemotright.case" horiz-adv-x="525" 
d="M223 510h28l178 -175l2 -10l-120 -175h-24l121 178zM13 510h28l178 -175l2 -10l-120 -175h-24l121 178z" />
    <glyph glyph-name="endash.case" horiz-adv-x="440" 
d="M-4 400h390l3 -18h-390z" />
    <glyph glyph-name="emdash.case" horiz-adv-x="740" 
d="M-4 400h690l3 -18h-690z" />
    <glyph glyph-name="bullet.case" horiz-adv-x="480" 
d="M60 350c0 88 72 160 160 160s160 -72 160 -160s-72 -160 -160 -160s-160 72 -160 160z" />
    <glyph glyph-name="guilsinglleft.case" horiz-adv-x="315" 
d="M268 150h-28l-178 175l-2 10l120 175h24l-121 -178z" />
    <glyph glyph-name="guilsinglright.case" horiz-adv-x="315" 
d="M13 510h28l178 -175l2 -10l-120 -175h-24l121 178z" />
    <glyph glyph-name="zero.zero" horiz-adv-x="590" 
d="M512 243c0 -150 -64 -253 -199 -253c-199 0 -281 258 -281 467c0 150 64 253 199 253c199 0 281 -258 281 -467zM492 243c0 128 -33 278 -105 368l-218 -537c38 -41 85 -66 144 -66c120 0 179 92 179 235zM52 457c0 -129 32 -279 104 -369l218 538c-37 41 -85 66 -143 66
c-120 0 -179 -92 -179 -235z" />
    <glyph glyph-name="uni2070.zero" horiz-adv-x="315" 
d="M128 330c-109 0 -153 137 -153 246c0 80 36 134 107 134c109 0 153 -137 153 -246c0 -80 -36 -134 -107 -134zM-5 576c0 -65 17 -139 52 -185l108 266c-19 21 -44 35 -73 35c-58 0 -87 -47 -87 -116zM128 348c58 0 87 47 87 116c0 61 -16 130 -47 176l-108 -263
c19 -18 41 -29 68 -29z" />
    <glyph glyph-name="uni2080.zero" horiz-adv-x="315" 
d="M188 -10c-109 0 -153 137 -153 246c0 80 36 134 107 134c109 0 153 -137 153 -246c0 -80 -36 -134 -107 -134zM55 236c0 -65 17 -139 52 -185l108 266c-19 21 -44 35 -73 35c-58 0 -87 -47 -87 -116zM188 8c58 0 87 47 87 116c0 61 -16 130 -47 176l-108 -263
c19 -18 41 -29 68 -29z" />
    <glyph glyph-name="zero.numr.zero" horiz-adv-x="315" 
d="M128 330c-109 0 -153 137 -153 246c0 80 36 134 107 134c109 0 153 -137 153 -246c0 -80 -36 -134 -107 -134zM-5 576c0 -65 17 -139 52 -185l108 266c-19 21 -44 35 -73 35c-58 0 -87 -47 -87 -116zM128 348c58 0 87 47 87 116c0 61 -16 130 -47 176l-108 -263
c19 -18 41 -29 68 -29z" />
    <glyph glyph-name="zero.dnom.zero" horiz-adv-x="315" 
d="M188 -10c-109 0 -153 137 -153 246c0 80 36 134 107 134c109 0 153 -137 153 -246c0 -80 -36 -134 -107 -134zM55 236c0 -65 17 -139 52 -185l108 266c-19 21 -44 35 -73 35c-58 0 -87 -47 -87 -116zM188 8c58 0 87 47 87 116c0 61 -16 130 -47 176l-108 -263
c19 -18 41 -29 68 -29z" />
    <glyph glyph-name="zero.tf.zero" 
d="M505 243c0 -150 -64 -253 -199 -253c-199 0 -281 258 -281 467c0 150 64 253 199 253c199 0 281 -258 281 -467zM485 243c0 128 -33 278 -105 368l-218 -537c38 -41 85 -66 144 -66c120 0 179 92 179 235zM45 457c0 -129 32 -279 104 -369l218 538c-37 41 -85 66 -143 66
c-120 0 -179 -92 -179 -235z" />
    <glyph glyph-name="a.ss01" horiz-adv-x="496" 
d="M396 224l-8 42c-10 52 -22 83 -41 106c-25 32 -65 50 -119 50c-63 0 -111 -33 -135 -56l-13 12c23 25 82 62 148 62c56 0 103 -16 134 -56c20 -24 35 -57 46 -119l46 -265h-19l-16 92c-26 -58 -87 -102 -169 -102c-91 0 -168 57 -168 144s86 134 170 134
c54 0 100 -15 144 -44zM413 126l-12 73c-50 36 -98 51 -149 51c-82 0 -150 -48 -150 -116c0 -82 76 -126 148 -126c89 0 149 57 163 118z" />
    <glyph glyph-name="agrave.ss01" horiz-adv-x="496" 
d="M142 640h22l97 -130h-22zM396 224l-8 42c-10 52 -22 83 -41 106c-25 32 -65 50 -119 50c-63 0 -111 -33 -135 -56l-13 12c23 25 82 62 148 62c56 0 103 -16 134 -56c20 -24 35 -57 46 -119l46 -265h-19l-16 92c-26 -58 -87 -102 -169 -102c-91 0 -168 57 -168 144
s86 134 170 134c54 0 100 -15 144 -44zM413 126l-12 73c-50 36 -98 51 -149 51c-82 0 -150 -48 -150 -116c0 -82 76 -126 148 -126c89 0 149 57 163 118z" />
    <glyph glyph-name="aacute.ss01" horiz-adv-x="496" 
d="M311 640h22l-97 -130h-22zM396 224l-8 42c-10 52 -22 83 -41 106c-25 32 -65 50 -119 50c-63 0 -111 -33 -135 -56l-13 12c23 25 82 62 148 62c56 0 103 -16 134 -56c20 -24 35 -57 46 -119l46 -265h-19l-16 92c-26 -58 -87 -102 -169 -102c-91 0 -168 57 -168 144
s86 134 170 134c54 0 100 -15 144 -44zM413 126l-12 73c-50 36 -98 51 -149 51c-82 0 -150 -48 -150 -116c0 -82 76 -126 148 -126c89 0 149 57 163 118z" />
    <glyph glyph-name="acircumflex.ss01" horiz-adv-x="496" 
d="M186 640h31l125 -130h-28l-113 118l-72 -118h-22zM396 224l-8 42c-10 52 -22 83 -41 106c-25 32 -65 50 -119 50c-63 0 -111 -33 -135 -56l-13 12c23 25 82 62 148 62c56 0 103 -16 134 -56c20 -24 35 -57 46 -119l46 -265h-19l-16 92c-26 -58 -87 -102 -169 -102
c-91 0 -168 57 -168 144s86 134 170 134c54 0 100 -15 144 -44zM413 126l-12 73c-50 36 -98 51 -149 51c-82 0 -150 -48 -150 -116c0 -82 76 -126 148 -126c89 0 149 57 163 118z" />
    <glyph glyph-name="atilde.ss01" horiz-adv-x="496" 
d="M341 608l19 -3c-6 -46 -30 -72 -67 -72c-54 0 -99 59 -146 59c-34 0 -45 -32 -48 -57l-19 3c6 46 30 72 67 72c54 0 99 -59 146 -59c34 0 45 32 48 57zM396 224l-8 42c-10 52 -22 83 -41 106c-25 32 -65 50 -119 50c-63 0 -111 -33 -135 -56l-13 12c23 25 82 62 148 62
c56 0 103 -16 134 -56c20 -24 35 -57 46 -119l46 -265h-19l-16 92c-26 -58 -87 -102 -169 -102c-91 0 -168 57 -168 144s86 134 170 134c54 0 100 -15 144 -44zM413 126l-12 73c-50 36 -98 51 -149 51c-82 0 -150 -48 -150 -116c0 -82 76 -126 148 -126c89 0 149 57 163 118
z" />
    <glyph glyph-name="adieresis.ss01" horiz-adv-x="496" 
d="M122 570c0 17 13 30 30 30s30 -13 30 -30s-13 -30 -30 -30s-30 13 -30 30zM262 570c0 17 13 30 30 30s30 -13 30 -30s-13 -30 -30 -30s-30 13 -30 30zM396 224l-8 42c-10 52 -22 83 -41 106c-25 32 -65 50 -119 50c-63 0 -111 -33 -135 -56l-13 12c23 25 82 62 148 62
c56 0 103 -16 134 -56c20 -24 35 -57 46 -119l46 -265h-19l-16 92c-26 -58 -87 -102 -169 -102c-91 0 -168 57 -168 144s86 134 170 134c54 0 100 -15 144 -44zM413 126l-12 73c-50 36 -98 51 -149 51c-82 0 -150 -48 -150 -116c0 -82 76 -126 148 -126c89 0 149 57 163 118
z" />
    <glyph glyph-name="aring.ss01" horiz-adv-x="496" 
d="M147 590c0 44 36 80 80 80s80 -36 80 -80s-36 -80 -80 -80s-80 36 -80 80zM165 590c0 -34 28 -62 62 -62s62 28 62 62s-28 62 -62 62s-62 -28 -62 -62zM396 224l-8 42c-10 52 -22 83 -41 106c-25 32 -65 50 -119 50c-63 0 -111 -33 -135 -56l-13 12c23 25 82 62 148 62
c56 0 103 -16 134 -56c20 -24 35 -57 46 -119l46 -265h-19l-16 92c-26 -58 -87 -102 -169 -102c-91 0 -168 57 -168 144s86 134 170 134c54 0 100 -15 144 -44zM413 126l-12 73c-50 36 -98 51 -149 51c-82 0 -150 -48 -150 -116c0 -82 76 -126 148 -126c89 0 149 57 163 118
z" />
    <glyph glyph-name="ae.ss01" horiz-adv-x="857" 
d="M797 75l13 -14c-37 -39 -95 -71 -173 -71c-84 0 -156 36 -200 107l17 -97h-19l-16 92c-26 -58 -87 -102 -169 -102c-91 0 -168 57 -168 144s86 134 170 134c54 0 100 -15 144 -44l-8 42c-10 52 -22 83 -41 106c-25 32 -65 50 -119 50c-63 0 -111 -33 -135 -56l-13 12
c23 25 82 62 148 62c56 0 103 -16 134 -56c19 -23 33 -53 44 -108c19 95 94 164 193 164c116 0 202 -92 213 -212h-393c0 -132 98 -220 218 -220c71 0 124 30 160 67zM413 126l-12 73c-50 36 -98 51 -149 51c-82 0 -150 -48 -150 -116c0 -82 76 -126 148 -126
c89 0 149 57 163 118zM599 422c-98 0 -170 -76 -179 -176h370c-18 101 -93 176 -191 176z" />
    <glyph glyph-name="f.ss02" horiz-adv-x="392" 
d="M312 701l-8 -17c-23 12 -44 18 -75 18c-69 0 -115 -45 -115 -104c0 -23 5 -50 12 -92l13 -76h215l3 -18h-215l73 -412h-19l-73 412h-140l-3 18h140l-13 76c-7 38 -12 70 -12 92c0 75 58 122 134 122c38 0 65 -9 83 -19z" />
    <glyph glyph-name="j.ss02" horiz-adv-x="242" 
d="M117 430l88 -499c4 -22 7 -43 7 -64c0 -58 -35 -117 -122 -117c-26 0 -54 8 -68 16l7 17c18 -8 36 -15 61 -15c69 0 102 44 102 99c0 20 -2 42 -6 63l-88 500h19zM110 590c0 -17 -13 -30 -30 -30s-30 13 -30 30s13 30 30 30s30 -13 30 -30z" />
    <glyph glyph-name="r.ss02" horiz-adv-x="337" 
d="M277 439l-3 -18c-7 1 -11 1 -15 1c-83 0 -135 -45 -159 -112l54 -310h-19l-76 430h19l16 -90c35 75 102 100 165 100c6 0 11 0 18 -1z" />
    <glyph glyph-name="t.ss02" horiz-adv-x="446" 
d="M111 560h19l24 -130h235l3 -18h-235l42 -241c8 -43 14 -67 24 -87c24 -45 64 -76 128 -76c36 0 63 8 81 18l9 -16c-17 -9 -44 -20 -90 -20c-73 0 -122 39 -147 91c-10 22 -16 46 -24 90l-42 241h-140l-3 18h140z" />
    <glyph glyph-name="uniFB00.ss02" horiz-adv-x="784" 
d="M704 701l-8 -17c-23 12 -44 18 -75 18c-69 0 -115 -45 -115 -104c0 -23 5 -50 12 -92l13 -76h215l3 -18h-215l73 -412h-19l-73 412h-373l73 -412h-19l-73 412h-140l-3 18h140l-13 76c-7 38 -12 70 -12 92c0 75 58 122 134 122c38 0 65 -9 83 -19l-8 -17
c-23 12 -44 18 -75 18c-69 0 -115 -45 -115 -104c0 -23 5 -50 12 -92l13 -76h373l-13 76c-7 38 -12 70 -12 92c0 75 58 122 134 122c38 0 65 -9 83 -19z" />
    <glyph glyph-name="fi.ss02" horiz-adv-x="603" 
d="M475 430l76 -430h-19l-73 412h-317l73 -412h-19l-73 412h-140l-3 18h140l-13 76c-7 38 -12 70 -12 92c0 75 58 122 134 122c38 0 65 -9 83 -19l-8 -17c-23 12 -44 18 -75 18c-69 0 -115 -45 -115 -104c0 -23 5 -50 12 -92l13 -76h336zM468 590c0 -17 -13 -30 -30 -30
s-30 13 -30 30s13 30 30 30s30 -13 30 -30z" />
    <glyph glyph-name="fl.ss02" horiz-adv-x="603" 
d="M312 701l-8 -17c-23 12 -44 18 -75 18c-69 0 -115 -45 -115 -104c0 -23 5 -50 12 -92l13 -76h317l-49 280h19l125 -710h-19l-73 412h-317l73 -412h-19l-73 412h-140l-3 18h140l-13 76c-7 38 -12 70 -12 92c0 75 58 122 134 122c38 0 65 -9 83 -19z" />
    <glyph glyph-name="uniFB03.ss02" horiz-adv-x="995" 
d="M860 590c0 -17 -13 -30 -30 -30s-30 13 -30 30s13 30 30 30s30 -13 30 -30zM867 430l76 -430h-19l-73 412h-317l73 -412h-19l-73 412h-373l73 -412h-19l-73 412h-140l-3 18h140l-13 76c-7 38 -12 70 -12 92c0 75 58 122 134 122c38 0 65 -9 83 -19l-8 -17
c-23 12 -44 18 -75 18c-69 0 -115 -45 -115 -104c0 -23 5 -50 12 -92l13 -76h373l-13 76c-7 38 -12 70 -12 92c0 75 58 122 134 122c38 0 65 -9 83 -19l-8 -17c-23 12 -44 18 -75 18c-69 0 -115 -45 -115 -104c0 -23 5 -50 12 -92l13 -76h336z" />
    <glyph glyph-name="uniFB04.ss02" horiz-adv-x="995" 
d="M924 0l-73 412h-317l73 -412h-19l-73 412h-373l73 -412h-19l-73 412h-140l-3 18h140l-13 76c-7 38 -12 70 -12 92c0 75 58 122 134 122c38 0 65 -9 83 -19l-8 -17c-23 12 -44 18 -75 18c-69 0 -115 -45 -115 -104c0 -23 5 -50 12 -92l13 -76h373l-13 76
c-7 38 -12 70 -12 92c0 75 58 122 134 122c38 0 65 -9 83 -19l-8 -17c-23 12 -44 18 -75 18c-69 0 -115 -45 -115 -104c0 -23 5 -50 12 -92l13 -76h317l-49 280h19l125 -710h-19z" />
    <glyph glyph-name="parenleft.ss03" horiz-adv-x="415" 
d="M311 2l-16 -12c-93 135 -152 289 -152 463c0 90 15 178 43 257l19 -7c-27 -78 -42 -162 -42 -250c0 -169 57 -319 148 -451z" />
    <glyph glyph-name="parenright.ss03" horiz-adv-x="415" 
d="M60 698l16 12c93 -135 152 -289 152 -463c0 -90 -15 -178 -43 -257l-19 7c27 78 42 162 42 250c0 169 -57 319 -148 451z" />
    <glyph glyph-name="bracketleft.ss03" horiz-adv-x="415" 
d="M212 0l-124 700h204l3 -18h-185l118 -664h185l3 -18h-204z" />
    <glyph glyph-name="bracketright.ss03" horiz-adv-x="415" 
d="M160 700l124 -700h-204l-3 18h185l-118 664h-185l-3 18h204z" />
    <glyph glyph-name="braceleft.ss03" horiz-adv-x="415" 
d="M157 407c0 -26 -15 -47 -32 -55c18 -6 34 -20 43 -36c8 -15 13 -34 17 -56l18 -102c7 -42 15 -68 29 -88c25 -36 67 -52 137 -52h15l3 -18h-15c-78 0 -125 18 -154 58c-16 22 -26 52 -34 99l-18 103c-5 26 -11 46 -23 59c-11 12 -28 19 -51 21l-3 20c37 4 49 23 49 50
c0 12 -4 30 -7 50l-14 82c-2 13 -4 27 -4 40c0 66 41 118 136 118h15l3 -18h-15c-89 0 -120 -44 -120 -101c0 -12 2 -26 4 -40l14 -81c4 -22 7 -39 7 -53z" />
    <glyph glyph-name="bar.ss03" horiz-adv-x="150" 
d="M106 0l-123 700h19l123 -700h-19z" />
    <glyph glyph-name="braceright.ss03" horiz-adv-x="415" 
d="M216 293c0 26 15 47 32 55c-18 6 -34 20 -43 36c-8 15 -13 34 -17 56l-18 102c-7 42 -15 68 -29 88c-25 36 -67 52 -137 52h-15l-3 18h15c78 0 125 -18 154 -58c16 -22 26 -52 34 -99l18 -103c5 -26 11 -46 23 -59c11 -12 28 -19 51 -21l3 -20c-37 -4 -49 -23 -49 -50
c0 -12 4 -30 7 -50l14 -82c2 -13 4 -27 4 -40c0 -66 -41 -118 -136 -118h-15l-3 18h15c89 0 120 44 120 101c0 12 -2 26 -4 40l-14 81c-4 22 -7 39 -7 53z" />
    <glyph glyph-name="endash.ss04" horiz-adv-x="1040" 
d="M21 258h990l3 -18h-990z" />
    <glyph glyph-name="emdash.ss04" horiz-adv-x="1340" 
d="M21 258h1290l3 -18h-1290z" />
    <glyph glyph-name="endash.case.ss04" horiz-adv-x="1040" 
d="M-4 400h990l3 -18h-990z" />
    <glyph glyph-name="emdash.case.ss04" horiz-adv-x="1340" 
d="M-4 400h1290l3 -18h-1290z" />
    <glyph glyph-name="asterisk.ss05" horiz-adv-x="490" 
d="M196 493l-135 -86l-11 17l133 85l-164 86l9 18l161 -84l-30 171h19l31 -174l135 87l11 -17l-132 -85l164 -86l-9 -18l-163 85l30 -172h-19z" />
    <glyph glyph-name="asterisk.ss06" horiz-adv-x="490" 
d="M245 320h-19l-35 196l-176 -61l-6 18l170 58l-141 161l14 12l139 -159l91 159l16 -9l-90 -159l205 -64l-6 -17l-198 62z" />
    <glyph glyph-name="asterisk.ss07" horiz-adv-x="490" 
d="M10 501l-3 18h175l-112 146l16 12l114 -146l60 146l19 -8l-62 -150h175l3 -18h-175l112 -146l-16 -12l-114 146l-60 -146l-19 8l62 150h-175z" />
    <glyph glyph-name="asterisk.ss08" horiz-adv-x="490" 
d="M316 343l-108 138l18 12l106 -138zM176 527l-105 138l15 12l108 -138zM123 351l59 142l17 -12l-57 -138zM204 539l56 138l19 -8l-58 -142zM227 519h165l3 -18h-165zM175 501h-165l-3 18h165z" />
    <glyph glyph-name="asterisk.ss09" horiz-adv-x="490" 
d="M224 320l-32 180h19l32 -180h-19zM157 700h19l32 -180h-19zM392 519l3 -18h-183l-3 18h183zM10 501l-3 18h181l3 -18h-181zM186 479l-98 -118l-14 11l98 119zM59 641l115 -98l-12 -14l-115 98zM341 379l-115 98l12 14l115 -98zM215 541l97 118l14 -11l-97 -119z" />
    <glyph glyph-name="f_f_i.ss02" horiz-adv-x="995" 
d="M860 590c0 -17 -13 -30 -30 -30s-30 13 -30 30s13 30 30 30s30 -13 30 -30zM867 430l76 -430h-19l-73 412h-317l73 -412h-19l-73 412h-373l73 -412h-19l-73 412h-140l-3 18h140l-13 76c-7 38 -12 70 -12 92c0 75 58 122 134 122c38 0 65 -9 83 -19l-8 -17
c-23 12 -44 18 -75 18c-69 0 -115 -45 -115 -104c0 -23 5 -50 12 -92l13 -76h373l-13 76c-7 38 -12 70 -12 92c0 75 58 122 134 122c38 0 65 -9 83 -19l-8 -17c-23 12 -44 18 -75 18c-69 0 -115 -45 -115 -104c0 -23 5 -50 12 -92l13 -76h336z" />
    <glyph glyph-name="f_f.ss02" horiz-adv-x="784" 
d="M704 701l-8 -17c-23 12 -44 18 -75 18c-69 0 -115 -45 -115 -104c0 -23 5 -50 12 -92l13 -76h215l3 -18h-215l73 -412h-19l-73 412h-373l73 -412h-19l-73 412h-140l-3 18h140l-13 76c-7 38 -12 70 -12 92c0 75 58 122 134 122c38 0 65 -9 83 -19l-8 -17
c-23 12 -44 18 -75 18c-69 0 -115 -45 -115 -104c0 -23 5 -50 12 -92l13 -76h373l-13 76c-7 38 -12 70 -12 92c0 75 58 122 134 122c38 0 65 -9 83 -19z" />
    <glyph glyph-name="f_l.ss02" horiz-adv-x="603" 
d="M312 701l-8 -17c-23 12 -44 18 -75 18c-69 0 -115 -45 -115 -104c0 -23 5 -50 12 -92l13 -76h317l-49 280h19l125 -710h-19l-73 412h-317l73 -412h-19l-73 412h-140l-3 18h140l-13 76c-7 38 -12 70 -12 92c0 75 58 122 134 122c38 0 65 -9 83 -19z" />
    <glyph glyph-name="f_i.ss02" horiz-adv-x="603" 
d="M475 430l76 -430h-19l-73 412h-317l73 -412h-19l-73 412h-140l-3 18h140l-13 76c-7 38 -12 70 -12 92c0 75 58 122 134 122c38 0 65 -9 83 -19l-8 -17c-23 12 -44 18 -75 18c-69 0 -115 -45 -115 -104c0 -23 5 -50 12 -92l13 -76h336zM468 590c0 -17 -13 -30 -30 -30
s-30 13 -30 30s13 30 30 30s30 -13 30 -30z" />
    <glyph glyph-name="f_f_l.ss02" horiz-adv-x="995" 
d="M924 0l-73 412h-317l73 -412h-19l-73 412h-373l73 -412h-19l-73 412h-140l-3 18h140l-13 76c-7 38 -12 70 -12 92c0 75 58 122 134 122c38 0 65 -9 83 -19l-8 -17c-23 12 -44 18 -75 18c-69 0 -115 -45 -115 -104c0 -23 5 -50 12 -92l13 -76h373l-13 76
c-7 38 -12 70 -12 92c0 75 58 122 134 122c38 0 65 -9 83 -19l-8 -17c-23 12 -44 18 -75 18c-69 0 -115 -45 -115 -104c0 -23 5 -50 12 -92l13 -76h317l-49 280h19l125 -710h-19z" />
    <glyph glyph-name="uni00AD.case" horiz-adv-x="410" 
d="M56 359h240l3 -18h-240z" />
    <glyph glyph-name="space.frac" horiz-adv-x="50" 
 />
    <glyph glyph-name="uni200B" unicode="&#x200b;" horiz-adv-x="0" 
 />
    <glyph glyph-name="uni2008" unicode="&#x2008;" horiz-adv-x="270" 
 />
    <glyph glyph-name="uni2007" unicode="&#x2007;" horiz-adv-x="590" 
 />
    <glyph glyph-name="uni2007.tf" 
 />
    </font>
</defs>
</svg>
