<?xml version="1.0" encoding="UTF-8"?>
<svg width="24px" height="24px" viewBox="0 0 24 24" version="1.1" xmlns="http://www.w3.org/2000/svg" xmlns:xlink="http://www.w3.org/1999/xlink">
    <!-- Generator: Sketch 52.3 (67297) - http://www.bohemiancoding.com/sketch -->
    <title>Desktop_icon/instagram</title>
    <desc>Created with Sketch.</desc>
    <g id="Desktop" stroke="none" stroke-width="1" fill="none" fill-rule="evenodd">
        <g id="1WSQ-Desktop-Home" transform="translate(-1385.000000, -845.000000)" fill="#FFFFFF">
            <g id="secondary-nav" transform="translate(1384.000000, 80.000000)">
                <path d="M20.8456563,770.594344 C20.8456563,771.389625 20.2009375,772.034344 19.4056562,772.034344 C18.610375,772.034344 17.9655625,771.389625 17.9655625,770.594344 C17.9655625,769.799062 18.610375,769.154344 19.4056562,769.154344 C20.2009375,769.154344 20.8456563,769.799062 20.8456563,770.594344 M13,781.000031 C10.790875,781.000031 8.99996875,779.209125 8.99996875,777 C8.99996875,774.790875 10.790875,772.999969 13,772.999969 C15.209125,772.999969 17.0000312,774.790875 17.0000312,777 C17.0000312,779.209125 15.209125,781.000031 13,781.000031 M13,770.837813 C9.59678125,770.837813 6.8378125,773.596688 6.8378125,777 C6.8378125,780.403219 9.59678125,783.162187 13,783.162187 C16.4032188,783.162187 19.1621875,780.403219 19.1621875,777 C19.1621875,773.596688 16.4032188,770.837813 13,770.837813 M13,765 C9.74096875,765 9.33240625,765.013781 8.0524375,765.072188 C6.7751875,765.1305 5.90284375,765.333281 5.13953125,765.63 C4.3504375,765.936656 3.68125,766.347 3.014125,767.014125 C2.347,767.681156 1.93665625,768.350344 1.63,769.139531 C1.333375,769.902844 1.1305,770.775094 1.0721875,772.052437 C1.01378125,773.332312 1,773.740969 1,777 C1,780.259031 1.01378125,780.667688 1.0721875,781.947563 C1.1305,783.224812 1.333375,784.097156 1.63,784.860469 C1.93665625,785.649469 2.347,786.31875 3.014125,786.985875 C3.68125,787.653 4.3504375,788.063344 5.13953125,788.37 C5.90284375,788.666719 6.7751875,788.8695 8.0524375,788.927812 C9.33240625,788.986219 9.74096875,789 13,789 C16.2590312,789 16.6677813,788.986219 17.9475625,788.927812 C19.2249063,788.8695 20.0971563,788.666719 20.8604687,788.37 C21.6495625,788.063344 22.3188437,787.653 22.9859688,786.985875 C23.653,786.31875 24.0633438,785.649563 24.3700938,784.860469 C24.6667188,784.097156 24.8695,783.224812 24.9278125,781.947563 C24.9862187,780.667688 25,780.259031 25,777 C25,773.740969 24.9862187,773.332312 24.9278125,772.052437 C24.8695,770.775094 24.6667188,769.902844 24.3700938,769.139531 C24.0633438,768.350344 23.653,767.681156 22.9859688,767.014125 C22.3188437,766.347 21.6495625,765.936656 20.8604687,765.63 C20.0971563,765.333281 19.2249063,765.1305 17.9475625,765.072188 C16.6677813,765.013781 16.2590312,765 13,765 M13,767.162156 C16.2041875,767.162156 16.5836875,767.174344 17.8490313,767.232094 C19.0190313,767.285531 19.654375,767.481 20.077375,767.64525 C20.6373437,767.862938 21.0371875,768.123094 21.457,768.542906 C21.877,768.962813 22.1369688,769.362656 22.35475,769.922719 C22.5190937,770.345625 22.7145625,770.981063 22.7679062,772.150969 C22.8256563,773.416313 22.8378438,773.795813 22.8378438,777 C22.8378438,780.204094 22.8256563,780.583594 22.7679062,781.848938 C22.7145625,783.019031 22.5190937,783.654375 22.35475,784.077281 C22.1369688,784.637344 21.877,785.037094 21.457,785.457094 C21.0371875,785.876906 20.6373437,786.137062 20.077375,786.354656 C19.654375,786.519 19.0190313,786.714469 17.8490313,786.767906 C16.583875,786.825563 16.204375,786.83775 13,786.83775 C9.79571875,786.83775 9.416125,786.825563 8.15096875,786.767906 C6.9810625,786.714469 6.345625,786.519 5.9228125,786.354656 C5.36265625,786.137062 4.9628125,785.876906 4.54290625,785.457094 C4.12309375,785.037094 3.86303125,784.637344 3.64534375,784.077281 C3.481,783.654375 3.28553125,783.019031 3.2321875,781.849031 C3.17434375,780.583594 3.16215625,780.204094 3.16215625,777 C3.16215625,773.795813 3.17434375,773.416313 3.2321875,772.150969 C3.28553125,770.981063 3.481,770.345625 3.64534375,769.922719 C3.86303125,769.362656 4.12309375,768.962813 4.54290625,768.542906 C4.9628125,768.123094 5.36265625,767.862938 5.9228125,767.64525 C6.345625,767.481 6.9810625,767.285531 8.15096875,767.232094 C9.4163125,767.174344 9.79590625,767.162156 13,767.162156" id="icon/instagram"></path>
            </g>
        </g>
    </g>
</svg>