<svg id="Layer_1" data-name="Layer 1" xmlns="http://www.w3.org/2000/svg" viewBox="0 0 878.02 217.38"><defs><style>.cls-1{fill:#fff;}</style></defs><title>1WSQ_cbre_v1</title><path class="cls-1" d="M278.66,73.4c-.16,1.91-.35,3.21-.35,4.51q0,103.74-.1,207.48c0,4.1,1.44,5,5.19,5,37.16-.11,74.33,0,111.49-.1,17.74-.05,34.8-3.3,50.38-12.3,31.42-18.13,38.31-60.84,13.55-86.07-5.26-5.36-12.08-9.17-18.34-13.81l4.45-2.09c14.16-6.63,22.82-17.66,25.3-33.06A95.87,95.87,0,0,0,471.29,123c-.85-17-9.28-29.53-24.05-37.82-16.5-9.27-34.69-11.53-53.1-11.71-36.66-.36-73.32-.11-110-.11Zm501.68,46.8H918V73.79H728.07V290.61H918v-49H786.76c-6.41,0-6.42,0-6.42-6.6,0-8.5.32-17-.12-25.49-.27-5.11,1.29-6.45,6.37-6.42,37.15.21,74.31.12,111.47.11,6.66,0,6.67,0,6.67-6.88q0-16.75,0-33.5c0-6.61,0-6.63-6.44-6.63H787.82c-1.5,0-3.16.37-4.46-.15s-2.87-1.9-2.89-2.93C780.26,142.44,780.34,131.79,780.34,120.2ZM693.12,290.7c0-25.59.53-50.74-.24-75.85-.34-11.24-6.74-20.48-15.76-27.33-4.32-3.28-9.17-5.86-14-8.91,1.07-.59,2-1.17,3-1.66,16.28-7.95,25.79-21,27.55-38.91,2.49-25.45-6.33-45.61-29.23-55.89C649.21,75.31,633,73.8,616.6,73.69c-36.49-.25-73-.08-109.47-.08h-5.54v217h51.83v-6.33c0-25.32.11-50.65-.1-76,0-4.47,1.32-5.61,5.67-5.54,16.49.25,33,.75,49.47-.08,17.86-.89,34.46,12,34,34-.31,16-.06,32-.06,48v6.09ZM244.23,239c-1.82-.1-3.44-.29-5.06-.27-15.5.17-31,.82-46.47.45-18.47-.44-37.06-.56-55.32-3-22.9-3-39.21-20.11-44.32-43.22C88,170,96.08,147.66,114,134.88c13.49-9.65,28.91-12.32,45-12.42,26.49-.16,53-.14,79.48-.21,1.91,0,3.82-.16,5.58-.24V74.3c-34.94,0-69.42-.59-103.87.2-24.69.56-46.25,10.22-64.51,27-52.52,48.31-46,131.92,13.23,169.8,22,14.08,46.91,17.7,72.2,18.51,25.81.83,51.66.37,77.49.45,1.78,0,3.56-.16,5.69-.27Z" transform="translate(-39.99 -73.32)"/><path d="M278.66,73.4h5.5c36.66,0,73.32-.25,110,.11,18.41.18,36.6,2.44,53.1,11.71C462,93.51,470.44,106,471.29,123a95.87,95.87,0,0,1-1.06,19.88c-2.48,15.4-11.14,26.43-25.3,33.06l-4.45,2.09c6.26,4.64,13.08,8.45,18.34,13.81,24.76,25.23,17.87,67.94-13.55,86.07-15.58,9-32.64,12.25-50.38,12.3-37.16.1-74.33,0-111.49.1-3.75,0-5.2-.86-5.19-5q.18-103.74.1-207.48C278.31,76.61,278.5,75.31,278.66,73.4Zm91.27,166.89h34c10.12-.26,18.55-8.58,18.68-18.44a18.26,18.26,0,0,0-18.26-18.61c-23-.19-45.95,0-68.93-.11-3.35,0-4.25,1.29-4.2,4.45q.22,14.22,0,28.46c-.06,3.25,1,4.35,4.28,4.31C347,240.19,358.44,240.29,369.93,240.29Zm-38.66-83.93c2.28.1,3.75.23,5.23.23q33.94-.09,67.89-.21c10.18,0,18.7-8.27,18.83-18.12.13-10.39-7.94-18.19-19-18.22-11.81,0-23.63,0-35.44,0-11,0-22,0-32.95,0-2.06,0-4.62-.6-4.62,2.87C331.28,133.87,331.27,144.82,331.27,156.36Z" transform="translate(-39.99 -73.32)"/><path d="M780.34,120.2c0,11.59-.08,22.24.13,32.88,0,1,1.69,2.45,2.89,2.93s3,.15,4.46.15H898.29c6.42,0,6.43,0,6.44,6.63q0,16.76,0,33.5c0,6.87,0,6.88-6.67,6.88-37.16,0-74.32.1-111.47-.11-5.08,0-6.64,1.31-6.37,6.42.44,8.48.11,17,.12,25.49,0,6.59,0,6.6,6.42,6.6H918v49H728.07V73.79H918V120.2Z" transform="translate(-39.99 -73.32)"/><path d="M693.12,290.7h-50.7v-6.09c0-16-.25-32,.06-48,.44-22-16.16-34.86-34-34-16.45.83-33,.33-49.47.08-4.35-.07-5.7,1.07-5.67,5.54.21,25.32.1,50.65.1,76v6.33H501.59v-217h5.54c36.49,0,73-.17,109.47.08,16.36.11,32.61,1.62,47.85,8.46,22.9,10.28,31.72,30.44,29.23,55.89-1.76,18-11.27,31-27.55,38.91-1,.49-2,1.07-3,1.66,4.85,3,9.7,5.63,14,8.91,9,6.85,15.42,16.09,15.76,27.33C693.65,240,693.12,265.11,693.12,290.7ZM593.18,120.79c-12,0-24,.06-35.94,0-2.92,0-4.17.8-4.12,3.94.16,9.15.13,18.31,0,27.46,0,2.84.67,4.21,3.88,4.2,23.63-.11,47.27.12,70.9-.17a17.65,17.65,0,0,0,17.63-18.43c-.33-9.89-7.86-16.88-18.41-16.94C615.82,120.74,604.5,120.79,593.18,120.79Z" transform="translate(-39.99 -73.32)"/><path d="M244.23,239v51c-2.13.11-3.91.28-5.69.27-25.83-.08-51.68.38-77.49-.45-25.29-.81-50.18-4.43-72.2-18.51C29.59,233.43,23.1,149.82,75.62,101.51c18.26-16.79,39.82-26.45,64.51-27,34.45-.79,68.93-.2,103.87-.2V122c-1.76.08-3.67.23-5.58.24-26.49.07-53,0-79.48.21-16.08.1-31.5,2.77-45,12.42C96.08,147.66,88,170,93.06,193c5.11,23.11,21.42,40.2,44.32,43.22,18.26,2.42,36.85,2.54,55.32,3,15.47.37,31-.28,46.47-.45C240.79,238.68,242.41,238.87,244.23,239Z" transform="translate(-39.99 -73.32)"/><path class="cls-1" d="M369.93,240.29c-11.49,0-23-.1-34.46.06-3.28,0-4.34-1.06-4.28-4.31q.24-14.22,0-28.46c-.05-3.16.85-4.47,4.2-4.45,23,.1,46-.08,68.93.11a18.26,18.26,0,0,1,18.26,18.61c-.13,9.86-8.56,18.18-18.68,18.44h-34Z" transform="translate(-39.99 -73.32)"/><path class="cls-1" d="M331.27,156.36c0-11.54,0-22.49,0-33.43,0-3.47,2.56-2.87,4.62-2.87,11,0,22,0,32.95,0,11.81,0,23.63,0,35.44,0,11,0,19.08,7.83,19,18.22-.13,9.85-8.65,18.08-18.83,18.12q-33.94.15-67.89.21C335,156.59,333.55,156.46,331.27,156.36Z" transform="translate(-39.99 -73.32)"/><path class="cls-1" d="M593.18,120.79c11.32,0,22.64-.05,34,0,10.55.06,18.08,7,18.41,16.94a17.65,17.65,0,0,1-17.63,18.43c-23.63.29-47.27.06-70.9.17-3.21,0-3.91-1.36-3.88-4.2.11-9.15.14-18.31,0-27.46,0-3.14,1.2-4,4.12-3.94C569.22,120.85,581.2,120.79,593.18,120.79Z" transform="translate(-39.99 -73.32)"/></svg>