<?xml version="1.0" encoding="UTF-8"?>
<svg width="26px" height="25px" viewBox="0 0 26 25" version="1.1" xmlns="http://www.w3.org/2000/svg" xmlns:xlink="http://www.w3.org/1999/xlink">
    <!-- Generator: Sketch 52.6 (67491) - http://www.bohemiancoding.com/sketch -->
    <title>Desktop_icon/car-black copy 3</title>
    <desc>Created with Sketch.</desc>
    <g id="Desktop" stroke="none" stroke-width="1" fill="none" fill-rule="evenodd" stroke-linecap="round">
        <g id="1WSQ-Desktop-Neighborhood-Map-Zoom" transform="translate(-1149.000000, -924.000000)" stroke="#000000">
            <g id="times---accordion-vert" transform="translate(1116.000000, 313.000000)">
                <g id="airports-car" transform="translate(0.000000, 554.000000)">
                    <g id="icon/car-black" transform="translate(34.000000, 58.000000)">
                        <g id="icon/car">
                            <polygon id="Stroke-1" stroke-width="0.953" points="2.09526857 6.094875 0.370697143 20.978625 23.6808686 20.978625 23.6808686 16.676625 17.71104 13.198875 17.71104 6.094875"></polygon>
                            <path d="M4.65332571,23.442225 C5.94384,23.442225 6.99024,22.297725 6.99024,20.886225 C6.99024,19.473975 5.94384,18.330225 4.65332571,18.330225 C3.36281143,18.330225 2.31709714,19.473975 2.31709714,20.886225 C2.31709714,22.297725 3.36281143,23.442225 4.65332571,23.442225 Z" id="Stroke-3" stroke-width="0.953"></path>
                            <path d="M19.4149714,23.442225 C20.7054857,23.442225 21.7518857,22.297725 21.7518857,20.886225 C21.7518857,19.473975 20.7054857,18.330225 19.4149714,18.330225 C18.1244571,18.330225 17.0780571,19.473975 17.0780571,20.886225 C17.0780571,22.297725 18.1244571,23.442225 19.4149714,23.442225 Z" id="Stroke-5" stroke-width="0.953"></path>
                            <path d="M13.8809829,9.7167 L5.21149714,9.7167" id="Stroke-7" stroke-width="0.953"></path>
                            <path d="M5.21184,12.825825 L13.88064,12.825825" id="Stroke-9" stroke-width="0.953"></path>
                            <polyline id="Stroke-11" stroke-width="0.953" points="15.7165029 5.545125 15.0623314 0.357375 8.44587429 0.357375 6.89341714 5.476875"></polyline>
                        </g>
                    </g>
                </g>
            </g>
        </g>
    </g>
</svg>