<?xml version="1.0" encoding="UTF-8"?>
<svg width="26px" height="26px" viewBox="0 0 26 26" version="1.1" xmlns="http://www.w3.org/2000/svg" xmlns:xlink="http://www.w3.org/1999/xlink">
    <!-- Generator: Sketch 52.6 (67491) - http://www.bohemiancoding.com/sketch -->
    <title>Desktop_icon/train-black copy 4</title>
    <desc>Created with Sketch.</desc>
    <g id="Desktop" stroke="none" stroke-width="1" fill="none" fill-rule="evenodd" stroke-linecap="round">
        <g id="1WSQ-Desktop-Neighborhood-Map-Zoom" transform="translate(-1147.000000, -384.000000)" stroke="#000000">
            <g id="times---accordion-vert" transform="translate(1116.000000, 313.000000)">
                <g id="manhattan-train-expanded">
                    <g id="icon/train-black" transform="translate(32.000000, 72.000000)">
                        <g id="icon/train">
                            <path d="M12.1354105,23.9707579 C18.6716211,23.9707579 23.9699368,18.6724421 23.9699368,12.1356 C23.9699368,5.60002105 18.6716211,0.301073684 12.1354105,0.301073684 C5.5992,0.301073684 0.300884211,5.60002105 0.300884211,12.1356 C0.300884211,18.6724421 5.5992,23.9707579 12.1354105,23.9707579 Z" id="Stroke-1" stroke-width="0.953"></path>
                            <polyline id="Stroke-3" stroke-width="0.953" points="6.26797895 5.26174737 6.26797895 16.1002737 18.0027158 16.1002737 18.0027158 5.26174737"></polyline>
                            <path d="M9.83816842,13.9854316 C10.3314316,13.9854316 10.7312211,13.5856421 10.7312211,13.0923789 C10.7312211,12.5991158 10.3314316,12.1993263 9.83816842,12.1993263 C9.34490526,12.1993263 8.94511579,12.5991158 8.94511579,13.0923789 C8.94511579,13.5856421 9.34490526,13.9854316 9.83816842,13.9854316 Z" id="Stroke-5" stroke-width="0.953"></path>
                            <path d="M14.4325895,13.9854316 C14.9258526,13.9854316 15.3256421,13.5856421 15.3256421,13.0923789 C15.3256421,12.5991158 14.9258526,12.1993263 14.4325895,12.1993263 C13.9393263,12.1993263 13.5395368,12.5991158 13.5395368,13.0923789 C13.5395368,13.5856421 13.9393263,13.9854316 14.4325895,13.9854316 Z" id="Stroke-7" stroke-width="0.953"></path>
                            <path d="M15.3256421,16.1004 L15.3256421,21.2742947" id="Stroke-9" stroke-width="0.953"></path>
                            <path d="M8.88650526,16.1004 L8.88650526,21.2742947" id="Stroke-11" stroke-width="0.953"></path>
                            <path d="M18.0027789,19.8432632 L6.19667368,19.8432632" id="Stroke-13" stroke-width="0.953"></path>
                            <path d="M15.6266526,6.44166316 L8.64391579,6.44166316" id="Stroke-15" stroke-width="0.953"></path>
                            <path d="M8.64442105,10.0707789 L15.6271579,10.0707789" id="Stroke-17" stroke-width="0.953"></path>
                            <path d="M18,5.22258947 C16.4191579,3.88048421 14.3715789,3.07016842 12.1351579,3.07016842 C9.89494737,3.07016842 7.84421053,3.88301053 6.26210526,5.23016842" id="Stroke-19" stroke-width="0.953"></path>
                        </g>
                    </g>
                </g>
            </g>
        </g>
    </g>
</svg>