<?xml version="1.0" encoding="UTF-8"?>
<svg width="21px" height="25px" viewBox="0 0 21 25" version="1.1" xmlns="http://www.w3.org/2000/svg" xmlns:xlink="http://www.w3.org/1999/xlink">
    <!-- Generator: Sketch 52.6 (67491) - http://www.bohemiancoding.com/sketch -->
    <title>Desktop_icon/walk-black copy 5</title>
    <desc>Created with Sketch.</desc>
    <g id="Desktop" stroke="none" stroke-width="1" fill="none" fill-rule="evenodd" stroke-linecap="round">
        <g id="1WSQ-Desktop-Neighborhood-Map-Zoom" transform="translate(-1147.000000, -820.000000)" stroke="#000000">
            <g id="times---accordion-vert" transform="translate(1116.000000, 313.000000)">
                <g id="brooklyn-walk" transform="translate(0.000000, 450.000000)">
                    <g id="icon/walk-black" transform="translate(32.000000, 58.000000)">
                        <g id="icon/walk">
                            <path d="M11.653037,23.6930118 L5.43896296,14.1988941" id="Stroke-1" stroke-width="0.953"></path>
                            <polyline id="Stroke-3" stroke-width="0.953" points="0.566888889 23.7477882 3.61651852 19.1475529 5.50096296 13.8336706 6.21651852 6.94496471"></polyline>
                            <polyline id="Stroke-5" stroke-width="0.953" points="6.12496296 6.95689412 1.82644444 9.7296 0.353111111 14.0418353"></polyline>
                            <path d="M11.9225185,13.8430588 L6.24918519,6.94376471" id="Stroke-8" stroke-width="0.953"></path>
                            <polygon id="Stroke-9" stroke-width="0.953" points="10.692 17.0746588 13.2601481 20.9167765 19.3082963 17.2447765 16.7394074 13.4033647"></polygon>
                            <path d="M6.61111111,4.88583529 C7.92962963,4.88583529 8.99777778,3.86724706 8.99777778,2.61148235 C8.99777778,1.35501176 7.92962963,0.336423529 6.61111111,0.336423529 C5.29259259,0.336423529 4.22444444,1.35501176 4.22444444,2.61148235 C4.22444444,3.86724706 5.29259259,4.88583529 6.61111111,4.88583529 Z" id="Stroke-11" stroke-width="0.953"></path>
                        </g>
                    </g>
                </g>
            </g>
        </g>
    </g>
</svg>