<svg xmlns="http://www.w3.org/2000/svg" viewBox="0 0 125.46 133.01"><defs><style>.cls-1,.cls-3{fill:none;stroke:#000;stroke-miterlimit:10;}.cls-2{font-size:6px;font-family:BrownStd-Regular, BrownStd;}.cls-3{stroke-width:0.5px;}</style></defs><title>1WSQ-keyplan</title><g id="Layer_2" data-name="Layer 2"><g id="Layer_1-2" data-name="Layer 1"><polygon class="cls-1" points="64.52 54.54 124.96 54.54 124.95 80.5 110.46 80.5 110.46 115.6 108.33 115.59 108.33 120.88 94.73 120.95 94.73 115.6 92.49 115.6 92.49 80.5 64.52 80.5 64.52 54.54"/><line class="cls-1" x1="93.23" y1="24.91" x2="64.9" y2="24.91"/><polyline class="cls-1" points="68.99 32.38 64.9 25.16 64.9 24.67 68.99 17.44"/><path d="M68,46.59a2.15,2.15,0,0,1-1.63.78,2.16,2.16,0,0,1,0-4.32,2,2,0,0,1,1.53.65l-.4.39a1.57,1.57,0,0,0-1.13-.47,1.59,1.59,0,0,0,0,3.18,1.45,1.45,0,0,0,1-.39V45.33h-1.2v-.57H68Z"/><path d="M71.1,43.05A2.16,2.16,0,1,1,69,45.21,2.09,2.09,0,0,1,71.1,43.05Zm0,3.75a1.59,1.59,0,1,0-1.49-1.59A1.51,1.51,0,0,0,71.1,46.8Z"/><path d="M74.91,46.74h1.86v.57H74.31v-4.2h.6Z"/><path d="M77.7,47.31v-4.2H79a2.31,2.31,0,0,1,1.44.39,2.15,2.15,0,0,1,.84,1.71,2.1,2.1,0,0,1-.84,1.7,2.31,2.31,0,0,1-1.44.4ZM80.13,44a1.7,1.7,0,0,0-1.2-.35H78.3v3.06h.63a1.7,1.7,0,0,0,1.2-.36,1.54,1.54,0,0,0,.51-1.17A1.56,1.56,0,0,0,80.13,44Z"/><path d="M84.08,46.26a1.32,1.32,0,0,0,1,.54.68.68,0,0,0,.73-.63c0-.64-.88-.72-1.44-1.08a1.08,1.08,0,0,1-.53-.93,1.18,1.18,0,0,1,1.27-1.11,1.69,1.69,0,0,1,1.12.42l-.35.44a1.13,1.13,0,0,0-.75-.29.62.62,0,0,0-.69.56c0,.54.89.65,1.43,1a1.11,1.11,0,0,1,.54,1,1.21,1.21,0,0,1-1.3,1.22,1.93,1.93,0,0,1-1.47-.7Z"/><path d="M87.11,43.11H90v.57H88.85v3.63h-.6V43.68H87.11Z"/><path d="M92.11,47.31l2-4.2h.59l-2,4.2Z"/><path d="M99.55,46.23H97.78l-.44,1.08h-.62l1.74-4.2h.42l1.74,4.2H100ZM98,45.66h1.3l-.65-1.56Z"/><path d="M102.11,46.74H104v.57h-2.46v-4.2h.6Z"/><path d="M104.9,47.31v-4.2h1.42a1.21,1.21,0,0,1,.87.29,1.12,1.12,0,0,1,.35.8,1.08,1.08,0,0,1-.33.75,1.27,1.27,0,0,1,.69,1.1,1.22,1.22,0,0,1-.47,1,1.27,1.27,0,0,1-.91.29Zm1.32-2.55c.33,0,.48-.07.57-.18a.51.51,0,0,0,.15-.36.54.54,0,0,0-.15-.37c-.09-.11-.24-.17-.57-.17h-.72v1.08Zm.19,2a.88.88,0,0,0,.69-.22.7.7,0,0,0,.2-.49.72.72,0,0,0-.2-.49.88.88,0,0,0-.69-.21h-.91v1.41Z"/><path d="M111,44.76v.57h-1.38v1.41h1.86v.57H109v-4.2h2.4v.57h-1.8v1.08Z"/><path d="M114.47,44.76v.57h-1.38v1.41H115v.57h-2.46v-4.2h2.4v.57h-1.8v1.08Z"/><path d="M117.82,46.26a1.32,1.32,0,0,0,1,.54.68.68,0,0,0,.73-.63c0-.64-.89-.72-1.44-1.08a1.08,1.08,0,0,1-.54-.93,1.18,1.18,0,0,1,1.27-1.11,1.69,1.69,0,0,1,1.13.42l-.35.44a1.13,1.13,0,0,0-.75-.29.63.63,0,0,0-.7.56c0,.54.9.65,1.44,1a1.11,1.11,0,0,1,.54,1,1.21,1.21,0,0,1-1.3,1.22,1.9,1.9,0,0,1-1.47-.7Z"/><path d="M123.05,43.05a2.1,2.1,0,0,1,2.1,2.16,2.23,2.23,0,0,1-.5,1.42l.61.68h-.74l-.28-.31a2.14,2.14,0,1,1-1.19-4Zm0,3.75a1.53,1.53,0,0,0,.8-.23l-1-1.12.42-.36,1,1.1a1.75,1.75,0,0,0,.3-1,1.5,1.5,0,1,0-1.5,1.59Z"/><path d="M9.26,82.92H8.84l-1.32-4.2h.62l.94,3,1-3h.42l1,3,.94-3h.61l-1.32,4.2h-.42l-1-3.11Z"/><path d="M14.52,78.72h.6v4.2h-.6Z"/><path d="M17.61,82.35h1.86v.57H17v-4.2h.6Z"/><path d="M21.51,82.35h1.86v.57H20.91v-4.2h.6Z"/><path d="M26.49,78.66a2.16,2.16,0,1,1-2.09,2.16A2.09,2.09,0,0,1,26.49,78.66Zm0,3.75A1.59,1.59,0,1,0,25,80.82,1.51,1.51,0,0,0,26.49,82.41Z"/><path d="M30.58,82.42a1.72,1.72,0,0,1-.44-1.24V78.72h.6v2.49A1.12,1.12,0,0,0,31,82a1.2,1.2,0,0,0,1.75,0,1.12,1.12,0,0,0,.26-.82V78.72h.6v2.46a1.72,1.72,0,0,1-.44,1.24,1.75,1.75,0,0,1-1.3.55A1.79,1.79,0,0,1,30.58,82.42Z"/><path d="M39,82.2a2.14,2.14,0,0,1-1.63.77,2.16,2.16,0,1,1,1.48-3.67l-.4.4a1.61,1.61,0,0,0-1.14-.47,1.59,1.59,0,0,0,.06,3.18,1.47,1.47,0,0,0,1-.39V80.94h-1.2v-.57H39Z"/><path d="M43.7,80.94H41.36v2h-.6v-4.2h.6v1.65H43.7V78.72h.6v4.2h-.6Z"/><path d="M46.2,82.92v-4.2h1.43a1.21,1.21,0,0,1,.87.29,1.11,1.11,0,0,1,.34.8,1,1,0,0,1-.33.75,1.26,1.26,0,0,1,.69,1.1,1.24,1.24,0,0,1-.46,1,1.33,1.33,0,0,1-.92.29Zm1.32-2.55c.34,0,.48-.07.58-.18a.51.51,0,0,0,.14-.36.53.53,0,0,0-.14-.37c-.1-.11-.24-.17-.58-.17H46.8v1.08Zm.2,2a.91.91,0,0,0,.69-.22.73.73,0,0,0,0-1,.91.91,0,0,0-.69-.21H46.8v1.41Z"/><path d="M52.12,81v1.92h-.6V81l-1.44-2.28h.67l1.07,1.68,1.07-1.68h.67Z"/><path d="M8.6,88.56v1.86H8v-4.2H9.59a1.3,1.3,0,0,1,.88.27,1.19,1.19,0,0,1,.41.9,1.17,1.17,0,0,1-.41.89,1.3,1.3,0,0,1-.88.28Zm1-.57a.69.69,0,0,0,.55-.19.57.57,0,0,0,.17-.41.57.57,0,0,0-.17-.42.69.69,0,0,0-.55-.18h-1V88Z"/><path d="M14.44,89.34H12.67l-.44,1.08h-.62l1.74-4.2h.42l1.74,4.2h-.63Zm-1.53-.57h1.3l-.65-1.56Z"/><path d="M17.51,88.44v2h-.6v-4.2h1.47a1.22,1.22,0,0,1,.81.24,1.14,1.14,0,0,1,.42.87,1.12,1.12,0,0,1-.42.86.93.93,0,0,1-.49.22l1.51,2h-.73l-1.49-2Zm.84-.57a.63.63,0,0,0,.5-.16.53.53,0,0,0,.16-.38.55.55,0,0,0-.16-.39.67.67,0,0,0-.5-.15h-.84v1.08Z"/><path d="M21.59,86.22h.6V88l1.72-1.77h.8l-1.9,2,2,2.25h-.77l-1.87-2.1v2.1h-.6Z"/><path d="M75.56,0H76l5.64,7V0h.72V8.4h-.48l-5.64-7v7h-.72Z"/><text class="cls-2" transform="translate(81.76 125.45)"> </text><path d="M64.26,133v-4.2h1.26a2.29,2.29,0,0,1,1.44.39,2.16,2.16,0,0,1,0,3.41,2.34,2.34,0,0,1-1.45.4Zm2.43-3.28a1.69,1.69,0,0,0-1.2-.35h-.63v3.06h.63a1.68,1.68,0,0,0,1.2-.36,1.54,1.54,0,0,0,.51-1.17A1.56,1.56,0,0,0,66.69,129.67Z"/><path d="M69.27,132.45a1.72,1.72,0,0,1-.44-1.24v-2.46h.6v2.49a1.12,1.12,0,0,0,.27.82,1.2,1.2,0,0,0,1.75,0,1.12,1.12,0,0,0,.26-.82v-2.49h.6v2.46a1.71,1.71,0,0,1-1.74,1.8A1.76,1.76,0,0,1,69.27,132.45Z"/><path d="M75.64,130.4V131H74.26v2h-.6v-4.2h2.4v.57h-1.8v1.08Z"/><path d="M79,130.4V131H77.59v2H77v-4.2h2.4v.57h-1.8v1.08Z"/><path d="M80.32,128.75h.6V133h-.6Z"/><path d="M84.28,130.4V131H82.9v1.41h1.86V133H82.3v-4.2h2.4v.57H82.9v1.08Z"/><path d="M86.41,132.38h1.86V133H85.81v-4.2h.6Z"/><path d="M89.2,133v-4.2h1.26a2.29,2.29,0,0,1,1.44.39,2.16,2.16,0,0,1,0,3.41,2.32,2.32,0,0,1-1.45.4Zm2.43-3.28a1.69,1.69,0,0,0-1.2-.35H89.8v3.06h.63a1.68,1.68,0,0,0,1.2-.36,1.54,1.54,0,0,0,.51-1.17A1.56,1.56,0,0,0,91.63,129.67Z"/><path d="M95.58,131.9a1.36,1.36,0,0,0,1,.54.68.68,0,0,0,.73-.63c0-.64-.89-.72-1.45-1.08a1.08,1.08,0,0,1-.53-.93,1.18,1.18,0,0,1,1.27-1.11,1.72,1.72,0,0,1,1.13.42l-.36.44a1.09,1.09,0,0,0-.75-.29.63.63,0,0,0-.69.56c0,.54.89.65,1.43,1a1.12,1.12,0,0,1,.55,1,1.21,1.21,0,0,1-1.3,1.22,1.88,1.88,0,0,1-1.47-.71Z"/><path d="M98.61,128.75h2.87v.57h-1.14V133h-.59v-3.63H98.61Z"/><rect class="cls-3" x="0.25" y="54.32" width="60.96" height="66.62"/></g></g></svg>