<?xml version="1.0" encoding="utf-8"?>
<!-- Generator: Adobe Illustrator 23.0.6, SVG Export Plug-In . SVG Version: 6.00 Build 0)  -->
<svg version="1.1" id="Axon" xmlns="http://www.w3.org/2000/svg" xmlns:xlink="http://www.w3.org/1999/xlink" x="0px" y="0px"
	 viewBox="0 0 776.8 1883" style="enable-background:new 0 0 776.8 1883;" xml:space="preserve">
<style type="text/css">
	.st0{display:none;}
	.st1{display:inline;fill:#FFF;enable-background:new    ;}
	.st2{display:inline;opacity:0.3;}
	.st3{fill:#7198D9;}
	.st4{display:inline;}
	.st5{opacity:1;fill:#4A70AC;enable-background:new    ;}
	.st6{opacity:0.6;fill:#006A26;enable-background:new    ;}
	.st7{fill:none;stroke:#3C4355;stroke-width:2;}
	.st8{fill:none;stroke:#FFFFFF;stroke-width:2;stroke-linecap:round;stroke-linejoin:round;}
	.st9{fill:none;stroke:#FFFFFF;stroke-width:1.8998;stroke-linecap:round;stroke-linejoin:round;}
	.st10{fill:none;stroke:#FFFFFF;stroke-width:1.9546;stroke-linecap:round;stroke-linejoin:round;}
	.st11{fill:none;stroke:#FFFFFF;stroke-width:1.9269;stroke-linecap:round;stroke-linejoin:round;}
	.st12{fill:none;stroke:#FFFFFF;stroke-width:2.3473;stroke-linecap:round;stroke-linejoin:round;}
	.st13{fill:none;stroke:#FFFFFF;stroke-width:2.109;stroke-linecap:round;stroke-linejoin:round;}
	.st14{fill:none;stroke:#FFFFFF;stroke-width:2.8788;stroke-linecap:round;stroke-linejoin:round;}
	.st15{fill:#7198D9;enable-background:new;}
	.st16{fill:magenta;enable-background:new    ;}
	#Lowrise_Highlight, #Midrise_Highlight, #Highrise_Highlight, #Superfloor_Highlight{opacity: 0; cursor: pointer; transition: .25s opacity ease-in-out;}

</style>
<!-- <g id="_6_highlight">
		<path class="st5" d="M677.1,366.6v48.6l-21.2,10.5V377L677.1,366.6z M136.7,229.3l-10.3,5.3v40l75.8,47.1l49.3-24.1L136.7,229.3z
		 M266.9,356.3l101.5-51.1v-51l-149,73.2L266.9,356.3z M387.6,318.9l31.1,19.4v-54.8l-31.1-19.4V318.9z"/>
</g> -->
<g id="_7_highlight">
	<path class="st5" d="M201.8,1488.8l166.6-81.8v51.9l-166.6,81.8L1,1420.9l62.2-30.4l0.5,16.4L201.8,1488.8z M387.6,1470.2
		l30.1,18.8v-51.4l-30.1-18.6V1470.2z M655.9,1528.4v50.3l21.2-10.3v-51.2L655.9,1528.4z"/>
	<polygon class="st5" points="368.4,1458.9 201.8,1540.4 1.5,1420.9 1.5,1619 201.7,1739.1 369.1,1657.3 416.5,1686.2 417.7,1489.1 
			"/>
</g>
<g id="_8_highlight">
	<path class="st5" d="M201.8,1448.1l166.6-81.8v42l-166.6,81.8l-138.2-83.9l0.1-40.9L201.8,1448.1z M387.6,1419.6l30.1,18.8V1397
		l-30.1-18.6V1419.6z M655.9,1487.7v40.4l21.2-10.3v-41.3L655.9,1487.7z"/>
</g>
<g id="_9_highlight">
	<path class="st5" d="M201.8,1404.8l166.6-81.8v42l-166.6,81.8l-138.2-83.9l0.1-40.9L201.8,1404.8z M387.6,1376.4l30.1,18.8v-41.5
		l-30.1-18.6V1376.4z M655.9,1444.4v40.4l21.2-10.3v-41.3L655.9,1444.4z"/>
</g>

<!-- Lowrise -->
<g id="_8_highlight">
	<path class="st5" d="M201.8,1448.1l166.6-81.8v42l-166.6,81.8l-138.2-83.9l0.1-40.9L201.8,1448.1z M387.6,1419.6l30.1,18.8V1397
		l-30.1-18.6V1419.6z M655.9,1487.7v40.4l21.2-10.3v-41.3L655.9,1487.7z"/>
</g>
<g id="_9_highlight">
	<path class="st5" d="M201.8,1404.8l166.6-81.8v42l-166.6,81.8l-138.2-83.9l0.1-40.9L201.8,1404.8z M387.6,1376.4l30.1,18.8v-41.5
		l-30.1-18.6V1376.4z M655.9,1444.4v40.4l21.2-10.3v-41.3L655.9,1444.4z"/>
</g>

<g id="_10_highlight">
	<path class="st5" d="M201.8,1360.5l166.6-81.8v42l-166.6,81.8l-138.2-83.9l0.1-40.9L201.8,1360.7z M387.6,1333.4l30.1,18.8v-41.5
		l-30.1-18.6V1333.1z M655.9,1401.2v40.4l21.2-10.3v-41.3L655.9,1401.3z"/>
</g>

<g id="_11_highlight">
	<path class="st5" d="M201.8,1321.7l166.6-81.8v42l-166.6,81.8l-138.2-83.9l0.1-40.9L201.8,1321.7z M387.6,1293.2l30.1,18.8v-41.5
		l-30.1-18.6V1293.2z M655.9,1361.2v40.4l21.2-10.3V1350L655.9,1361.2z"/>
</g>
<g id="_12_highlight">
	<path class="st5" d="M201.8,1279.5l166.6-81.8v42l-166.6,81.8l-138.2-83.9l0.1-40.9L201.8,1279.5z M387.6,1251.1l30.1,18.8v-41.5
		l-30.1-18.6V1251.1z M655.9,1319.1v40.4l21.2-10.3v-41.3L655.9,1319.1z"/>
</g>
<g id="_13_highlight">
	<path class="st5" d="M201.8,1237.8l166.6-81.8v42l-166.6,81.8l-138.2-83.9l0.1-40.9L201.8,1237.8z M387.6,1209.3l30.1,18.8v-41.5
		l-30.1-18.6V1209.3z M655.9,1277.3v40.4l21.2-10.3v-41.3L655.9,1277.3z"/>
</g>
<g id="_14_highlight">
	<path class="st5" d="M201.8,1196.5l166.6-81.8v42l-166.6,81.8l-138.2-83.9l0.1-40.9L201.8,1196.5z M387.6,1168.1l30.1,18.8v-41.5
		l-30.1-18.6V1168.1z M655.9,1236.1v40.4l21.2-10.3v-41.3L655.9,1236.1z"/>
</g>
<!-- End Lowrise -->

<!-- Midrise -->
	<g id="_16_highlight_1_">
		<path class="st5" d="M201.8,1105.8l166.6-81.8v42l-166.6,81.8l-138.2-83.9l0.1-40.9L201.8,1105.8z M387.6,1077.3l30.1,18.8v-41.5
			l-30.1-18.6V1077.3z M655.9,1145.3v40.4l21.2-10.3v-41.3L655.9,1145.3z"/>
	</g>
	<g id="_17_highlight_1_">
		<path class="st15" d="M201.8,1063.6l166.6-81.8v42l-166.6,81.8l-138.2-83.9l0.1-40.9L201.8,1063.6z M387.6,1035.1l30.1,18.8v-41.5
			l-30.1-18.6V1035.1z M655.9,1103.1v40.4l21.2-10.3v-41.3L655.9,1103.1z"/>
	</g>
	<g id="_18_highlight_1_">
		<path class="st15" d="M201.8,1021.8L368.4,940v42l-166.6,81.8L63.6,979.9l0.1-40.9L201.8,1021.8z M387.6,993.3l30.1,18.8v-41.5
			L387.6,952V993.3z M655.9,1061.4v40.4l21.2-10.3v-41.3L655.9,1061.4z"/>
	</g>
	<g id="_19_highlight_1_">
		<path class="st5" d="M201.8,980.1l166.6-81.8v42l-166.6,81.8L63.6,938.2l0.1-40.9L201.8,980.1z M387.6,951.7l30.1,18.8V929
			l-30.1-18.6V951.7z M655.9,1019.7v40.4l21.2-10.3v-41.3L655.9,1019.7z"/>
	</g> 
	<g id="_20_highlight_2_">
		<path class="st15" d="M201.8,938.9l166.6-81.8v42l-166.6,81.8L63.6,897l0.1-40.9L201.8,938.9z M387.6,910.4l30.1,18.8v-41.5
			l-30.1-18.6V910.4z M655.9,978.4v40.4l21.2-10.3v-41.3L655.9,978.4z"/>
	</g>
	<g id="_21_highlight_2_">
		<path class="st15" d="M201.8,896.9l166.6-81.8v42l-166.6,81.8L63.6,855l0.1-40.9L201.8,896.9z M387.6,868.4l30.1,18.8v-41.5
			l-30.1-18.6V868.4z M655.9,936.4v40.4l21.2-10.3v-41.3L655.9,936.4z"/>
	</g>
	<g id="_22_highlight_2_">
		<path class="st15" d="M201.8,855.3l166.6-81.8v42l-166.6,81.8L63.6,813.4l0.1-40.9L201.8,855.3z M387.6,826.9l30.1,18.8v-41.5
			l-30.1-18.6V826.9z M655.9,894.9v40.4l21.2-10.3v-41.3L655.9,894.9z"/>
	</g>
	<g id="_23_highlight_2_">
		<path class="st15" d="M201.8,815.6l166.6-81.8v42l-166.6,81.8L63.6,773.7l0.1-40.9L201.8,815.6z M387.6,787.1l30.1,18.8v-41.5
			l-30.1-18.6V787.1z M655.9,855.1v40.4l21.2-10.3v-41.3L655.9,855.1z"/>
	</g>
	<g id="_24_highlight_2_">
		<path class="st15" d="M201.8,772.5l166.6-81.8v42l-166.6,81.8L63.6,730.6l0.1-40.9L201.8,772.5z M387.6,744.1l30.1,18.8v-41.5
			l-30.1-18.6V744.1z M655.9,812.1v40.4l21.2-10.3v-41.3L655.9,812.1z"/>
	</g>
	<!-- <g id="_25_highlight_2_">
		<path class="st1" d="M201.8,721.3l166.6-81.8v51.9l-166.6,81.8l-138.2-84l47.1-22.5L201.8,721.3z M387.6,702.7l30.1,18.8v-51.4
			l-30.1-18.6V702.7z M655.9,760.8v50.3l21.2-10.3v-51.2L655.9,760.8z"/>
	</g> -->

<!-- End Midrise -->

<!-- Highrise -->
<g id="_26_highlight_2_">
		<path class="st5" d="M201.8,679.1l166.6-81.8v42l-166.6,81.8L63.6,637.2l0.1-40.9L201.8,679.1z M387.6,650.7l30.1,18.8V628
			l-30.1-18.6V650.7z M655.9,718.7v40.4l21.2-10.3v-41.3L655.9,718.7z"/>
	</g>
	<g id="_27_highlight_2_">
		<path class="st15" d="M201.8,638.2l166.6-81.8v42l-166.6,81.8L63.6,596.3l0.1-40.9L201.8,638.2z M387.6,609.8l30.1,18.8v-41.5
			l-30.1-18.6V609.8z M655.9,677.8v40.4l21.2-10.3v-41.3L655.9,677.8z"/>
	</g>
	<g id="_28_highlight_2_">
		<path class="st15" d="M201.8,596.1l166.6-81.8v42l-166.6,81.8L63.6,554.2l0.1-40.9L201.8,596.1z M387.6,567.6l30.1,18.8V545
			l-30.1-18.6V567.6z M655.9,635.7v40.4l21.2-10.3v-41.3L655.9,635.7z"/>
	</g>
	<g id="_29_highlight_2_">
		<path class="st15" d="M201.8,554.4l166.6-81.8v42l-166.6,81.8L63.6,512.5l0.1-40.9L201.8,554.4z M387.6,525.9l30.1,18.8v-41.5
			l-30.1-18.6V525.9z M655.9,593.9v40.4l21.2-10.3v-41.3L655.9,593.9z"/>
	</g>
	<g id="_30_highlight_2_">
		<path class="st15" d="M201.8,513.4l166.6-81.8v42l-166.6,81.8L63.6,471.5l0.1-40.9L201.8,513.4z M387.6,485l30.1,18.8v-41.5
			l-30.1-18.6V485z M655.9,553v40.4l21.2-10.3v-41.3L655.9,553z"/>
	</g>
	<g id="_31_highlight_2_">
		<path class="st15" d="M201.8,471.3l166.6-81.8v42l-166.6,81.8L63.6,429.4l0.1-40.9L201.8,471.3z M387.6,442.9l30.1,18.8v-41.5
			l-30.1-18.6V442.9z M655.9,510.9v40.4l21.2-10.3v-41.3L655.9,510.9z"/>
	</g>
	<g id="_32_highlight_2_">
		<path class="st15" d="M201.8,430.6l166.6-81.8v42l-166.6,81.8L63.6,388.7l0.1-40.9L201.8,430.6z M387.6,402.1l30.1,18.8v-41.5
			l-30.1-18.6V402.1z M655.9,470.1v40.4l21.2-10.3v-41.3L655.9,470.1z"/>
	</g>
	<g id="_33_highlight_2_">
		<path class="st15" d="M201.8,388.8L368.4,307v42l-166.6,81.8L63.6,346.9l0.1-40.9L201.8,388.8z M387.6,360.3l30.1,18.8v-41.5
			L387.6,319V360.3z M655.9,428.3v40.4l21.2-10.3v-41.3L655.9,428.3z"/>
	</g>
<!-- End Highrise -->

<!-- Super floors -->
	<path class="st15" d="M677.1,366.6v48.6l-21.2,10.5V377L677.1,366.6z M136.7,229.3l-10.3,5.3v40l75.8,47.1l49.3-24.1L136.7,229.3z
		 M266.9,356.3l101.5-51.1v-51l-149,73.2L266.9,356.3z M387.6,318.9l31.1,19.4v-54.8l-31.1-19.4V318.9z"/>
	<path class="st5" d="M677.1,1174.6v51.7l-21.2,10.5V1185L677.1,1174.6z M267.4,1163.7l101-50.1v-48.5l-146,71.2L267.4,1163.7z
		 M387.6,1125.5l31.1,19.4v-45.4l-31.1-19.4V1125.5z"/>
	<path class="st15" d="M677.1,748.8v52.9l-21.2,10.5v-52.9L677.1,748.8z M267.4,739.9l101-50.1v-48.5l-146,71.2L267.4,739.9z
		 M387.6,702.2l31.1,19.4v-54.2L387.6,648V702.2z"/>

<!-- End Super floors -->


<g id="Superfloor_Highlight">
	<path class="st1" d="M677.1,366.6v48.6l-21.2,10.5V377L677.1,366.6z M136.7,229.3l-10.3,5.3v40l75.8,47.1l49.3-24.1L136.7,229.3z
		 M266.9,356.3l101.5-51.1v-51l-149,73.2L266.9,356.3z M387.6,318.9l31.1,19.4v-54.8l-31.1-19.4V318.9z"/>
	<path class="st1" d="M677.1,1174.6v51.7l-21.2,10.5V1185L677.1,1174.6z M267.4,1163.7l101-50.1v-48.5l-146,71.2L267.4,1163.7z
		 M387.6,1125.5l31.1,19.4v-45.4l-31.1-19.4V1125.5z"/>
	<path class="st1" d="M677.1,748.8v52.9l-21.2,10.5v-52.9L677.1,748.8z M267.4,739.9l101-50.1v-48.5l-146,71.2L267.4,739.9z
		 M387.6,702.2l31.1,19.4v-54.2L387.6,648V702.2z"/>
	<path class="st1" d="M677.1,1516.8v52l-21.2,10.5v-52.1L677.1,1516.8z M267.4,1508.5l101-50.1v-48.5l-146,71.2L267.4,1508.5z
		 M387.6,1464.8l31.1,19.4v-45.4l-31.1-19.4V1464.8z"/>
</g>
<g id="Lowrise_Highlight">
<!-- <g id="_7_highlight">
	<path class="st1" d="M201.8,1488.8l166.6-81.8v51.9l-166.6,81.8L1,1420.9l62.2-30.4l0.5,16.4L201.8,1488.8z M387.6,1470.2
		l30.1,18.8v-51.4l-30.1-18.6V1470.2z M655.9,1528.4v50.3l21.2-10.3v-51.2L655.9,1528.4z"/>
</g> -->
<path class="st1" d="M677.1,1516.8v52l-21.2,10.5v-52.1L677.1,1516.8z M267.4,1508.5l101-50.1v-48.5l-146,71.2L267.4,1508.5z
		 M387.6,1464.8l31.1,19.4v-45.4l-31.1-19.4V1464.8z"/>
<g id="_8_highlight">
	<path class="st1" d="M201.8,1448.1l166.6-81.8v42l-166.6,81.8l-138.2-83.9l0.1-40.9L201.8,1448.1z M387.6,1419.6l30.1,18.8V1397
		l-30.1-18.6V1419.6z M655.9,1487.7v40.4l21.2-10.3v-41.3L655.9,1487.7z"/>
</g>
<g id="_9_highlight">
	<path class="st1" d="M201.8,1404.8l166.6-81.8v42l-166.6,81.8l-138.2-83.9l0.1-40.9L201.8,1404.8z M387.6,1376.4l30.1,18.8v-41.5
		l-30.1-18.6V1376.4z M655.9,1444.4v40.4l21.2-10.3v-41.3L655.9,1444.4z"/>
</g>

<!-- <g id="_10_highlight">
	<path class="st1" d="M201.8,1360.5l166.6-81.8v42l-166.6,81.8l-138.2-83.9l0.1-40.9L201.8,1360.7z M387.6,1333.4l30.1,18.8v-41.5
		l-30.1-18.6V1333.1z M655.9,1401.2v40.4l21.2-10.3v-41.3L655.9,1401.3z"/>
</g>

<g id="_11_highlight">
	<path class="st1" d="M201.8,1321.7l166.6-81.8v42l-166.6,81.8l-138.2-83.9l0.1-40.9L201.8,1321.7z M387.6,1293.2l30.1,18.8v-41.5
		l-30.1-18.6V1293.2z M655.9,1361.2v40.4l21.2-10.3V1350L655.9,1361.2z"/>
</g>
<g id="_12_highlight">
	<path class="st1" d="M201.8,1279.5l166.6-81.8v42l-166.6,81.8l-138.2-83.9l0.1-40.9L201.8,1279.5z M387.6,1251.1l30.1,18.8v-41.5
		l-30.1-18.6V1251.1z M655.9,1319.1v40.4l21.2-10.3v-41.3L655.9,1319.1z"/>
</g>
<g id="_13_highlight">
	<path class="st1" d="M201.8,1237.8l166.6-81.8v42l-166.6,81.8l-138.2-83.9l0.1-40.9L201.8,1237.8z M387.6,1209.3l30.1,18.8v-41.5
		l-30.1-18.6V1209.3z M655.9,1277.3v40.4l21.2-10.3v-41.3L655.9,1277.3z"/>
</g>
<g id="_14_highlight">
	<path class="st1" d="M201.8,1196.5l166.6-81.8v42l-166.6,81.8l-138.2-83.9l0.1-40.9L201.8,1196.5z M387.6,1168.1l30.1,18.8v-41.5
		l-30.1-18.6V1168.1z M655.9,1236.1v40.4l21.2-10.3v-41.3L655.9,1236.1z"/>
</g> -->
	<!-- <g id="_15_highlight_1_">
		<path class="st5" d="M201.8,1146.4l166.6-81.8v51.9l-166.6,81.8l-138.2-83.9l47.1-22.5L201.8,1146.4z M387.6,1127.8l30.1,18.8
			v-51.4l-30.1-18.6V1127.8z M655.9,1186v50.3l21.2-10.3v-51.2L655.9,1186z"/>
	</g>
-->
</g>
<g id="Midrise_Highlight">
	<!-- <g id="_16_highlight_1_">
		<path class="st1" d="M201.8,1105.8l166.6-81.8v42l-166.6,81.8l-138.2-83.9l0.1-40.9L201.8,1105.8z M387.6,1077.3l30.1,18.8v-41.5
			l-30.1-18.6V1077.3z M655.9,1145.3v40.4l21.2-10.3v-41.3L655.9,1145.3z"/>
	</g>
	<g id="_17_highlight_1_">
		<path class="st1" d="M201.8,1063.6l166.6-81.8v42l-166.6,81.8l-138.2-83.9l0.1-40.9L201.8,1063.6z M387.6,1035.1l30.1,18.8v-41.5
			l-30.1-18.6V1035.1z M655.9,1103.1v40.4l21.2-10.3v-41.3L655.9,1103.1z"/>
	</g> -->
	<!-- <g id="_18_highlight_1_">
		<path class="st1" d="M201.8,1021.8L368.4,940v42l-166.6,81.8L63.6,979.9l0.1-40.9L201.8,1021.8z M387.6,993.3l30.1,18.8v-41.5
			L387.6,952V993.3z M655.9,1061.4v40.4l21.2-10.3v-41.3L655.9,1061.4z"/>
	</g>
	<g id="_19_highlight_1_">
		<path class="st1" d="M201.8,980.1l166.6-81.8v42l-166.6,81.8L63.6,938.2l0.1-40.9L201.8,980.1z M387.6,951.7l30.1,18.8V929
			l-30.1-18.6V951.7z M655.9,1019.7v40.4l21.2-10.3v-41.3L655.9,1019.7z"/>
	</g>  -->
	<!-- <path class="st1" d="M677.1,1174.6v51.7l-21.2,10.5V1185L677.1,1174.6z M267.4,1163.7l101-50.1v-48.5l-146,71.2L267.4,1163.7z
		 M387.6,1125.5l31.1,19.4v-45.4l-31.1-19.4V1125.5z"/> -->
	<path class="st1" d="M677.1,748.8v52.9l-21.2,10.5v-52.9L677.1,748.8z M267.4,739.9l101-50.1v-48.5l-146,71.2L267.4,739.9z
		 M387.6,702.2l31.1,19.4v-54.2L387.6,648V702.2z"/>	
		 
	<g id="_20_highlight_2_">
		<path class="st1" d="M201.8,938.9l166.6-81.8v42l-166.6,81.8L63.6,897l0.1-40.9L201.8,938.9z M387.6,910.4l30.1,18.8v-41.5
			l-30.1-18.6V910.4z M655.9,978.4v40.4l21.2-10.3v-41.3L655.9,978.4z"/>
	</g>
	<g id="_21_highlight_2_">
		<path class="st1" d="M201.8,896.9l166.6-81.8v42l-166.6,81.8L63.6,855l0.1-40.9L201.8,896.9z M387.6,868.4l30.1,18.8v-41.5
			l-30.1-18.6V868.4z M655.9,936.4v40.4l21.2-10.3v-41.3L655.9,936.4z"/>
	</g>
	<g id="_22_highlight_2_">
		<path class="st1" d="M201.8,855.3l166.6-81.8v42l-166.6,81.8L63.6,813.4l0.1-40.9L201.8,855.3z M387.6,826.9l30.1,18.8v-41.5
			l-30.1-18.6V826.9z M655.9,894.9v40.4l21.2-10.3v-41.3L655.9,894.9z"/>
	</g>
	<g id="_23_highlight_2_">
		<path class="st1" d="M201.8,815.6l166.6-81.8v42l-166.6,81.8L63.6,773.7l0.1-40.9L201.8,815.6z M387.6,787.1l30.1,18.8v-41.5
			l-30.1-18.6V787.1z M655.9,855.1v40.4l21.2-10.3v-41.3L655.9,855.1z"/>
	</g>
	<g id="_24_highlight_2_">
		<path class="st1" d="M201.8,772.5l166.6-81.8v42l-166.6,81.8L63.6,730.6l0.1-40.9L201.8,772.5z M387.6,744.1l30.1,18.8v-41.5
			l-30.1-18.6V744.1z M655.9,812.1v40.4l21.2-10.3v-41.3L655.9,812.1z"/>
	</g>
	<g id="_26_highlight_2_">
		<path class="st1" d="M201.8,679.1l166.6-81.8v42l-166.6,81.8L63.6,637.2l0.1-40.9L201.8,679.1z M387.6,650.7l30.1,18.8V628
			l-30.1-18.6V650.7z M655.9,718.7v40.4l21.2-10.3v-41.3L655.9,718.7z"/>
	</g>
	<!-- <g id="_25_highlight_2_">
		<path class="st1" d="M201.8,721.3l166.6-81.8v51.9l-166.6,81.8l-138.2-84l47.1-22.5L201.8,721.3z M387.6,702.7l30.1,18.8v-51.4
			l-30.1-18.6V702.7z M655.9,760.8v50.3l21.2-10.3v-51.2L655.9,760.8z"/>
	</g> -->
</g>
<g id="Highrise_Highlight">
		<path class="st1" d="M677.1,366.6v48.6l-21.2,10.5V377L677.1,366.6z M136.7,229.3l-10.3,5.3v40l75.8,47.1l49.3-24.1L136.7,229.3z
		 M266.9,356.3l101.5-51.1v-51l-149,73.2L266.9,356.3z M387.6,318.9l31.1,19.4v-54.8l-31.1-19.4V318.9z"/>
	<g id="_27_highlight_2_">
		<path class="st1" d="M201.8,638.2l166.6-81.8v42l-166.6,81.8L63.6,596.3l0.1-40.9L201.8,638.2z M387.6,609.8l30.1,18.8v-41.5
			l-30.1-18.6V609.8z M655.9,677.8v40.4l21.2-10.3v-41.3L655.9,677.8z"/>
	</g>
	<g id="_28_highlight_2_">
		<path class="st1" d="M201.8,596.1l166.6-81.8v42l-166.6,81.8L63.6,554.2l0.1-40.9L201.8,596.1z M387.6,567.6l30.1,18.8V545
			l-30.1-18.6V567.6z M655.9,635.7v40.4l21.2-10.3v-41.3L655.9,635.7z"/>
	</g>
	<g id="_29_highlight_2_">
		<path class="st1" d="M201.8,554.4l166.6-81.8v42l-166.6,81.8L63.6,512.5l0.1-40.9L201.8,554.4z M387.6,525.9l30.1,18.8v-41.5
			l-30.1-18.6V525.9z M655.9,593.9v40.4l21.2-10.3v-41.3L655.9,593.9z"/>
	</g>
	<g id="_30_highlight_2_">
		<path class="st1" d="M201.8,513.4l166.6-81.8v42l-166.6,81.8L63.6,471.5l0.1-40.9L201.8,513.4z M387.6,485l30.1,18.8v-41.5
			l-30.1-18.6V485z M655.9,553v40.4l21.2-10.3v-41.3L655.9,553z"/>
	</g>
	<g id="_31_highlight_2_">
		<path class="st1" d="M201.8,471.3l166.6-81.8v42l-166.6,81.8L63.6,429.4l0.1-40.9L201.8,471.3z M387.6,442.9l30.1,18.8v-41.5
			l-30.1-18.6V442.9z M655.9,510.9v40.4l21.2-10.3v-41.3L655.9,510.9z"/>
	</g>
	<g id="_32_highlight_2_">
		<path class="st1" d="M201.8,430.6l166.6-81.8v42l-166.6,81.8L63.6,388.7l0.1-40.9L201.8,430.6z M387.6,402.1l30.1,18.8v-41.5
			l-30.1-18.6V402.1z M655.9,470.1v40.4l21.2-10.3v-41.3L655.9,470.1z"/>
	</g>
	<g id="_33_highlight_2_">
		<path class="st1" d="M201.8,388.8L368.4,307v42l-166.6,81.8L63.6,346.9l0.1-40.9L201.8,388.8z M387.6,360.3l30.1,18.8v-41.5
			L387.6,319V360.3z M655.9,428.3v40.4l21.2-10.3v-41.3L655.9,428.3z"/>
	</g>
	<!-- <g id="_34_highlight_2_">
		<path class="st1" d="M126.9,276.8l-0.5-41.2l10.3-5.3l114.8,68.3l-48.9,24L126.9,276.8z M110.7,282.8l-47.1,22.9l138.2,83.9
			l166.6-81.8v-52.7L201.8,337L110.7,282.8z M387.6,319.2l30.1,18.8v-56.9l-30.1-18.6V319.2z M655.9,377.2v50.5l21.2-10.3V366
			L655.9,377.2z"/>
	</g> -->
</g>
<g id="Terraces">
	<path class="st6" d="M201.8,1540.4l65.7-32.3l-45-27l-20.7,8.8L63.7,1407l-0.1-16.7l-62,30.7L201.8,1540.4z"/>
	<polygon class="st6" points="108.5,1090.9 201.8,1145.1 222.4,1136.3 267.4,1163.3 201.8,1195.6 63.6,1112.6 	"/>
	<polygon class="st6" points="110.7,667.2 201.8,722.8 222.4,714 267.4,741.1 201.8,773.3 63.6,690.3 	"/>
	<polygon class="st6" points="112.8,282.6 200.8,336.4 221.6,328.7 266.9,356.3 201.8,389.1 64.7,305.2 	"/>
	<polygon class="st6" points="381.1,439.8 421,463.2 408,469.8 368.9,446.1 	"/>
	<polygon class="st6" points="381.1,521.9 421,545.3 408,552 368.9,528.2 	"/>
	<polygon class="st6" points="381.1,605.4 421,628.8 408,635.4 368.9,611.7 	"/>
	<polygon class="st6" points="381.1,697.9 421,721.3 408,727.9 368.9,704.2 	"/>
	<polygon class="st6" points="381.1,782.7 421,806 408,812.7 368.9,789 	"/>
	<polygon class="st6" points="381.1,863.6 421,887 408,893.7 368.9,869.9 	"/>
	<polygon class="st6" points="381.1,947.5 421,970.9 408,977.5 368.9,953.8 	"/>
	<polygon class="st6" points="381.1,1031.2 421,1054.5 408,1061.2 368.9,1037.5 	"/>
	<polygon class="st6" points="381.1,356.1 421,379.5 408,386.1 368.9,362.4 	"/>
	<polygon class="st6" points="381.1,1122.8 421,1146.2 408,1152.8 368.9,1129.1 	"/>
	<polygon class="st6" points="381.1,1204.6 421,1227.9 408,1234.6 368.9,1210.8 	"/>
	<polygon class="st6" points="381.1,1288.4 421,1311.8 408,1318.4 368.9,1294.7 	"/>
	<polygon class="st6" points="381.1,1372.3 421,1395.7 408,1402.3 368.9,1378.6 	"/>
	<polygon class="st6" points="381.1,1465.7 421,1489 408,1495.7 368.9,1471.9 	"/>
</g>
<g id="Axon-2">
	<line class="st7" x1="368.4" y1="307.3" x2="267.4" y2="357"/>
	<line class="st7" x1="267.5" y1="1508.8" x2="267.5" y2="1706.6"/>
	<line class="st7" x1="267.5" y1="1163.7" x2="267.5" y2="1457.7"/>
	<line class="st7" x1="267.5" y1="740.8" x2="267.5" y2="1114.7"/>
	<line class="st7" x1="267.5" y1="357.4" x2="267.5" y2="690"/>
	<line class="st7" x1="368.4" y1="639.9" x2="267.1" y2="689.6"/>
	<line class="st7" x1="368.4" y1="691.2" x2="267.4" y2="740.8"/>
	<line class="st7" x1="368.4" y1="1113.5" x2="267.9" y2="1162.9"/>
	<line class="st7" x1="368.4" y1="1459.2" x2="268.5" y2="1508.3"/>
	<line class="st7" x1="1.5" y1="1619" x2="200.7" y2="1738.5"/>
	<line class="st7" x1="747.5" y1="1660.1" x2="674.7" y2="1695.8"/>
	<line class="st7" x1="747.5" y1="1701" x2="674.7" y2="1736.7"/>
	<line class="st7" x1="747.5" y1="1742" x2="674.7" y2="1777.7"/>
	<line class="st7" x1="674.7" y1="1648.5" x2="674.7" y2="1869.6"/>
	<line class="st7" x1="692.9" y1="1639.7" x2="692.9" y2="1860.7"/>
	<line class="st7" x1="711.1" y1="1630.9" x2="711.1" y2="1822.2"/>
	<line class="st7" x1="729.3" y1="1621.9" x2="729.3" y2="1813"/>
	<line class="st7" x1="747.5" y1="1613" x2="747.5" y2="1805"/>
	<line class="st7" x1="417.7" y1="281.1" x2="417.7" y2="1685.8"/>
	<line class="st7" x1="675.9" y1="366.9" x2="675.9" y2="1599.7"/>
	<line class="st7" x1="655.9" y1="376.7" x2="655.9" y2="1609.1"/>
	<line class="st7" x1="387.6" y1="262.5" x2="387.6" y2="1667.4"/>
	<line class="st8" x1="1.5" y1="1675.1" x2="250.4" y2="1824.4"/>
	<line class="st8" x1="417" y1="1742.6" x2="649" y2="1882"/>
	<line class="st8" x1="567.5" y1="1612.4" x2="649" y2="1661.4"/>
	<line class="st9" x1="369.1" y1="1657.3" x2="416.4" y2="1685.8"/>
	<line class="st8" x1="703.6" y1="1567.9" x2="764.3" y2="1604.4"/>
	<line class="st8" x1="582.5" y1="1604.2" x2="620.5" y2="1627"/>
	<line class="st8" x1="201.7" y1="1739.1" x2="250.4" y2="1768.4"/>
	<line class="st7" x1="1.5" y1="1581.7" x2="201.8" y2="1701.9"/>
	<line class="st7" x1="1.5" y1="1541.5" x2="201.8" y2="1661.7"/>
	<line class="st7" x1="1.5" y1="1501.3" x2="201.8" y2="1621.5"/>
	<line class="st7" x1="1.5" y1="1461.1" x2="201.8" y2="1581.3"/>
	<line class="st7" x1="63.7" y1="1364.9" x2="201.8" y2="1447.8"/>
	<line class="st7" x1="63.7" y1="1322.8" x2="201.8" y2="1405.7"/>
	<line class="st7" x1="63.7" y1="1280.7" x2="201.8" y2="1363.6"/>
	<line class="st7" x1="63.7" y1="1238.6" x2="201.8" y2="1321.6"/>
	<line class="st7" x1="63.7" y1="1196.6" x2="201.8" y2="1279.5"/>
	<line class="st7" x1="63.7" y1="1154.5" x2="201.8" y2="1237.4"/>
	<line class="st7" x1="63.7" y1="1022.4" x2="201.8" y2="1105.3"/>
	<line class="st7" x1="63.7" y1="980.9" x2="201.8" y2="1063.8"/>
	<line class="st7" x1="63.7" y1="939.4" x2="201.8" y2="1022.3"/>
	<line class="st7" x1="63.7" y1="897.8" x2="201.8" y2="980.7"/>
	<line class="st7" x1="63.7" y1="856.3" x2="201.8" y2="939.2"/>
	<line class="st7" x1="63.7" y1="814.7" x2="201.8" y2="897.7"/>
	<line class="st7" x1="63.7" y1="773.2" x2="201.8" y2="856.1"/>
	<line class="st7" x1="387.6" y1="992.9" x2="418.7" y2="1012.3"/>
	<line class="st7" x1="387.6" y1="910.7" x2="418.7" y2="930.1"/>
	<line class="st7" x1="387.6" y1="826.4" x2="418.7" y2="845.7"/>
	<line class="st7" x1="387.6" y1="744.9" x2="418.7" y2="764.2"/>
	<line class="st7" x1="387.6" y1="648.4" x2="418.7" y2="667.8"/>
	<line class="st7" x1="387.6" y1="566.2" x2="418.7" y2="585.6"/>
	<line class="st7" x1="388.7" y1="484.3" x2="419.8" y2="503.7"/>
	<line class="st7" x1="387.6" y1="400.7" x2="418.7" y2="420.1"/>
	<line class="st7" x1="387.6" y1="319" x2="418.7" y2="338.4"/>
	<line class="st7" x1="387.6" y1="1077.1" x2="418.7" y2="1096.5"/>
	<line class="st7" x1="387.6" y1="1168.2" x2="418.7" y2="1187.6"/>
	<line class="st7" x1="387.6" y1="1249.7" x2="418.7" y2="1269.1"/>
	<line class="st7" x1="387.6" y1="1335.4" x2="418.7" y2="1354.8"/>
	<line class="st7" x1="387.6" y1="1420.1" x2="418.7" y2="1439.5"/>
	<line class="st7" x1="387.6" y1="1511.1" x2="418.7" y2="1530.4"/>
	<line class="st7" x1="387.6" y1="1549.8" x2="418.7" y2="1569.2"/>
	<line class="st7" x1="387.6" y1="1588.5" x2="418.7" y2="1607.9"/>
	<line class="st7" x1="387.6" y1="1627.2" x2="418.7" y2="1646.6"/>
	<line class="st7" x1="63.7" y1="731.7" x2="201.8" y2="814.6"/>
	<line class="st8" x1="220.6" y1="712.9" x2="267.4" y2="740.8"/>
	<line class="st7" x1="63.7" y1="597" x2="201.8" y2="679.9"/>
	<line class="st7" x1="63.7" y1="555.4" x2="201.8" y2="638.3"/>
	<line class="st7" x1="63.7" y1="513.9" x2="201.8" y2="596.8"/>
	<line class="st7" x1="63.7" y1="472.3" x2="201.8" y2="555.3"/>
	<line class="st7" x1="63.7" y1="430.8" x2="201.8" y2="513.7"/>
	<line class="st7" x1="63.7" y1="389.3" x2="201.8" y2="472.2"/>
	<line class="st7" x1="63.7" y1="347.7" x2="201.8" y2="430.6"/>
	<line class="st7" x1="387.6" y1="262.5" x2="417.7" y2="281.1"/>
	<line class="st8" x1="208.4" y1="171.7" x2="293" y2="222.4"/>
	<line class="st7" x1="368.4" y1="1620.1" x2="201.8" y2="1701.9"/>
	<line class="st7" x1="368.4" y1="1579.9" x2="201.8" y2="1661.7"/>
	<line class="st7" x1="368.4" y1="1539.6" x2="201.8" y2="1621.5"/>
	<line class="st7" x1="368.4" y1="1499.4" x2="201.8" y2="1581.3"/>
	<line class="st7" x1="368.4" y1="1408" x2="267.5" y2="1457.7"/>
	<line class="st7" x1="368.4" y1="1366" x2="201.8" y2="1447.8"/>
	<line class="st7" x1="368.4" y1="1323.9" x2="201.8" y2="1405.7"/>
	<line class="st7" x1="368.4" y1="1281.8" x2="201.8" y2="1363.6"/>
	<line class="st7" x1="368.4" y1="1239.8" x2="201.8" y2="1321.6"/>
	<line class="st7" x1="368.4" y1="1197.7" x2="201.8" y2="1279.5"/>
	<line class="st7" x1="368.4" y1="1155.6" x2="201.8" y2="1237.4"/>
	<line class="st7" x1="368.4" y1="1065.1" x2="267.5" y2="1114.7"/>
	<line class="st7" x1="368.4" y1="1023.5" x2="201.8" y2="1105.3"/>
	<line class="st7" x1="368.4" y1="982" x2="201.8" y2="1063.8"/>
	<line class="st7" x1="368.4" y1="940.5" x2="201.8" y2="1022.3"/>
	<line class="st7" x1="368.4" y1="898.9" x2="201.8" y2="980.7"/>
	<line class="st7" x1="368.4" y1="857.4" x2="201.8" y2="939.2"/>
	<line class="st7" x1="368.4" y1="815.9" x2="201.8" y2="897.7"/>
	<line class="st7" x1="368.4" y1="774.3" x2="201.8" y2="856.1"/>
	<line class="st7" x1="368.4" y1="732.8" x2="201.8" y2="814.6"/>
	<line class="st8" x1="110.7" y1="666.9" x2="63.6" y2="690"/>
	<line class="st8" x1="220.1" y1="328.6" x2="267.4" y2="357"/>
	<line class="st8" x1="110.7" y1="282.6" x2="63.6" y2="305.8"/>
	<line class="st8" x1="222.4" y1="1136.7" x2="267.4" y2="1163.7"/>
	<line class="st8" x1="108.5" y1="1090.9" x2="63.6" y2="1112.9"/>
	<line class="st10" x1="221.2" y1="1480.3" x2="267.4" y2="1508.1"/>
	<line class="st7" x1="368.4" y1="598.1" x2="201.8" y2="679.9"/>
	<line class="st7" x1="368.4" y1="556.5" x2="201.8" y2="638.3"/>
	<line class="st7" x1="368.4" y1="515" x2="201.8" y2="596.8"/>
	<line class="st7" x1="368.4" y1="473.4" x2="201.8" y2="555.3"/>
	<line class="st7" x1="368.4" y1="431.9" x2="201.8" y2="513.7"/>
	<line class="st7" x1="677.1" y1="366.3" x2="655.9" y2="376.7"/>
	<line class="st7" x1="677.1" y1="416.9" x2="655.9" y2="427.3"/>
	<line class="st7" x1="677.1" y1="456.4" x2="655.9" y2="466.9"/>
	<line class="st7" x1="677.1" y1="501.5" x2="655.9" y2="511.9"/>
	<line class="st7" x1="677.1" y1="542" x2="655.9" y2="552.5"/>
	<line class="st7" x1="677.1" y1="582.5" x2="655.9" y2="592.9"/>
	<line class="st7" x1="677.1" y1="623.8" x2="655.9" y2="634.2"/>
	<line class="st7" x1="677.1" y1="665.7" x2="655.9" y2="676.2"/>
	<line class="st7" x1="677.1" y1="707.2" x2="655.9" y2="717.6"/>
	<line class="st7" x1="677.1" y1="748.2" x2="655.9" y2="758.6"/>
	<line class="st7" x1="677.1" y1="800.7" x2="655.9" y2="811.1"/>
	<line class="st7" x1="677.1" y1="840.9" x2="655.9" y2="851.3"/>
	<line class="st7" x1="677.1" y1="885.3" x2="655.9" y2="895.7"/>
	<line class="st7" x1="677.1" y1="924.8" x2="655.9" y2="935.2"/>
	<line class="st7" x1="677.1" y1="966" x2="655.9" y2="976.4"/>
	<line class="st7" x1="677.1" y1="1007.3" x2="655.9" y2="1017.7"/>
	<line class="st7" x1="677.1" y1="1049.8" x2="655.9" y2="1060.2"/>
	<line class="st7" x1="677.1" y1="1092.3" x2="655.9" y2="1102.7"/>
	<line class="st7" x1="677.1" y1="1133.9" x2="655.9" y2="1144.3"/>
	<line class="st7" x1="677.1" y1="1175.6" x2="655.9" y2="1186.1"/>
	<line class="st7" x1="677.1" y1="1226.8" x2="655.9" y2="1237.3"/>
	<line class="st7" x1="677.1" y1="1264" x2="655.9" y2="1274.4"/>
	<line class="st7" x1="677.1" y1="1306.4" x2="655.9" y2="1316.8"/>
	<line class="st7" x1="677.1" y1="1348" x2="655.9" y2="1358.5"/>
	<line class="st7" x1="677.1" y1="1392.2" x2="655.9" y2="1402.6"/>
	<line class="st7" x1="677.1" y1="1433" x2="655.9" y2="1443.4"/>
	<line class="st7" x1="677.1" y1="1473" x2="655.9" y2="1483.5"/>
	<line class="st7" x1="677.1" y1="1517.2" x2="655.9" y2="1527.6"/>
	<line class="st7" x1="677.1" y1="1568.3" x2="655.9" y2="1578.8"/>
	<line class="st7" x1="368.4" y1="390.4" x2="201.8" y2="472.2"/>
	<line class="st7" x1="368.4" y1="348.8" x2="201.8" y2="430.6"/>
	<line class="st8" x1="207.5" y1="183.2" x2="63.7" y2="253.8"/>
	<line class="st8" x1="326.4" y1="112.6" x2="207.8" y2="171"/>
	<line class="st8" x1="416.5" y1="1686.2" x2="250.4" y2="1767.9"/>
	<line class="st8" x1="764.3" y1="1604.3" x2="649" y2="1661"/>
	<polygon class="st8" points="724.4,1845 775.8,1819.9 747.1,1802.8 695.6,1828.1 	"/>
	<line class="st8" x1="703.6" y1="1586.2" x2="620.6" y2="1627"/>
	<line class="st8" x1="584" y1="354.6" x2="620.5" y2="376.9"/>
	<line class="st8" x1="327.1" y1="168.5" x2="360.6" y2="188.6"/>
	<line class="st8" x1="666.8" y1="313.4" x2="703.3" y2="335.8"/>
	<line class="st8" x1="703.6" y1="336.1" x2="620.6" y2="376.9"/>
	<line class="st8" x1="666.7" y1="313.5" x2="584" y2="353.8"/>
	<line class="st8" x1="360.8" y1="189.3" x2="293.3" y2="222.4"/>
	<line class="st8" x1="207.5" y1="232.3" x2="293" y2="283.6"/>
	<line class="st11" x1="251.5" y1="298.3" x2="202.6" y2="322.3"/>
	<line class="st11" x1="137" y1="230.2" x2="89.1" y2="253.7"/>
	<line class="st11" x1="155.9" y1="241.4" x2="108" y2="264.9"/>
	<line class="st11" x1="174.8" y1="253.1" x2="126.9" y2="276.6"/>
	<line class="st11" x1="193.8" y1="264.1" x2="145.9" y2="287.6"/>
	<line class="st11" x1="212.7" y1="275.3" x2="164.8" y2="298.8"/>
	<line class="st11" x1="231.6" y1="286.8" x2="183.7" y2="310.4"/>
	<line class="st11" x1="88.1" y1="253.9" x2="202.2" y2="322.4"/>
	<line class="st11" x1="136.7" y1="230.1" x2="251.3" y2="298.2"/>
	<line class="st8" x1="360.8" y1="250.4" x2="368.4" y2="254.7"/>
	<line class="st8" x1="360.8" y1="250.4" x2="293.3" y2="283.6"/>
	<line class="st8" x1="682.1" y1="145.6" x2="566.7" y2="202.4"/>
	<line class="st8" x1="444.3" y1="1.2" x2="327.9" y2="58.5"/>
	<line class="st12" x1="582.2" y1="1604.7" x2="567.6" y2="1611.9"/>
	<line class="st8" x1="711.1" y1="1851.4" x2="649" y2="1882"/>
	<line class="st8" x1="417" y1="1742.6" x2="250.4" y2="1824.4"/>
	<line class="st8" x1="327.1" y1="58.8" x2="567" y2="202.9"/>
	<line class="st8" x1="443.8" y1="1" x2="683.8" y2="145.1"/>
	<line class="st8" x1="683.8" y1="145.6" x2="683.8" y2="323.4"/>
	<line class="st8" x1="327.1" y1="58.8" x2="327.1" y2="168.6"/>
	<line class="st8" x1="360.8" y1="189" x2="360.8" y2="250.4"/>
	<line class="st8" x1="293.3" y1="222.4" x2="293.3" y2="283.6"/>
	<line class="st8" x1="207.5" y1="171.2" x2="207.5" y2="232.3"/>
	<line class="st8" x1="63.7" y1="306" x2="63.7" y2="638.5"/>
	<line class="st8" x1="201.8" y1="388.5" x2="201.8" y2="720.3"/>
	<line class="st8" x1="63.7" y1="690.5" x2="63.7" y2="1063.2"/>
	<line class="st8" x1="201.8" y1="772.3" x2="201.8" y2="1145"/>
	<line class="st8" x1="63.7" y1="1113.6" x2="63.7" y2="1406.9"/>
	<line class="st8" x1="201.8" y1="1195.4" x2="201.8" y2="1489.8"/>
	<line class="st8" x1="201.8" y1="1541.1" x2="201.8" y2="1739.1"/>
	<line class="st8" x1="250.4" y1="1767.9" x2="250.4" y2="1824"/>
	<line class="st8" x1="649" y1="1661.7" x2="649" y2="1881.7"/>
	<line class="st8" x1="764.3" y1="1604.6" x2="764.3" y2="1813"/>
	<line class="st8" x1="416.6" y1="1686.1" x2="416.6" y2="1741.5"/>
	<line class="st8" x1="1" y1="1420.9" x2="1" y2="1674.8"/>
	<line class="st8" x1="368.4" y1="254.9" x2="368.4" y2="1657.3"/>
	<line class="st7" x1="166.4" y1="316.1" x2="166.4" y2="1718.5"/>
	<line class="st7" x1="94.4" y1="274.4" x2="94.4" y2="1676.8"/>
	<line class="st7" x1="306.3" y1="284.9" x2="306.3" y2="1687.3"/>
	<line class="st7" x1="345.2" y1="266.5" x2="345.2" y2="1668.9"/>
	<line class="st8" x1="567.5" y1="202.9" x2="567.5" y2="1612.7"/>
	<line class="st8" x1="620.6" y1="376.9" x2="620.6" y2="1627"/>
	<line class="st8" x1="583.7" y1="353.7" x2="583.7" y2="1603.9"/>
	<line class="st8" x1="703.6" y1="336.1" x2="703.6" y2="1586.2"/>
	<line class="st8" x1="267.5" y1="1114.7" x2="267.5" y2="1163.2"/>
	<line class="st13" x1="267.5" y1="1457.7" x2="267.5" y2="1508.8"/>
	<line class="st8" x1="267.5" y1="690" x2="267.5" y2="740.9"/>
	<line class="st8" x1="368.9" y1="446.1" x2="407.8" y2="469.5"/>
	<line class="st8" x1="382.1" y1="439.8" x2="421" y2="463.2"/>
	<line class="st8" x1="420.2" y1="463.8" x2="408" y2="469.8"/>
	<line class="st8" x1="381.1" y1="439.8" x2="368.9" y2="445.8"/>
	<line class="st8" x1="368.9" y1="528.3" x2="407.8" y2="551.7"/>
	<line class="st8" x1="382.1" y1="521.9" x2="421" y2="545.3"/>
	<line class="st8" x1="420.2" y1="546" x2="408" y2="552"/>
	<line class="st8" x1="381.1" y1="521.9" x2="368.9" y2="527.9"/>
	<line class="st8" x1="368.9" y1="611.8" x2="407.8" y2="635.1"/>
	<line class="st8" x1="382.1" y1="605.4" x2="421" y2="628.8"/>
	<line class="st8" x1="420.2" y1="629.4" x2="408" y2="635.4"/>
	<line class="st8" x1="381.1" y1="605.4" x2="368.9" y2="611.4"/>
	<line class="st8" x1="368.9" y1="704.2" x2="407.8" y2="727.6"/>
	<line class="st8" x1="382.1" y1="697.9" x2="421" y2="721.3"/>
	<line class="st8" x1="420.2" y1="721.9" x2="408" y2="727.9"/>
	<line class="st8" x1="381.1" y1="697.9" x2="368.9" y2="703.9"/>
	<line class="st8" x1="368.9" y1="789" x2="407.8" y2="812.4"/>
	<line class="st8" x1="382.1" y1="782.7" x2="421" y2="806"/>
	<line class="st8" x1="420.2" y1="806.7" x2="408" y2="812.7"/>
	<line class="st8" x1="381.1" y1="782.7" x2="368.9" y2="788.7"/>
	<line class="st8" x1="368.9" y1="870" x2="407.8" y2="893.4"/>
	<line class="st8" x1="382.1" y1="863.6" x2="421" y2="887"/>
	<line class="st8" x1="420.2" y1="887.7" x2="408" y2="893.7"/>
	<line class="st8" x1="381.1" y1="863.6" x2="368.9" y2="869.6"/>
	<line class="st8" x1="368.9" y1="953.9" x2="407.8" y2="977.2"/>
	<line class="st8" x1="382.1" y1="947.5" x2="421" y2="970.9"/>
	<line class="st8" x1="420.2" y1="971.5" x2="408" y2="977.5"/>
	<line class="st8" x1="381.1" y1="947.5" x2="368.9" y2="953.5"/>
	<line class="st8" x1="368.9" y1="1037.7" x2="407.8" y2="1061.1"/>
	<line class="st8" x1="382.1" y1="1031.4" x2="421" y2="1054.8"/>
	<line class="st8" x1="420.2" y1="1055.4" x2="408" y2="1061.4"/>
	<line class="st8" x1="381.1" y1="1031.4" x2="368.9" y2="1037.4"/>
	<line class="st8" x1="267.5" y1="690" x2="267.5" y2="740.9"/>
	<line class="st8" x1="267.5" y1="304.5" x2="267.5" y2="356.5"/>
	<line class="st8" x1="126.4" y1="235.4" x2="126.4" y2="275.3"/>
	<line class="st8" x1="368.9" y1="362.5" x2="407.8" y2="385.8"/>
	<line class="st8" x1="382.1" y1="356.1" x2="421" y2="379.5"/>
	<line class="st8" x1="420.2" y1="380.1" x2="408" y2="386.1"/>
	<line class="st8" x1="381.1" y1="356.1" x2="368.9" y2="362.1"/>
	<line class="st8" x1="63.7" y1="253.8" x2="201.8" y2="336.7"/>
	<line class="st7" x1="228.6" y1="323.9" x2="228.6" y2="1726.3"/>
	<line class="st8" x1="1.5" y1="1420.9" x2="201.8" y2="1541.1"/>
	<line class="st8" x1="63.7" y1="1406.9" x2="201.8" y2="1489.9"/>
	<line class="st8" x1="63.7" y1="1112.4" x2="201.8" y2="1195.3"/>
	<line class="st8" x1="63.7" y1="1064" x2="201.8" y2="1146.9"/>
	<line class="st8" x1="63.7" y1="690.1" x2="201.8" y2="773.1"/>
	<line class="st8" x1="63.7" y1="638.5" x2="201.8" y2="721.4"/>
	<line class="st8" x1="63.7" y1="306" x2="201.8" y2="389"/>
	<line class="st8" x1="267.2" y1="1163.2" x2="201.8" y2="1195.3"/>
	<line class="st8" x1="267.2" y1="1114.7" x2="201.8" y2="1146.9"/>
	<line class="st8" x1="267.2" y1="1508.8" x2="201.8" y2="1541"/>
	<line class="st8" x1="267.2" y1="1457.7" x2="201.8" y2="1489.9"/>
	<line class="st8" x1="267.2" y1="740.9" x2="201.8" y2="773.1"/>
	<line class="st8" x1="267.2" y1="690" x2="201.8" y2="722.1"/>
	<line class="st8" x1="267.2" y1="357" x2="201.8" y2="389.1"/>
	<line class="st8" x1="368.4" y1="255" x2="201.8" y2="336.7"/>
	<line class="st8" x1="368.4" y1="1657.3" x2="201.8" y2="1739.1"/>
	<line class="st14" x1="63.2" y1="1390.5" x2="1.5" y2="1420.8"/>
	<line class="st8" x1="711.1" y1="1837.2" x2="711.1" y2="1851.3"/>
	<line class="st8" x1="368.9" y1="1210.9" x2="407.8" y2="1234.3"/>
	<line class="st8" x1="382.1" y1="1204.6" x2="421" y2="1227.9"/>
	<line class="st8" x1="420.2" y1="1228.6" x2="408" y2="1234.6"/>
	<line class="st8" x1="381.1" y1="1204.6" x2="368.9" y2="1210.6"/>
	<line class="st8" x1="368.9" y1="1294.8" x2="407.8" y2="1318.1"/>
	<line class="st8" x1="382.1" y1="1288.4" x2="421" y2="1311.8"/>
	<line class="st8" x1="420.2" y1="1312.4" x2="408" y2="1318.4"/>
	<line class="st8" x1="381.1" y1="1288.4" x2="368.9" y2="1294.4"/>
	<line class="st8" x1="368.9" y1="1129.4" x2="407.8" y2="1152.8"/>
	<line class="st8" x1="382.1" y1="1123.1" x2="421" y2="1146.4"/>
	<line class="st8" x1="420.2" y1="1147.1" x2="408" y2="1153.1"/>
	<line class="st8" x1="381.1" y1="1123.1" x2="368.9" y2="1129.1"/>
	<line class="st8" x1="368.9" y1="1472.2" x2="407.8" y2="1495.6"/>
	<line class="st8" x1="382.1" y1="1465.9" x2="421" y2="1489.3"/>
	<line class="st8" x1="420.2" y1="1489.9" x2="408" y2="1495.9"/>
	<line class="st8" x1="381.1" y1="1465.9" x2="368.9" y2="1471.9"/>
	<line class="st8" x1="368.9" y1="1378.7" x2="407.8" y2="1402"/>
	<line class="st8" x1="382.1" y1="1372.3" x2="421" y2="1395.7"/>
	<line class="st8" x1="381.1" y1="1372.3" x2="368.9" y2="1378.3"/>
	<line class="st8" x1="420.2" y1="1396.3" x2="408" y2="1402.3"/>
</g>
</svg>
